SplineFontDB: 3.2
FontName: AtkinsonHyperPro-Bold
FullName: Atkinson Hyperlegible Pro Bold
FamilyName: Atkinson Hyperlegible Pro
Weight: Bold
Copyright: Copyright 2020 Braille Institute of America, Inc.
UComments: "Update by Jacob Perez+AAoA-https://jacobxperez.github.io/atkinson-hyperlegible-pro/"
Version: 1.4.0-prerelease
ItalicAngle: 0
UnderlinePosition: -106
UnderlineWidth: 57
Ascent: 800
Descent: 200
InvalidEm: 0
sfntRevision: 0x00010000
LayerCount: 2
Layer: 0 0 "Back" 1
Layer: 1 0 "Fore" 0
XUID: [1021 466 782043844 10191]
StyleMap: 0x0020
FSType: 0
OS2Version: 4
OS2_WeightWidthSlopeOnly: 0
OS2_UseTypoMetrics: 1
CreationTime: 1615339189
ModificationTime: 1697863871
PfmFamily: 81
TTFWeight: 700
TTFWidth: 5
LineGap: 0
VLineGap: 0
Panose: 0 0 0 0 0 0 0 0 0 0
OS2TypoAscent: 950
OS2TypoAOffset: 0
OS2TypoDescent: -290
OS2TypoDOffset: 0
OS2TypoLinegap: 0
OS2WinAscent: 950
OS2WinAOffset: 0
OS2WinDescent: 290
OS2WinDOffset: 0
HheadAscent: 950
HheadAOffset: 0
HheadDescent: -290
HheadDOffset: 0
OS2SubXSize: 650
OS2SubYSize: 699
OS2SubXOff: 0
OS2SubYOff: 140
OS2SupXSize: 650
OS2SupYSize: 699
OS2SupXOff: 0
OS2SupYOff: 479
OS2StrikeYSize: 49
OS2StrikeYPos: 258
OS2CapHeight: 668
OS2XHeight: 496
OS2Vendor: 'NONE'
OS2CodePages: 20000003.00000000
OS2UnicodeRanges: 800000ef.0000204b.00000000.00000000
Lookup: 4 0 1 "'liga' Standard Ligatures lookup 0" { "'liga' Standard Ligatures lookup 0-1"  } ['liga' ('DFLT' <'dflt' > 'grek' <'dflt' > 'latn' <'MOL ' 'dflt' > ) ]
Lookup: 1 0 0 "'zero' Slashed Zero lookup 0" { "'zero' Slashed Zero lookup 0-1"  } ['zero' ('DFLT' <'dflt' > 'grek' <'dflt' > 'latn' <'MOL ' 'dflt' > ) ]
Lookup: 1 0 0 "'aalt' Access All Alternates lookup 0" { "'aalt' Access All Alternates lookup 0 subtable"  } ['aalt' ('DFLT' <'dflt' > 'grek' <'dflt' > 'latn' <'dflt' > ) ]
Lookup: 3 0 0 "'aalt' Access All Alternates lookup 1" { "'aalt' Access All Alternates lookup 1 subtable"  } ['aalt' ('DFLT' <'dflt' > 'grek' <'dflt' > 'latn' <'dflt' > ) ]

StartChar: .notdef
Encoding: 256 -1 0
Width: 527
GlyphClass: 1
Flags: W
HStem: 0 21<79 449> 680 20<78 449>
VStem: 50 21<49 650> 457 20<47 652>
DStem2: 78 680 71 650 0.513698 -0.857971<22.1432 360.147 396.696 737.787> 71 49 79 21 0.513896 0.857853<0 339.381 374.897 715.649>
LayerCount: 2
Fore
SplineSet
79 21 m 1
 449 21 l 1
 264 329 l 1
 79 21 l 1
71 49 m 1
 251 350 l 1
 71 650 l 1
 71 49 l 1
457 47 m 1
 457 652 l 1
 276 350 l 1
 457 47 l 1
263 371 m 1
 449 680 l 1
 78 680 l 1
 263 371 l 1
50 0 m 1
 50 700 l 1
 477 700 l 1
 477 0 l 1
 50 0 l 1
EndSplineSet
EndChar

StartChar: zero
Encoding: 48 48 5
Width: 652
GlyphClass: 1
Flags: W
HStem: -12 113<266.608 395.482> 567 113<266.338 396.04>
VStem: 45 156<189.083 425.963> 461 157<247.459 482.83>
DStem2: 254 534 209 431 0.570817 -0.821077<58.8842 351.204>
LayerCount: 2
Fore
SplineSet
209 431 m 1
 203.57366867 402.511760511 201 371.627736475 201 335 c 0
 201 184.152959942 247.196088857 101 331 101 c 0
 364.333333333 101 391.333333333 113.666666667 412 139 c 1
 209 431 l 1
455 246 m 1
 459 272 461 301.333333333 461 334 c 0
 461 486.276259314 415.961003051 567 331 567 c 0
 301 567 275.333333333 556 254 534 c 1
 455 246 l 1
618 335 m 0
 618 114.67358683 513.229627031 -12 331 -12 c 0
 149.793615628 -12 45 115.144701479 45 335 c 0
 45 555.547298271 148.169486071 680 331 680 c 0
 514.796444385 680 618 555.9399767 618 335 c 0
EndSplineSet
Substitution2: "'zero' Slashed Zero lookup 0-1" zero.alt1
Substitution2: "'aalt' Access All Alternates lookup 0 subtable" zero.alt1
Substitution2: "'tnum' Tabular Numbers lookup 14 subtable" zero.tf
EndChar

StartChar: one
Encoding: 49 49 6
Width: 448
GlyphClass: 1
Flags: W
HStem: 0 21G<199 350> 448 123<47 179.941> 648 20G<219.132 350>
VStem: 199 151<0 448>
LayerCount: 2
Fore
SplineSet
47 571 m 1
 169.03529703 571 203.264279325 588.660698312 235 668 c 1
 350 668 l 1
 350 0 l 1
 199 0 l 1
 199 448 l 1
 47 448 l 1
 47 571 l 1
EndSplineSet
Substitution2: "'tnum' Tabular Numbers lookup 14 subtable" one.tf
Substitution2: "'sups' Superscript lookup 9 subtable" uni00B9
AlternateSubs2: "'aalt' Access All Alternates lookup 1 subtable" uni00B9 one.tf
EndChar

StartChar: two
Encoding: 50 50 7
Width: 586
GlyphClass: 1
Flags: W
HStem: 0 125<228 547> 567 113<234.537 364.979>
VStem: 391 153<417.833 539.464>
LayerCount: 2
Fore
SplineSet
59 535 m 1
 94.2991900295 626.516418596 185.40570456 680 306 680 c 0
 451.629966591 680 544 604.318670106 544 485 c 0
 544 363.21629208 447.74428217 253.557879363 228 125 c 1
 547 125 l 1
 547 0 l 1
 34 0 l 1
 34 125 l 1
 304.490345699 315.57274356 391 403.53634163 391 488 c 0
 391 535.604865375 354.438577399 567 299 567 c 0
 245.856350419 567 209.316436774 537.624775305 197 485 c 1
 59 535 l 1
EndSplineSet
Substitution2: "'tnum' Tabular Numbers lookup 14 subtable" two.tf
Substitution2: "'sups' Superscript lookup 9 subtable" uni00B2
AlternateSubs2: "'aalt' Access All Alternates lookup 1 subtable" uni00B2 two.tf
EndChar

StartChar: three
Encoding: 51 51 8
Width: 605
GlyphClass: 1
Flags: W
HStem: -12 113<217.432 368.163> 291 106<211 337.641> 567 113<212.965 361.065>
VStem: 390 153<439.357 539.21> 398 156<129.939 246.246>
LayerCount: 2
Fore
SplineSet
554 195 m 0xe8
 554 70.6078245063 449.044164999 -12 291 -12 c 0
 165.089876804 -12 71.3424072928 43.2310673089 33 140 c 1
 171 190 l 1
 186.23135967 132.589490474 230.243683477 101 295 101 c 0
 358.976635671 101 398 133.961482491 398 188 c 0xe8
 398 257.506466998 337.191352705 291 211 291 c 1
 211 397 l 1
 325.695425563 397 390 430.0503958 390 489 c 0
 390 535.965601758 348.620802344 567 286 567 c 0
 226.664679148 567 188.601088006 538.365004829 177 485 c 1
 40 535 l 1
 76.0414926617 626.905806287 169.414040226 680 295 680 c 0
 442.957495269 680 543 610.212285006 543 507 c 0xf0
 543 444.618793586 506.956753679 384.546716385 450 352 c 1
 510.017031741 330.175624821 554 263.778259276 554 195 c 0xe8
EndSplineSet
Substitution2: "'tnum' Tabular Numbers lookup 14 subtable" three.tf
Substitution2: "'sups' Superscript lookup 9 subtable" uni00B3
AlternateSubs2: "'aalt' Access All Alternates lookup 1 subtable" uni00B3 three.tf
EndChar

StartChar: four
Encoding: 52 52 9
Width: 626
GlyphClass: 1
Flags: W
HStem: 0 21G<348 500> 141 134<188 348 500 592> 648 20G<332.375 500>
VStem: 348 152<0 141 275 469>
DStem2: 23 252 188 275 0.615644 0.788024<119.706 371.086>
LayerCount: 2
Fore
SplineSet
188 275 m 1
 348 275 l 1
 348 469 l 1
 188 275 l 1
348 0 m 1
 348 141 l 1
 23 141 l 1
 23 252 l 1
 348 668 l 1
 500 668 l 1
 500 275 l 1
 592 275 l 1
 592 141 l 1
 500 141 l 1
 500 0 l 1
 348 0 l 1
EndSplineSet
Substitution2: "'tnum' Tabular Numbers lookup 14 subtable" four.tf
Substitution2: "'sups' Superscript lookup 9 subtable" uni2074
AlternateSubs2: "'aalt' Access All Alternates lookup 1 subtable" four.tf uni2074
EndChar

StartChar: five
Encoding: 53 53 10
Width: 612
GlyphClass: 1
Flags: W
HStem: -12 113<214.681 361.246> 341 113<221.915 363.276> 544 124<213 534>
VStem: 408 157<146.858 294.966>
LayerCount: 2
Fore
SplineSet
565 221 m 0
 565 81.995634622 456.078019966 -12 295 -12 c 0
 174.959272814 -12 82.5380115848 42.943348211 41 139 c 1
 173 187 l 1
 189.251132 130.121038 227.853438186 101 287 101 c 0
 361.724030417 101 408 146.893523554 408 221 c 0
 408 294.908336519 362.67653091 341 290 341 c 0
 240.666666667 341 204 319.333333333 180 276 c 1
 45 326 l 1
 87 668 l 1
 534 668 l 1
 534 544 l 1
 213 544 l 1
 198 419 l 1
 226.467076243 440.04088244 279.511722971 454 331 454 c 0
 469.883240777 454 565 359.289722654 565 221 c 0
EndSplineSet
Substitution2: "'tnum' Tabular Numbers lookup 14 subtable" five.tf
Substitution2: "'aalt' Access All Alternates lookup 0 subtable" five.tf
EndChar

StartChar: six
Encoding: 54 54 11
Width: 632
GlyphClass: 1
Flags: W
HStem: -12 113<255.712 383.526> 338 114<252.723 383.922> 570 110<265.798 395.613>
VStem: 51 161<154.632 379.034 403 462.459> 425 153<141.432 295.622>
LayerCount: 2
Fore
SplineSet
212 220 m 0
 212 147.607818621 254.299532866 101 320 101 c 0
 384.437822709 101 425 146.584161146 425 219 c 0
 425 292.13369879 384.144303124 338 319 338 c 0
 253.9918475 338 212 291.691233598 212 220 c 0
578 227 m 0
 578 87.7839395797 470.700952 -12 321 -12 c 0
 144.220656465 -12 51 97.7932176143 51 306 c 0
 51 538.346141331 160.459799881 680 340 680 c 0
 435.315224695 680 506.754106495 646.031512085 544 583 c 1
 408 534 l 1
 394.817079835 556.410964279 365.374169107 570 330 570 c 0
 253.134222195 570 210 509.971540778 210 403 c 1
 246.085267058 436.198445693 292.200007178 452 353 452 c 0
 481.926280531 452 578 355.926280531 578 227 c 0
EndSplineSet
Substitution2: "'tnum' Tabular Numbers lookup 14 subtable" six.tf
Substitution2: "'aalt' Access All Alternates lookup 0 subtable" six.tf
EndChar

StartChar: seven
Encoding: 55 55 12
Width: 543
GlyphClass: 1
Flags: W
HStem: 0 21G<83 267.466> 543 125<15 354>
LayerCount: 2
Fore
SplineSet
83 0 m 1
 354 543 l 1
 15 543 l 1
 15 668 l 1
 515 668 l 1
 515 543 l 1
 258 0 l 1
 83 0 l 1
EndSplineSet
Substitution2: "'tnum' Tabular Numbers lookup 14 subtable" seven.tf
Substitution2: "'aalt' Access All Alternates lookup 0 subtable" seven.tf
EndChar

StartChar: eight
Encoding: 56 56 13
Width: 625
GlyphClass: 1
Flags: W
HStem: -12 126<236.233 388.952> 294 123<263.934 361.504> 555 125<263.171 362.305>
VStem: 38 157<151.346 260.092> 120 124<436.603 536.329> 380 125<434.875 537.22> 430 157<152.131 259.854>
LayerCount: 2
Fore
SplineSet
195 206 m 0xf2
 195 151.272016451 242.805412405 114 313 114 c 0
 381.429444962 114 430 152.192231312 430 206 c 0
 430 259.881753628 384.63824062 294 313 294 c 0
 240.400079126 294 195 260.142313872 195 206 c 0xf2
244 486 m 0xec
 244 448.264095712 275.264095712 417 313 417 c 0
 350.167425398 417 380 447.723099217 380 486 c 0
 380 525.582066918 351.43476063 555 313 555 c 0
 274.61648681 555 244 524.38351319 244 486 c 0xec
587 206 m 0xe2
 587 72.9438798239 480.235673983 -12 313 -12 c 0
 144.513531654 -12 38 72.82350339 38 207 c 0xf2
 38 282.515542806 71.4635440574 332.417319032 152 377 c 1
 130.724733729 411.040426033 120 447.906698228 120 487 c 0
 120 597.716509758 202.283490242 680 313 680 c 0
 423.853983895 680 505 598.431348394 505 487 c 0xec
 505 447 494 410.666666667 472 378 c 1
 553.077818183 333.117636363 587 282.381851384 587 206 c 0xe2
EndSplineSet
Substitution2: "'tnum' Tabular Numbers lookup 14 subtable" eight.tf
Substitution2: "'aalt' Access All Alternates lookup 0 subtable" eight.tf
EndChar

StartChar: nine
Encoding: 57 57 14
Width: 561
GlyphClass: 1
Flags: W
HStem: 0 21G<170 353.216> 202 133<214.603 278> 544 135<210.319 341.389>
VStem: 38 135<375.851 505.948> 382.356 133.644<379.141 504.653>
LayerCount: 2
Fore
SplineSet
382.356311032 444.695419958 m 0
 382.356311032 500.538948244 335.371386589 544 275 544 c 0
 215.673726639 544 173 500.489533623 173 440 c 0
 173 379.990740455 217.990740455 335 278 335 c 0
 335.037262796 335 382.356311032 384.739999593 382.356311032 444.695419958 c 0
275 679 m 0
 408.281112831 679 516 571.728079168 516 439 c 0
 516 399.983384927 506.262556522 364.928588408 481 313 c 0
 427.537441413 201.062767958 376.432142441 95.129267439 330 0 c 1
 170 0 l 1
 204.789875883 59.9825446254 238.754277948 123.508555895 278 202 c 1
 267 202 l 1
 138.343463439 208.126501741 38 312.851775811 38 441 c 0
 38 573.128650623 143.426511775 679 275 679 c 0
EndSplineSet
Substitution2: "'tnum' Tabular Numbers lookup 14 subtable" nine.tf
Substitution2: "'aalt' Access All Alternates lookup 0 subtable" nine.tf
EndChar

StartChar: A
Encoding: 65 65 15
Width: 690
GlyphClass: 2
Flags: W
HStem: 0 21G<5 183.723 506.277 685> 119 128<260 430> 648 20G<250.425 439.575>
DStem2: 5 0 177 0 0.35419 0.935173<60.9207 186.374 321.306 484.629> 432 668 344 501 0.35419 -0.935173<125.005 393> 685 0 473 119 0.35419 -0.935173<-558.903 -321.306 -186.374 -60.9207>
AnchorPoint: "Anchor-2" 685 0 basechar 0
AnchorPoint: "Anchor-1" 345 0 basechar 0
AnchorPoint: "Anchor-0" 345 668 basechar 0
LayerCount: 2
Fore
SplineSet
260 247 m 1
 430 247 l 1
 344 501 l 1
 260 247 l 1
5 0 m 1
 258 668 l 1
 432 668 l 1
 685 0 l 1
 513 0 l 1
 473 119 l 1
 217 119 l 1
 177 0 l 1
 5 0 l 1
EndSplineSet
Substitution2: "Single Substitution lookup 12 subtable" ordfeminine
Substitution2: "'aalt' Access All Alternates lookup 0 subtable" ordfeminine
EndChar

StartChar: B
Encoding: 66 66 16
Width: 639
GlyphClass: 1
Flags: W
HStem: 0 131<202 424.656> 282 122<202 407.206> 539 129<202 404.289>
VStem: 44 158<131 282 404 539> 426 164<424.145 520.646> 450 167<156.144 258.121>
AnchorPoint: "Anchor-0" 286 668 basechar 0
LayerCount: 2
Fore
SplineSet
450 207 m 0xf4
 450 255.449519942 413.891347121 282 348 282 c 2
 202 282 l 1
 202 131 l 1
 348 131 l 2
 413.506412841 131 450 158.191300236 450 207 c 0xf4
426 472 m 0xf8
 426 514.487366493 394.901882864 539 341 539 c 2
 202 539 l 1
 202 404 l 1
 341 404 l 2
 393.73664492 404 426 429.810684064 426 472 c 0xf8
617 206 m 0xf4
 617 68.9585640311 526.617416076 0 347 0 c 2
 44 0 l 1
 44 668 l 1
 336 668 l 2
 511.34880237 668 590 614.120833119 590 494 c 0xf8
 590 434.028477699 562.958011529 386.448270136 511 355 c 1
 580.785791054 331.243134961 617 280.338256348 617 206 c 0xf4
EndSplineSet
EndChar

StartChar: C
Encoding: 67 67 17
Width: 673
GlyphClass: 2
Flags: W
HStem: -12 130<292.157 458.927> 550 130<289.701 454.131>
VStem: 35 167<221.592 445.274>
AnchorPoint: "Anchor-1" 357 0 basechar 0
AnchorPoint: "Anchor-0" 357 668 basechar 0
LayerCount: 2
Fore
SplineSet
651 142 m 1
 596.002753797 44.3798879884 492.761660208 -12 369 -12 c 0
 161.459397532 -12 35 119.002848941 35 334 c 0
 35 545.773755174 166.122747836 680 373 680 c 0
 495.065486327 680 593.994565433 624.036469849 647 525 c 1
 507 474 l 1
 480.791807871 522.842539878 431.122242648 550 368 550 c 0
 268.603129922 550 202 463.335686367 202 334 c 0
 202 202.254178037 267.531027362 118 370 118 c 0
 435.319321648 118 486.280796657 144.916272012 512 193 c 1
 651 142 l 1
EndSplineSet
EndChar

StartChar: D
Encoding: 68 68 18
Width: 686
GlyphClass: 2
Flags: W
HStem: 0 133<202 395.705> 537 131<202 391.989>
VStem: 44 158<133 537> 488 163<220.086 448.204>
AnchorPoint: "Anchor-1" 343 0 basechar 0
AnchorPoint: "Anchor-0" 326 668 basechar 0
LayerCount: 2
Fore
SplineSet
488 334 m 0
 488 477.088184604 422.775806884 537 267 537 c 2
 202 537 l 1
 202 133 l 1
 267 133 l 2
 423.970079543 133 488 191.23535752 488 334 c 0
651 334 m 0
 651 110.901653396 522.500180047 0 264 0 c 2
 44 0 l 1
 44 668 l 1
 264 668 l 2
 522.283261381 668 651 556.911135146 651 334 c 0
EndSplineSet
EndChar

StartChar: E
Encoding: 69 69 19
Width: 580
GlyphClass: 2
Flags: W
HStem: 0 139<202 558> 274 139<202 419> 529 139<202 558>
VStem: 44 158<139 274 413 529>
AnchorPoint: "Anchor-2" 522 0 basechar 0
AnchorPoint: "Anchor-1" 290 0 basechar 0
AnchorPoint: "Anchor-0" 303 668 basechar 0
LayerCount: 2
Fore
SplineSet
44 0 m 1
 44 668 l 1
 558 668 l 1
 558 529 l 1
 202 529 l 1
 202 413 l 1
 419 413 l 1
 419 274 l 1
 202 274 l 1
 202 139 l 1
 558 139 l 1
 558 0 l 1
 44 0 l 1
EndSplineSet
EndChar

StartChar: F
Encoding: 70 70 20
Width: 544
GlyphClass: 1
Flags: W
HStem: 0 21G<44 202> 274 139<202 522> 529 139<202 522>
VStem: 44 158<0 274 413 529>
AnchorPoint: "Anchor-0" 273 668 basechar 0
LayerCount: 2
Fore
SplineSet
44 0 m 1
 44 668 l 1
 522 668 l 1
 522 529 l 1
 202 529 l 1
 202 413 l 1
 522 413 l 1
 522 274 l 1
 202 274 l 1
 202 0 l 1
 44 0 l 1
EndSplineSet
EndChar

StartChar: G
Encoding: 71 71 21
Width: 719
GlyphClass: 2
Flags: W
HStem: -12 130<290.998 473.304> 0 21G<573.054 683> 250 128<375 525> 550 130<291.681 461.492>
VStem: 35 167<222.457 446.565> 525 158<166.233 250>
AnchorPoint: "Anchor-1" 350 0 basechar 0
AnchorPoint: "Anchor-0" 370 668 basechar 0
LayerCount: 2
Fore
SplineSet
376 118 m 0xbc
 469.796549578 118 525 159.865704011 525 231 c 2
 525 250 l 1
 375 250 l 1
 375 378 l 1
 683 378 l 1
 683 0 l 1
 579 0 l 1x7c
 557 74 l 1
 514.333333333 16.6666666665 446 -12 352 -12 c 0
 156.664496386 -12 35 121.562286254 35 336 c 0
 35 544.300270935 169.121825239 680 375 680 c 0
 495.675637309 680 591.844541345 630.664279714 644 542 c 1
 508 486 l 1
 482.82594368 526.907841519 434.115921884 550 373 550 c 0
 268.64322784 550 202 466.59853358 202 336 c 0
 202 200.22919725 267.632478539 118 376 118 c 0xbc
EndSplineSet
EndChar

StartChar: H
Encoding: 72 72 22
Width: 679
GlyphClass: 2
Flags: W
HStem: 0 21G<44 202 477 635> 274 139<202 477> 648 20G<44 202 477 635>
VStem: 44 158<0 274 413 668> 477 158<0 274 413 668>
AnchorPoint: "Anchor-1" 340 0 basechar 0
AnchorPoint: "Anchor-0" 340 668 basechar 0
LayerCount: 2
Fore
SplineSet
44 0 m 1
 44 668 l 1
 202 668 l 1
 202 413 l 1
 477 413 l 1
 477 668 l 1
 635 668 l 1
 635 0 l 1
 477 0 l 1
 477 274 l 1
 202 274 l 1
 202 0 l 1
 44 0 l 1
EndSplineSet
EndChar

StartChar: I
Encoding: 73 73 23
Width: 458
GlyphClass: 2
Flags: W
HStem: 0 124<57 151 309 401> 544 124<57 151 309 401>
VStem: 57 344<0 124 544 668>
AnchorPoint: "Anchor-2" 331 0 basechar 0
AnchorPoint: "Anchor-1" 229 0 basechar 0
AnchorPoint: "Anchor-0" 231 668 basechar 0
LayerCount: 2
Fore
SplineSet
57 0 m 1
 57 124 l 1
 151 124 l 1
 151 544 l 1
 57 544 l 1
 57 668 l 1
 401 668 l 1
 401 544 l 1
 309 544 l 1
 309 124 l 1
 401 124 l 1
 401 0 l 1
 57 0 l 1
EndSplineSet
EndChar

StartChar: J
Encoding: 74 74 24
Width: 560
GlyphClass: 1
Flags: W
HStem: -12 125<199.766 321.054> 648 20G<358 516>
VStem: 358 158<154.469 668>
AnchorPoint: "Anchor-0" 441 668 basechar 0
LayerCount: 2
Fore
SplineSet
516 256 m 2
 516 84.5614731272 421.960654902 -12 255 -12 c 0
 122.842861772 -12 34.9590764777 53.7370714001 5 175 c 1
 150 228 l 1
 165.954882746 153.543880515 202.973208433 113 255 113 c 0
 326.6626323 113 358 156.507219234 358 256 c 2
 358 668 l 1
 516 668 l 1
 516 256 l 2
EndSplineSet
EndChar

StartChar: K
Encoding: 75 75 25
Width: 659
GlyphClass: 2
Flags: W
HStem: 0 21G<44 202 451.588 649> 648 20G<44 202 424.811 636>
VStem: 44 158<0 197 403 668> 443 193<475 668> 466 183<0 183>
DStem2: 202 403 372 382 0.677631 0.735402<99.7539 358.191> 372 382 270 272 0.587037 -0.80956<29.1738 364.433>
AnchorPoint: "Anchor-1" 319 0 basechar 0
AnchorPoint: "Anchor-0" 330 668 basechar 0
LayerCount: 2
Fore
SplineSet
44 0 m 1xe8
 44 668 l 1
 202 668 l 1
 202 403 l 1
 443 668 l 1
 636 668 l 1xf0
 372 382 l 1
 649 0 l 1
 466 0 l 1
 270 272 l 1
 202 197 l 1
 202 0 l 1
 44 0 l 1xe8
EndSplineSet
EndChar

StartChar: L
Encoding: 76 76 26
Width: 537
GlyphClass: 2
Flags: W
HStem: 0 139<202 522> 648 20G<44 202>
VStem: 44 158<139 668>
AnchorPoint: "Anchor-1" 269 0 basechar 0
AnchorPoint: "Anchor-0" 127 668 basechar 0
LayerCount: 2
Fore
SplineSet
44 0 m 1
 44 668 l 1
 202 668 l 1
 202 139 l 1
 522 139 l 1
 522 0 l 1
 44 0 l 1
EndSplineSet
EndChar

StartChar: M
Encoding: 77 77 27
Width: 842
GlyphClass: 1
Flags: W
HStem: 0 21G<44 197 348.981 491.057 644 798> 648 20G<44 286.804 555.113 798>
VStem: 44 153<0 525> 644 154<0 525>
DStem2: 281 668 197 525 0.288184 -0.957575<112.726 498.736> 420 189 485 0 0.289856 0.95707<0 386.503>
AnchorPoint: "Anchor-0" 420 668 basechar 0
LayerCount: 2
Fore
SplineSet
44 0 m 1
 44 668 l 1
 281 668 l 1
 420 189 l 1
 561 668 l 1
 798 668 l 1
 798 0 l 1
 644 0 l 1
 644 525 l 1
 485 0 l 1
 355 0 l 1
 197 525 l 1
 197 0 l 1
 44 0 l 1
EndSplineSet
EndChar

StartChar: N
Encoding: 78 78 28
Width: 700
GlyphClass: 2
Flags: W
HStem: 0 21G<44 196 443.16 656> 648 20G<44 255.84 503 656>
VStem: 44 152<0 476> 503 153<192 668>
DStem2: 245 668 196 476 0.476521 -0.879163<145.45 541.424>
AnchorPoint: "Anchor-1" 322 0 basechar 0
AnchorPoint: "Anchor-0" 365 668 basechar 0
LayerCount: 2
Fore
SplineSet
44 0 m 1
 44 668 l 1
 245 668 l 1
 503 192 l 1
 503 668 l 1
 656 668 l 1
 656 0 l 1
 454 0 l 1
 196 476 l 1
 196 0 l 1
 44 0 l 1
EndSplineSet
EndChar

StartChar: O
Encoding: 79 79 29
Width: 764
GlyphClass: 2
Flags: W
HStem: -12 130<296.787 465.738> 550 130<296.787 465.738>
VStem: 35 167<223.506 444.494> 561 168<223.447 444.553>
AnchorPoint: "Anchor-2" 688 10 basechar 0
AnchorPoint: "Anchor-1" 382 0 basechar 0
AnchorPoint: "Anchor-0" 382 668 basechar 0
LayerCount: 2
Fore
SplineSet
202 334 m 0
 202 204.06806736 273.324926192 118 381 118 c 0
 489.692769554 118 561 203.568676535 561 334 c 0
 561 464.431323466 489.692769555 550 381 550 c 0
 273.324926191 550 202 463.931932641 202 334 c 0
729 334 m 0
 729 127.421305208 588.772791293 -12 381 -12 c 0
 174.138697236 -12 35 127.138697236 35 334 c 0
 35 540.861302765 174.138697235 680 381 680 c 0
 588.772791293 680 729 540.578694791 729 334 c 0
EndSplineSet
Substitution2: "Single Substitution lookup 12 subtable" ordmasculine
Substitution2: "'aalt' Access All Alternates lookup 0 subtable" ordmasculine
EndChar

StartChar: P
Encoding: 80 80 30
Width: 626
GlyphClass: 1
Flags: W
HStem: 0 21G<44 202> 232 131<202 405.482> 535 133<202 407.104>
VStem: 44 158<0 232 363 535> 437 167<394.996 505.35>
AnchorPoint: "Anchor-0" 292 668 basechar 0
LayerCount: 2
Fore
SplineSet
437 450 m 0
 437 509.677394954 397.97339693 535 306 535 c 2
 202 535 l 1
 202 363 l 1
 306 363 l 2
 396.618538447 363 437 389.818222558 437 450 c 0
604 450 m 0
 604 298.92549287 510.979704865 232 301 232 c 2
 202 232 l 1
 202 0 l 1
 44 0 l 1
 44 668 l 1
 301 668 l 2
 511.431835479 668 604 601.399802424 604 450 c 0
EndSplineSet
EndChar

StartChar: Q
Encoding: 81 81 31
Width: 781
GlyphClass: 1
Flags: W
HStem: -12 130<296.787 464.922> 550 130<296.787 465.738>
VStem: 35 167<223.506 444.494> 561 168<252.835 444.553>
DStem2: 421 372 338 285 0.727013 -0.686624<0 176.866 342.507 493.803>
LayerCount: 2
Fore
SplineSet
202 334 m 0
 202 204.06806736 273.324926192 118 381 118 c 0
 419 118 452.333333333 128.333333333 481 149 c 1
 338 285 l 1
 421 372 l 1
 550 251 l 1
 557.501541266 274.754880676 561 301.152342031 561 334 c 0
 561 464.431323466 489.692769555 550 381 550 c 0
 273.324926191 550 202 463.931932641 202 334 c 0
729 334 m 0
 729 259.857611388 710.321896442 192.276836696 674 135 c 1
 781 34 l 1
 698 -55 l 1
 589 48 l 1
 531.666666667 8.00000000019 462.333333333 -12 381 -12 c 0
 174.138697236 -12 35 127.138697236 35 334 c 0
 35 540.861302765 174.138697235 680 381 680 c 0
 588.772791293 680 729 540.578694791 729 334 c 0
EndSplineSet
EndChar

StartChar: R
Encoding: 82 82 32
Width: 654
GlyphClass: 2
Flags: W
HStem: 0 21G<44 202 439.635 637> 252 132<202 273> 535 133<202 407.094>
VStem: 44 158<0 252 384 535> 437 167<408.768 508.033> 454 183<0 183>
DStem2: 443 269 273 252 0.58494 -0.811077<0 224.614>
AnchorPoint: "Anchor-1" 327 0 basechar 0
AnchorPoint: "Anchor-0" 307 668 basechar 0
LayerCount: 2
Fore
SplineSet
202 384 m 1xf8
 306 384 l 2
 397.624945314 384 437 406.54297024 437 459 c 0
 437 512.428541225 398.0939329 535 306 535 c 2
 202 535 l 1
 202 384 l 1xf8
604 461 m 0
 604 363.607847579 548.070541152 296.909362494 443 269 c 1
 637 0 l 1
 454 0 l 1xf4
 273 252 l 1
 202 252 l 1
 202 0 l 1
 44 0 l 1
 44 668 l 1
 301 668 l 2
 511.40568162 668 604 604.742495364 604 461 c 0
EndSplineSet
EndChar

StartChar: S
Encoding: 83 83 33
Width: 619
GlyphClass: 2
Flags: W
HStem: -12 127<225.111 406.153> 553 127<214.447 383.366>
VStem: 28 162<445.985 528.604> 434 162<141.449 229.121>
DStem2: 266 421 231 285 0.980581 -0.196116<-67.7021 186.545>
AnchorPoint: "Anchor-1" 329 0 basechar 0
AnchorPoint: "Anchor-0" 304 668 basechar 0
LayerCount: 2
Fore
SplineSet
596 209 m 0
 596 83.2340593603 474.479616563 -12 314 -12 c 0
 170.445280252 -12 67.0604651171 48.456864214 25 157 c 1
 169 209 l 1
 186.851204427 147.795870537 237.78947143 115 315 115 c 0
 389.121318585 115 434 141.399224362 434 185 c 0
 434 226.62969029 394.706996271 253.683889579 312 269 c 1
 231 285 l 2
 96.6632482406 312.364893877 28 375.954503085 28 473 c 0
 28 594.254252912 145.22727742 680 311 680 c 0
 434.920579564 680 530.247475916 626.006250113 567 535 c 1
 424 483 l 1
 406.917922311 527.676203187 360.973319521 553 297 553 c 0
 231.38225434 553 190 528.247997404 190 489 c 0
 190 456.563528347 218.912447892 430.694496022 266 421 c 2
 356 403 l 2
 527.313205192 369.573033134 596 314.051207331 596 209 c 0
EndSplineSet
EndChar

StartChar: T
Encoding: 84 84 34
Width: 617
GlyphClass: 2
Flags: W
HStem: 0 21G<230 387> 529 139<15 230 387 602>
VStem: 230 157<0 529>
AnchorPoint: "Anchor-1" 309 0 basechar 0
AnchorPoint: "Anchor-0" 309 668 basechar 0
LayerCount: 2
Fore
SplineSet
230 0 m 1
 230 529 l 1
 15 529 l 1
 15 668 l 1
 602 668 l 1
 602 529 l 1
 387 529 l 1
 387 0 l 1
 230 0 l 1
EndSplineSet
EndChar

StartChar: U
Encoding: 85 85 35
Width: 663
GlyphClass: 2
Flags: W
HStem: -12 129<250.18 413.213> 648 20G<44 202 461 619>
VStem: 44 158<169.593 668> 461 158<169.984 668>
AnchorPoint: "Anchor-2" 440 0 basechar 0
AnchorPoint: "Anchor-1" 332 0 basechar 0
AnchorPoint: "Anchor-0" 332 668 basechar 0
LayerCount: 2
Fore
SplineSet
619 292 m 2
 619 80.4392969223 531.730005866 -12 332 -12 c 0
 130.648185846 -12 44 79.4619739487 44 292 c 2
 44 668 l 1
 202 668 l 1
 202 279 l 2
 202 160.415339102 236.83946965 117 332 117 c 0
 426.431314059 117 461 160.411838159 461 279 c 2
 461 668 l 1
 619 668 l 1
 619 292 l 2
EndSplineSet
EndChar

StartChar: V
Encoding: 86 86 36
Width: 656
GlyphClass: 1
Flags: W
HStem: 0 21G<229.234 425.796> 648 20G<10 180.232 474.727 646>
VStem: 10 164<504 668> 481 165<503 668>
DStem2: 174 668 10 668 0.320479 -0.947256<0 514.136> 327 177 419 0 0.32175 0.946825<0 514.44>
LayerCount: 2
Fore
SplineSet
236 0 m 1
 10 668 l 1
 174 668 l 1
 327 177 l 1
 481 668 l 1
 646 668 l 1
 419 0 l 1
 236 0 l 1
EndSplineSet
EndChar

StartChar: W
Encoding: 87 87 37
Width: 883
GlyphClass: 1
Flags: W
HStem: 0 21G<166.18 344.298 538.66 716.82> 648 20G<10 172.017 354.767 527.276 710.983 873>
VStem: 10 158<510 668> 715 158<510 668>
DStem2: 261 205 340 0 0.210097 0.97768<0 296.903> 523 668 441 470 0.212084 -0.977251<176.105 473.464>
AnchorPoint: "Anchor-0" 441 668 basechar 0
LayerCount: 2
Fore
SplineSet
171 0 m 1
 10 668 l 1
 168 668 l 1
 261 205 l 1
 359 668 l 1
 523 668 l 1
 622 205 l 1
 715 668 l 1
 873 668 l 1
 712 0 l 1
 543 0 l 1
 441 470 l 1
 340 0 l 1
 171 0 l 1
EndSplineSet
EndChar

StartChar: X
Encoding: 88 88 38
Width: 699
GlyphClass: 1
Flags: W
HStem: 0 21G<10 214.123 484.782 689> 648 20G<24 227.167 471.729 675>
VStem: 10 190<0 190> 24 189<479 668> 486 189<479 668> 499 190<0 190>
DStem2: 10 0 200 0 0.580315 0.814392<110.26 368.564 584.377 820.244> 213 668 24 668 0.580315 -0.814392<0 235.286 451.1 709.984>
LayerCount: 2
Fore
SplineSet
10 0 m 1xe4
 255 343 l 1
 24 668 l 1
 213 668 l 1
 349 476 l 1
 486 668 l 1
 675 668 l 1xd8
 444 343 l 1
 689 0 l 1
 499 0 l 1
 349 211 l 1
 200 0 l 1
 10 0 l 1xe4
EndSplineSet
EndChar

StartChar: Y
Encoding: 89 89 39
Width: 687
GlyphClass: 2
Flags: W
HStem: 0 21G<265 422> 648 20G<10 205.595 480.405 677>
VStem: 10 184<484 668> 265 157<0 260> 492 185<483 668>
DStem2: 194 668 10 668 0.529999 -0.847998<0 296.905> 343 411 422 260 0.529999 0.847998<0 296.905>
AnchorPoint: "Anchor-1" 344 0 basechar 0
AnchorPoint: "Anchor-0" 344 668 basechar 0
LayerCount: 2
Fore
SplineSet
265 0 m 1
 265 260 l 1
 10 668 l 1
 194 668 l 1
 343 411 l 1
 492 668 l 1
 677 668 l 1
 422 260 l 1
 422 0 l 1
 265 0 l 1
EndSplineSet
EndChar

StartChar: Z
Encoding: 90 90 40
Width: 621
GlyphClass: 2
Flags: W
HStem: 0 139<240 589> 529 139<47 369>
DStem2: 32 121 240 139 0.636833 0.771002<146.339 529.181>
AnchorPoint: "Anchor-1" 311 0 basechar 0
AnchorPoint: "Anchor-0" 311 668 basechar 0
LayerCount: 2
Fore
SplineSet
32 0 m 1
 32 121 l 1
 369 529 l 1
 47 529 l 1
 47 668 l 1
 574 668 l 1
 574 547 l 1
 240 139 l 1
 589 139 l 1
 589 0 l 1
 32 0 l 1
EndSplineSet
EndChar

StartChar: a
Encoding: 97 97 41
Width: 553
GlyphClass: 2
Flags: W
HStem: -12 104<144.128 301.898> 0 21G<373 520> 220 90<230.901 353> 407 103<207.101 332.208>
VStem: 24 157<105.99 184.546> 356 147<126.497 220 309.19 385.161>
AnchorPoint: "Anchor-2" 520 0 basechar 0
AnchorPoint: "Anchor-1" 277 0 basechar 0
AnchorPoint: "Anchor-0" 285 496 basechar 0
LayerCount: 2
Fore
SplineSet
181 145 m 0xbc
 181 113.632751651 209.571558785 92 251 92 c 0
 322.516837822 92 356 128.990922026 356 208 c 2
 356 220 l 1
 226.161040081 208.495282032 181 189.140550569 181 145 c 0xbc
361 60 m 1
 326.300708057 11.6688433651 271.730874743 -12 195 -12 c 0xbc
 95.1136804201 -12 24 48.7169435166 24 134 c 0
 24 239.79869345 124.017204555 293.303337832 353 310 c 1
 353 382.879218788 332.360568654 407 270 407 c 0
 225.312690129 407 194.00588722 385.522077074 184 348 c 1
 56 394 l 1
 92.3193999286 466.638799859 177.172782964 510 283 510 c 0
 433.657175664 510 503 444.754706193 503 303 c 2
 503 194 l 2
 503 122.933873914 509.86473034 44.5951865021 520 0 c 1
 379 0 l 1x7c
 361 60 l 1
EndSplineSet
Substitution2: "Single Substitution lookup 12 subtable" ordfeminine
Substitution2: "'aalt' Access All Alternates lookup 0 subtable" ordfeminine
EndChar

StartChar: b
Encoding: 98 98 42
Width: 596
GlyphClass: 1
Flags: W
HStem: -12 118<263.801 365.392> 0 21G<50 188.672> 392 118<266.979 365.641> 648 20G<50 202>
VStem: 50 152<428 668> 50 145<155.581 342.129> 414 158<162.236 340.673>
AnchorPoint: "Anchor-1" 353 -12 basechar 0
AnchorPoint: "Anchor-0" 355 496 basechar 0
LayerCount: 2
Fore
SplineSet
305 392 m 0xb6
 235.442367646 392 195 339.42492206 195 249 c 0
 195 157.890710114 234.915930857 106 305 106 c 0
 369.242172367 106 414 165.950851692 414 252 c 0
 414 335.740378733 370.197866299 392 305 392 c 0xb6
572 252 m 0
 572 92.8226114562 485.044879133 -12 353 -12 c 0
 289.323980664 -12 230.109367325 18.9798308198 202 67 c 1xba
 183 0 l 1
 50 0 l 1x76
 50 668 l 1
 202 668 l 1
 202 428 l 1x7a
 230.733828234 477.086956566 291.341993582 510 353 510 c 0
 485.898799989 510 572 408.565709576 572 252 c 0
EndSplineSet
EndChar

StartChar: c
Encoding: 99 99 43
Width: 520
GlyphClass: 2
Flags: W
HStem: -12 118<225.729 353.509> 392 118<223.009 349.345>
VStem: 24 155<156.725 345.113>
AnchorPoint: "Anchor-1" 275 0 basechar 0
AnchorPoint: "Anchor-0" 280 496 basechar 0
LayerCount: 2
Fore
SplineSet
500 108 m 1
 457.227144398 31.0088599184 377.660753549 -12 278 -12 c 0
 120.185371274 -12 24 87.5935143508 24 251 c 0
 24 406.742547128 125.26406575 510 278 510 c 0
 383.12104769 510 462.642132157 463.849370622 502 380 c 1
 375 334 l 1
 360.58478173 372.440582053 330.908423465 392 287 392 c 0
 218.633014744 392 179 339.889925059 179 250 c 0
 179 159.452103897 219.089077922 106 287 106 c 0
 327.500858503 106 357.628786529 121.910254126 376 153 c 1
 500 108 l 1
EndSplineSet
EndChar

StartChar: d
Encoding: 100 100 44
Width: 596
GlyphClass: 2
Flags: W
HStem: -12 118<230.749 332.977> 0 21G<412.03 563> 392 118<230.499 328.005> 648 20G<394 546>
VStem: 24 158<162.131 340.77> 394 152<428 668> 401 145<155.771 341.938>
AnchorPoint: "Anchor-1" 243 -12 basechar 0
AnchorPoint: "Anchor-0" 240 496 basechar 0
LayerCount: 2
Fore
SplineSet
182 252 m 0xba
 182 165.465620512 226.802864769 106 292 106 c 0
 361.104551108 106 401 158.33990084 401 249 c 0
 401 338.972905407 360.58074608 392 292 392 c 0
 225.842322907 392 182 336.200679936 182 252 c 0xba
398 67 m 1
 361.185977135 15.9353876387 306.376039363 -12 243 -12 c 0
 110.955120867 -12 24 92.8226114563 24 252 c 0
 24 408.565709576 110.101200011 510 243 510 c 0
 305.253888942 510 364.98847894 477.561348478 394 428 c 1
 394 668 l 1
 546 668 l 1xbc
 546 194 l 2
 546 128.753236343 551.963234008 60.70221296 563 0 c 1
 418 0 l 1x7a
 398 67 l 1
EndSplineSet
EndChar

StartChar: e
Encoding: 101 101 45
Width: 566
GlyphClass: 2
Flags: W
HStem: -12 118<222.508 373.09> 210 90<177 403> 397 113<220.611 365.558>
VStem: 24 153<154.594 210 300 354.529> 403 141.688<300 353.444>
AnchorPoint: "Anchor-2" 404 10 basechar 0
AnchorPoint: "Anchor-1" 283 0 basechar 0
AnchorPoint: "Anchor-0" 284 496 basechar 0
LayerCount: 2
Fore
SplineSet
403 300 m 1
 401.769563492 359.060952368 359.137025432 397 294 397 c 0
 228.495263764 397 185.411065792 361.280622195 177 300 c 1
 403 300 l 1
513 99 m 1
 464.844734102 28.6192267661 385.435975469 -12 296 -12 c 0
 130.344509419 -12 24 90.8257572689 24 251 c 0
 24 400.475309689 136.484817076 510 290 510 c 0
 443.291639836 510 544.68835911 400.103046395 544.68835911 233.960745621 c 0
 544.68835911 226.064968408 544.458830163 218.075410866 544 210 c 1
 177 210 l 1
 181.808844911 147.485016161 227.681699319 106 292 106 c 0
 335.059316172 106 371.385650853 119.440743832 392 143 c 1
 513 99 l 1
EndSplineSet
EndChar

StartChar: f
Encoding: 102 102 46
Width: 367
GlyphClass: 1
Flags: W
HStem: 0 21G<87 239> 380 116<5 87 239 347> 608 120<246.523 347>
VStem: 87 152<0 380 496 601.885>
AnchorPoint: "Anchor-0" 80 668 basechar 0
LayerCount: 2
Fore
SplineSet
305 608 m 2
 250.933494915 608 239 599.863526194 239 563 c 2
 239 496 l 1
 347 496 l 1
 347 380 l 1
 239 380 l 1
 239 0 l 1
 87 0 l 1
 87 380 l 1
 5 380 l 1
 5 496 l 1
 87 496 l 1
 87 577 l 2
 87 688.775956471 136.614518636 728 278 728 c 2
 347 728 l 1
 347 608 l 1
 305 608 l 2
EndSplineSet
EndChar

StartChar: g
Encoding: 103 103 47
Width: 597
GlyphClass: 2
Flags: W
HStem: -203 116<219.028 364.84> 18 118<226.048 326.317> 392 119<226.04 324.193> 476 20G<409.118 546>
VStem: 24 158<184.365 345.912> 395 151<-55.7776 96 168.174 359.089>
AnchorPoint: "Anchor-1" 299 -251 basechar 0
AnchorPoint: "Anchor-0" 297 496 basechar 0
LayerCount: 2
Fore
SplineSet
292 392 m 0xec
 223.301758821 392 182 345.066183158 182 267 c 0
 182 186.621025682 224.506204771 136 292 136 c 0
 363.697131577 136 401 179.462975135 401 263 c 0
 401 347.237243885 363.177206073 392 292 392 c 0xec
546 37 m 2
 546 -121.157478422 459.724341837 -203 293 -203 c 0
 189.166072857 -203 112.215875072 -161.726712097 73 -85 c 1
 197 -40 l 1
 212.798971415 -70.4694448721 245.156653793 -87 289 -87 c 0
 358.049149612 -87 395 -54.2322647505 395 7 c 2
 395 96 l 1
 355.031640088 46.0395501097 298.593058457 18 238 18 c 0
 116.633722447 18 24 122.321154719 24 259 c 0
 24 408.530357756 108.984742972 511 233 511 c 0xec
 299.304222237 511 359.314262974 480.254114931 395 428 c 1
 415 496 l 1
 546 496 l 1xdc
 546 37 l 2
EndSplineSet
EndChar

StartChar: h
Encoding: 104 104 48
Width: 572
GlyphClass: 2
Flags: W
HStem: 0 21G<50 202 370 522> 392 118<266.449 413.944> 648 20G<50 202>
VStem: 50 152<0 356.18 430 668> 370 152<0 370.242>
AnchorPoint: "Anchor-1" 286 0 basechar 0
AnchorPoint: "Anchor-0" 126 668 basechar 0
LayerCount: 2
Fore
SplineSet
294 392 m 0
 231.61593783 392 202 347.898005623 202 255 c 2
 202 0 l 1
 50 0 l 1
 50 668 l 1
 202 668 l 1
 202 430 l 1
 231.558327712 478.684304471 291.44959541 510 355 510 c 0
 472.887114266 510 522 448.829459684 522 302 c 2
 522 0 l 1
 370 0 l 1
 370 264 l 2
 370 362.055306148 352.220338025 392 294 392 c 0
EndSplineSet
EndChar

StartChar: i
Encoding: 105 105 49
Width: 315
GlyphClass: 1
Flags: W
HStem: 0 21G<118 271> 380 116<24 118> 578 180<137.428 254.215>
VStem: 105 180<610.428 727.215> 118 153<0 380>
AnchorPoint: "Anchor-2" 271 0 basechar 0
LayerCount: 2
Fore
SplineSet
118 0 m 1xe8
 118 380 l 1
 24 380 l 1
 24 496 l 1
 271 496 l 1
 271 0 l 1
 118 0 l 1xe8
285 668 m 0xf0
 285 617.516193754 245.483806246 578 195 578 c 0
 145.16229186 578 105 618.16229186 105 668 c 0
 105 718.483806247 144.516193753 758 195 758 c 0
 246.124521771 758 285 719.124521771 285 668 c 0xf0
EndSplineSet
Substitution2: "Single Substitution lookup 4 subtable" dotlessi
Substitution2: "Single Substitution lookup 3 subtable" dotlessi
EndChar

StartChar: j
Encoding: 106 106 50
Width: 259
GlyphClass: 1
Flags: W
HStem: -161 120<-70 52.6553> 476 20G<55 207> 578 180<74.4285 189.572>
VStem: 42 180<609.048 727.215> 55 152<-32.8957 496>
LayerCount: 2
Fore
SplineSet
207 -24 m 2xe8
 207 -120.640699039 151.027246842 -161 17 -161 c 2
 -70 -161 l 1
 -70 -41 l 1
 -11 -41 l 2
 42.3599566998 -41 55 -33.5308835044 55 -2 c 2
 55 496 l 1
 207 496 l 1
 207 -24 l 2xe8
222 668 m 0xf0
 222 618.16229186 181.83770814 578 132 578 c 0
 82.1622918599 578 42 618.16229186 42 668 c 0
 42 718.483806246 81.5161937538 758 132 758 c 0
 182.483806246 758 222 718.483806246 222 668 c 0xf0
EndSplineSet
EndChar

StartChar: k
Encoding: 107 107 51
Width: 567
GlyphClass: 2
Flags: W
HStem: 0 21G<50 202 368.667 563> 476 20G<350.34 548> 648 20G<50 202>
VStem: 50 152<0 125 308 668> 368 180<316 496> 383 180<0 180>
DStem2: 354 289 254 180 0.586002 -0.810309<29.7235 251.173>
AnchorPoint: "Anchor-1" 284 0 basechar 0
AnchorPoint: "Anchor-0" 284 796 basechar 0
LayerCount: 2
Fore
SplineSet
50 0 m 1xf4
 50 668 l 1
 202 668 l 1
 202 308 l 1
 368 496 l 1
 548 496 l 1xf8
 354 289 l 1
 563 0 l 1
 383 0 l 1
 254 180 l 1
 202 125 l 1
 202 0 l 1
 50 0 l 1xf4
EndSplineSet
EndChar

StartChar: l
Encoding: 108 108 52
Width: 314
GlyphClass: 2
Flags: W
HStem: 0 124<208.013 311> 648 20G<50 202>
VStem: 50 152<134.889 668>
AnchorPoint: "Anchor-1" 167 0 basechar 0
AnchorPoint: "Anchor-0" 129 680 basechar 0
LayerCount: 2
Fore
SplineSet
202 180 m 2
 202 135.762906135 215.863425088 124 268 124 c 2
 311 124 l 1
 311 0 l 1
 214 0 l 2
 84.8056201499 0 50 29.7121147621 50 140 c 2
 50 668 l 1
 202 668 l 1
 202 180 l 2
EndSplineSet
EndChar

StartChar: m
Encoding: 109 109 53
Width: 886
GlyphClass: 2
Flags: W
HStem: 0 21G<50 202 366 519 684 836> 392 118<265.424 390.172 571.769 727.616> 476 20G<50 188.758>
VStem: 50 152<0 357.003> 366 153<0 359.42> 684 152<0 369.953>
AnchorPoint: "Anchor-1" 443 0 basechar 0
AnchorPoint: "Anchor-0" 451 496 basechar 0
LayerCount: 2
Fore
SplineSet
292 392 m 0xdc
 231.363915657 392 202 348.606657974 202 259 c 2
 202 0 l 1
 50 0 l 1
 50 496 l 1
 183 496 l 1xbc
 202 430 l 1
 231.433680569 478.47900329 290.535549401 510 352 510 c 0
 428.34420356 510 475.663416113 483.282349375 499 427 c 1
 536.718236476 480.325782605 597.496754032 510 669 510 c 0
 786.231770599 510 836 448.013223261 836 302 c 2
 836 0 l 1
 684 0 l 1
 684 264 l 2
 684 361.933179417 665.912928243 392 607 392 c 0
 547.076603059 392 519 350.523200026 519 262 c 2
 519 0 l 1
 366 0 l 1
 366 264 l 2
 366 363.356835191 349.440670345 392 292 392 c 0xdc
EndSplineSet
EndChar

StartChar: n
Encoding: 110 110 54
Width: 572
GlyphClass: 2
Flags: W
HStem: 0 21G<50 202 370 522> 392 118<266.449 413.944> 476 20G<50 188.758>
VStem: 50 152<0 356.18> 370 152<0 370.242>
AnchorPoint: "Anchor-1" 286 0 basechar 0
AnchorPoint: "Anchor-0" 305 496 basechar 0
LayerCount: 2
Fore
SplineSet
294 392 m 0xd8
 231.61593783 392 202 347.898005623 202 255 c 2
 202 0 l 1
 50 0 l 1
 50 496 l 1
 183 496 l 1xb8
 202 430 l 1
 231.558327712 478.684304471 291.44959541 510 355 510 c 0
 472.887114266 510 522 448.829459684 522 302 c 2
 522 0 l 1
 370 0 l 1
 370 264 l 2
 370 362.055306148 352.220338025 392 294 392 c 0xd8
EndSplineSet
EndChar

StartChar: o
Encoding: 111 111 55
Width: 573
GlyphClass: 2
Flags: W
HStem: -12 118<222.501 351.067> 392 118<222.226 351.213>
VStem: 24 155<153.303 346.001> 394 155<153.316 345.827>
AnchorPoint: "Anchor-2" 516 10 basechar 0
AnchorPoint: "Anchor-1" 287 0 basechar 0
AnchorPoint: "Anchor-0" 287 496 basechar 0
LayerCount: 2
Fore
SplineSet
287 106 m 0
 356.702034742 106 394 156.195392497 394 250 c 0
 394 342.392551475 356.619739492 392 287 392 c 0
 216.392911077 392 179 342.835246546 179 250 c 0
 179 156.529632133 216.897224099 106 287 106 c 0
549 250 m 0
 549 90.9283034608 446.071696539 -12 287 -12 c 0
 126.906439512 -12 24 90.5151602745 24 250 c 0
 24 409.310850674 125.850947203 510 287 510 c 0
 447.125555842 510 549 408.903223355 549 250 c 0
EndSplineSet
Substitution2: "Single Substitution lookup 12 subtable" ordmasculine
Substitution2: "'aalt' Access All Alternates lookup 0 subtable" ordmasculine
EndChar

StartChar: p
Encoding: 112 112 56
Width: 596
GlyphClass: 1
Flags: W
HStem: -161 21G<50 202> -12 118<267.716 365.767> 392 118<267.152 365.378> 476 20G<50 187.882>
VStem: 50 152<-161 71> 50 145<156.072 344.508> 414 158<158.161 336.759>
AnchorPoint: "Anchor-0" 348 496 basechar 0
LayerCount: 2
Fore
SplineSet
414 248 m 0xe6
 414 332.833868314 369.214525321 392 305 392 c 0
 265.695472967 392 195 374.793367853 195 251 c 0
 195 214.59788733 203.505631471 106 305 106 c 0
 370.728410619 106 414 162.372162313 414 248 c 0xe6
353 -12 m 0
 291.977346987 -12 230.949065207 21.5453469388 202 71 c 1
 202 -161 l 1
 50 -161 l 1xea
 50 496 l 1xd6
 182 496 l 1
 202 428 l 1xda
 230.733828234 477.086956566 291.341993582 510 353 510 c 0
 484.861151967 510 572 405.751697787 572 248 c 0
 572 90.0078667459 486.077989164 -12 353 -12 c 0
EndSplineSet
EndChar

StartChar: q
Encoding: 113 113 57
Width: 601
GlyphClass: 1
Flags: W
HStem: -172 138<556.158 672.552> -12 118<230.373 327.574> 392 118<230.763 328.209> 476 20G<408.118 546>
VStem: 24 158<158.063 336.862> 394 152<-24.6808 70> 401 145<157.07 345.782>
LayerCount: 2
Fore
SplineSet
292 392 m 0xea
 226.830652211 392 182 333.312600742 182 248 c 0
 182 161.908100293 225.309091776 106 292 106 c 0
 360.033618071 106 401 160.496563117 401 251 c 0
 401 341.134914565 361.678763741 392 292 392 c 0xea
674 -155 m 1
 639.580254985 -165.756170316 598.811719992 -172 563 -172 c 0
 451.564537631 -172 394 -116.81979233 394 -10 c 2
 394 70 l 1
 364.529550893 20.882584821 303.977473966 -12 243 -12 c 0
 109.922010836 -12 24 90.007866746 24 248 c 0
 24 405.751697787 111.138848033 510 243 510 c 0
 305.253888942 510 364.98847894 477.561348478 394 428 c 1xec
 414 496 l 1
 546 496 l 1xda
 546 38 l 2xdc
 546 -17.3270246822 559.431007895 -34 604 -34 c 0
 623.333333333 -34 646.666666668 -30.6666666664 674 -24 c 1
 674 -155 l 1
EndSplineSet
EndChar

StartChar: r
Encoding: 114 114 58
Width: 372
GlyphClass: 2
Flags: W
HStem: 0 21G<50 202> 361 149.355<260.485 357> 476 20G<50 175.934>
VStem: 50 152<0 326.305>
AnchorPoint: "Anchor-1" 128 0 basechar 0
AnchorPoint: "Anchor-0" 221 496 basechar 0
LayerCount: 2
Fore
SplineSet
316 361 m 0xd0
 238.947179672 361 202 325.02511453 202 250 c 2
 202 0 l 1
 50 0 l 1
 50 496 l 1
 170 496 l 1xb0
 197 405 l 1
 224.514139058 476.776014936 271.30131915 510.3552121 343.795447732 510.3552121 c 0
 348.099486907 510.3552121 352.500272891 510.236827743 357 510 c 1
 357 358 l 1
 343.251526572 360.291412238 333.567493825 361 316 361 c 0xd0
EndSplineSet
EndChar

StartChar: s
Encoding: 115 115 59
Width: 534
GlyphClass: 2
Flags: W
HStem: -12 111<184.122 348.105> 399 111<186.326 337.565>
VStem: 33 145<331.058 388.282> 361 146<114.453 173.402>
DStem2: 239 319 195 205 0.983353 -0.181706<-64.616 148.539>
AnchorPoint: "Anchor-1" 267 0 basechar 0
AnchorPoint: "Anchor-0" 268 496 basechar 0
LayerCount: 2
Fore
SplineSet
507 162 m 0
 507 55.1722514502 413.190476423 -12 264 -12 c 0
 145.348236419 -12 58.9910220931 32.7778148356 21 114 c 1
 150 161 l 1
 164.022425535 121.482255308 206.448617004 99 267 99 c 0
 323.565183033 99 361 117.31916575 361 145 c 0
 361 167.708306602 337.85902805 181.232251248 284 190 c 2
 195 205 l 2
 91.235336188 222.294110635 33 275.496763449 33 353 c 0
 33 447.744209636 123.409682822 510 261 510 c 0
 369.040069062 510 447.38753407 470.826267496 481 400 c 1
 353 353 l 1
 344.932116854 384.11897785 314.846572073 399 260 399 c 0
 205.333333333 399 178 385.666666667 178 359 c 0
 178 338.649423302 196.059003257 326.807453953 239 319 c 2
 331 302 l 2
 457.375415824 279.533259409 507 240.05915836 507 162 c 0
EndSplineSet
EndChar

StartChar: t
Encoding: 116 116 60
Width: 379
GlyphClass: 2
Flags: W
HStem: 0 124<253.013 355> 380 116<13 95 247 355>
VStem: 95 152<130.035 380 496 620>
AnchorPoint: "Anchor-1" 239 0 basechar 0
AnchorPoint: "Anchor-0" 170 620 basechar 0
LayerCount: 2
Fore
SplineSet
247 180 m 2
 247 135.68677862 260.356318423 124 311 124 c 2
 355 124 l 1
 355 0 l 1
 259 0 l 2
 129.80562015 0 95 29.7121147621 95 140 c 2
 95 380 l 1
 13 380 l 1
 13 496 l 1
 95 496 l 1
 95 620 l 1
 247 620 l 1
 247 496 l 1
 355 496 l 1
 355 380 l 1
 247 380 l 1
 247 180 l 2
EndSplineSet
EndChar

StartChar: u
Encoding: 117 117 61
Width: 570
GlyphClass: 2
Flags: W
HStem: -12 118<161.446 310.477> 0 21G<381 519> 476 20G<50 202 366 519>
VStem: 50 152<129.235 496> 366 153<134.573 496>
AnchorPoint: "Anchor-2" 519 0 basechar 0
AnchorPoint: "Anchor-1" 285 0 basechar 0
AnchorPoint: "Anchor-0" 285 496 basechar 0
LayerCount: 2
Fore
SplineSet
366 70 m 1x78
 331.763136898 12.419821146 288.879548544 -12 222 -12 c 0
 100.892184533 -12 50 50.1358066974 50 198 c 2
 50 496 l 1
 202 496 l 1
 202 219 l 2
 202 137.935327949 224.043854691 106 280 106 c 0xb8
 340.442341764 106 366 144.336487354 366 235 c 2
 366 496 l 1
 519 496 l 1
 519 0 l 1
 387 0 l 1
 366 70 l 1x78
EndSplineSet
EndChar

StartChar: v
Encoding: 118 118 62
Width: 526
GlyphClass: 1
Flags: W
HStem: 0 158<177 348> 476 20G<0 163.272 362.728 526>
VStem: 0 157<339 496> 369 157<339 496>
LayerCount: 2
Fore
SplineSet
177 0 m 1
 0 496 l 1
 157 496 l 1
 263 158 l 1
 369 496 l 1
 526 496 l 1
 348 0 l 1
 177 0 l 1
EndSplineSet
EndChar

StartChar: w
Encoding: 119 119 63
Width: 723
GlyphClass: 1
Flags: W
HStem: 0 21G<119 293.989 428.955 604> 476 20G<0 154.464 285.19 436.81 567.536 723>
VStem: 0 150<346 496> 572 151<345 496>
DStem2: 150 496 0 496 0.242536 -0.970143<0 344.158> 225 160 290 0 0.195586 0.980686<0 218.814> 433 496 361 356 0.198234 -0.980155<122.949 342.019> 497 160 599 0 0.242536 0.970143<0 344.158>
LayerCount: 2
Fore
SplineSet
124 0 m 1
 0 496 l 1
 150 496 l 1
 225 160 l 1
 289 496 l 1
 433 496 l 1
 497 160 l 1
 572 496 l 1
 723 496 l 1
 599 0 l 1
 433 0 l 1
 361 356 l 1
 290 0 l 1
 124 0 l 1
EndSplineSet
EndChar

StartChar: x
Encoding: 120 120 64
Width: 533
GlyphClass: 1
Flags: W
HStem: 0 21G<0 180.126 353.014 533> 476 20G<15 195.215 337.95 518>
VStem: 0 166<0 166> 367 166<0 166>
DStem2: 0 0 166 0 0.578747 0.815507<96.072 271.143 460.341 608.21> 181 496 15 496 0.578747 -0.815507<0 148.449 337.646 512.138>
LayerCount: 2
Fore
SplineSet
0 0 m 1
 184 259 l 1
 15 496 l 1
 181 496 l 1
 267 375 l 1
 352 496 l 1
 518 496 l 1
 349 259 l 1
 533 0 l 1
 367 0 l 1
 267 143 l 1
 166 0 l 1
 0 0 l 1
EndSplineSet
EndChar

StartChar: y
Encoding: 121 121 65
Width: 518
GlyphClass: 2
Flags: W
HStem: -161 110<65 175.458> 476 20G<0 169.258 348.871 518>
DStem2: 190 3 328 0 0.357717 0.93383<-59.0494 0 195.931 384.733>
AnchorPoint: "Anchor-1" 259 0 basechar 0
AnchorPoint: "Anchor-0" 260 496 basechar 0
LayerCount: 2
Fore
SplineSet
65 -161 m 1
 65 -51 l 1
 95 -51 l 2
 163.447276573 -51 174.781665734 -44.5572945822 190 3 c 1
 0 496 l 1
 163 496 l 1
 260 186 l 1
 355 496 l 1
 518 496 l 1
 328 0 l 2
 278.264044048 -130.556884373 237.799281662 -161 114 -161 c 2
 65 -161 l 1
EndSplineSet
EndChar

StartChar: z
Encoding: 122 122 66
Width: 516
GlyphClass: 2
Flags: W
HStem: 0 121<226 496> 375 121<44 287>
DStem2: 30 121 226 121 0.711246 0.702943<139.404 361.338>
AnchorPoint: "Anchor-1" 258 0 basechar 0
AnchorPoint: "Anchor-0" 268 496 basechar 0
LayerCount: 2
Fore
SplineSet
30 0 m 1
 30 121 l 1
 287 375 l 1
 44 375 l 1
 44 496 l 1
 482 496 l 1
 482 375 l 1
 226 121 l 1
 496 121 l 1
 496 0 l 1
 30 0 l 1
EndSplineSet
EndChar

StartChar: circumflex
Encoding: 258 710 67
Width: 467
GlyphClass: 1
Flags: W
HStem: 635 91<188.5 279.5>
LayerCount: 2
Fore
SplineSet
37 574 m 1
 184 706 l 2
 198.666666668 719.333333334 215.333333333 726 234 726 c 0
 251.732869829 726 269.813704135 718.767666278 284 706 c 2
 430 574 l 1
 302 574 l 1
 234 635 l 1
 166 574 l 1
 37 574 l 1
EndSplineSet
EndChar

StartChar: caron
Encoding: 259 711 68
Width: 467
GlyphClass: 1
Flags: W
HStem: 568 91<188.5 279.5>
LayerCount: 2
Fore
SplineSet
234 568 m 0
 214.666666666 568 198 574.333333333 184 587 c 2
 37 720 l 1
 166 720 l 1
 234 659 l 1
 302 720 l 1
 430 720 l 1
 284 587 l 2
 269.333333333 574.333333333 252.666666667 568 234 568 c 0
EndSplineSet
EndChar

StartChar: breve
Encoding: 260 728 69
Width: 373
GlyphClass: 1
Flags: W
HStem: 569 77<154.585 247.629>
VStem: 57 85<658.383 689>
LayerCount: 2
Fore
SplineSet
344 689 m 1
 331.695343556 619.273613482 271.367007377 569 200 569 c 0
 129.575661045 569 69.241797211 619.629815805 57 689 c 1
 142 689 l 1
 148.078149258 664.687402968 173.284413726 646 200 646 c 0
 227.645314609 646 252.840681201 664.362724804 259 689 c 1
 344 689 l 1
EndSplineSet
EndChar

StartChar: dotaccent
Encoding: 261 729 70
Width: 201
GlyphClass: 1
Flags: W
HStem: 578 141<50.8477 150.643>
VStem: 30 141<598.357 698.152>
LayerCount: 2
Fore
SplineSet
171 648 m 0
 171 608.951033235 140.048966765 578 101 578 c 0
 61.6595931387 578 30 609.213683376 30 648 c 0
 30 687.072841291 61.9271587092 719 101 719 c 0
 139.786316624 719 171 687.340406861 171 648 c 0
EndSplineSet
EndChar

StartChar: ring
Encoding: 262 730 71
Width: 295
GlyphClass: 1
Flags: W
HStem: 535 86<107.699 186.613> 715 85<107.587 186.723>
VStem: 15 85<628.55 707.413> 194 86<628.387 707.574>
LayerCount: 2
Fore
SplineSet
100 668 m 0
 100 642.389407887 121.389407887 621 147 621 c 0
 173.259482008 621 194 641.740517992 194 668 c 0
 194 694.898087459 173.898087459 715 147 715 c 0
 120.740517992 715 100 694.259482008 100 668 c 0
280 668 m 0
 280 594.533979685 220.466020315 535 147 535 c 0
 74.5274573459 535 15 594.978422932 15 668 c 0
 15 740.638213498 74.3617865021 800 147 800 c 0
 220.631679565 800 280 741.078057914 280 668 c 0
EndSplineSet
EndChar

StartChar: ogonek
Encoding: 263 731 72
Width: 295
GlyphClass: 1
Flags: W
HStem: -174 76<165.661 257.315>
VStem: 37 126<-94.7475 -39.3355>
LayerCount: 2
Fore
SplineSet
258 -164 m 1
 243.715022447 -169.194537292 205.751867054 -174 179 -174 c 0
 93.2748190519 -174 37 -138.729162707 37 -85 c 0
 37 -46.4075194921 65.690799554 -15.923544966 117 0 c 1
 258 0 l 1
 174.855143443 -41.5724282788 163 -50.0582151642 163 -68 c 0
 163 -87.4065758164 179.243250415 -98 209 -98 c 0
 231.623357382 -98 243.389120897 -91.4351465171 258 -89 c 1
 258 -164 l 1
EndSplineSet
EndChar

StartChar: quoteleft
Encoding: 264 8216 73
Width: 277
GlyphClass: 1
Flags: W
HStem: 339 329<124 160.918>
VStem: 41 195<376.593 496.5>
DStem2: 48 472 161 531 0.361528 0.932361<95.862 210.219>
LayerCount: 2
Fore
SplineSet
236 437 m 0
 236 382.838557533 192.608774686 339 139 339 c 0
 85.1048126482 339 41 383.104812648 41 437 c 0
 41 447.730733015 43.4011144222 459.736305126 48 472 c 2
 124 668 l 1
 214 668 l 1
 161 531 l 1
 205.212006936 521.328623483 236 482.741005509 236 437 c 0
EndSplineSet
EndChar

StartChar: quoteright
Encoding: 265 8217 74
Width: 277
GlyphClass: 1
Flags: W
HStem: 351 329<116.738 153>
VStem: 41 195<522.5 642.681>
DStem2: 63 351 153 351 0.365652 0.930751<32.9087 145.962>
LayerCount: 2
Fore
SplineSet
139 680 m 0
 193.246706682 680 236 636.805951081 236 582 c 0
 236 570 234 558.333333333 230 547 c 2
 153 351 l 1
 63 351 l 1
 116 487 l 1
 72.038965917 497.99025853 41 537.306282025 41 582 c 0
 41 636.541721895 84.458278105 680 139 680 c 0
EndSplineSet
EndChar

StartChar: quotesinglbase
Encoding: 266 8218 75
Width: 277
GlyphClass: 1
Flags: W
HStem: -146 330<116.738 153>
VStem: 41 195<26.375 146.681>
DStem2: 63 -146 153 -146 0.364043 0.931382<32.7639 146.894>
LayerCount: 2
Fore
SplineSet
139 184 m 0
 193.246706682 184 236 140.805951081 236 86 c 0
 236 74 234 62.3333333333 230 51 c 2
 153 -146 l 1
 63 -146 l 1
 116 -9 l 1
 72.0389659327 1.99025851273 41 41.3062820274 41 86 c 0
 41 140.541721895 84.458278105 184 139 184 c 0
EndSplineSet
EndChar

StartChar: quotedblleft
Encoding: 267 8220 76
Width: 498
GlyphClass: 1
Flags: W
HStem: 339 329<124 160.918 345 379.746>
VStem: 41 195<376.593 497.526> 263 194<376.48 496.5>
DStem2: 51 480 161 531 0.361968 0.932191<87.3582 201.675> 270 472 382 531 0.357382 0.933958<95.1303 209.859>
LayerCount: 2
Fore
SplineSet
457 437 m 0
 457 382.184110422 414.256543766 339 360 339 c 0
 306.391225314 339 263 382.838557533 263 437 c 0
 263 447.730733016 265.401114422 459.736305127 270 472 c 2
 345 668 l 1
 436 668 l 1
 382 531 l 1
 426.212006936 521.328623483 457 482.741005509 457 437 c 0
236 437 m 0
 236 382.838557533 192.608774686 339 139 339 c 0
 85.1048126482 339 41 383.104812648 41 437 c 0
 41 446.653066886 43.5745639337 457.723691801 51 480 c 1
 124 668 l 1
 214 668 l 1
 161 531 l 1
 205.212006936 521.328623483 236 482.741005509 236 437 c 0
EndSplineSet
EndChar

StartChar: quotedblright
Encoding: 268 8221 77
Width: 498
GlyphClass: 1
Flags: W
HStem: 351 329<116.738 153 337.738 374>
VStem: 41 195<522.5 642.681> 262 195<522.5 642.681>
DStem2: 63 351 153 351 0.365652 0.930751<32.9087 145.962> 284 351 374 351 0.365652 0.930751<32.9087 145.962>
LayerCount: 2
Fore
SplineSet
360 680 m 0
 414.246706682 680 457 636.805951081 457 582 c 0
 457 570 455 558.333333333 451 547 c 2
 374 351 l 1
 284 351 l 1
 337 487 l 1
 293.038965917 497.99025853 262 537.306282025 262 582 c 0
 262 636.541721895 305.458278105 680 360 680 c 0
139 680 m 0
 193.246706682 680 236 636.805951081 236 582 c 0
 236 570 234 558.333333333 230 547 c 2
 153 351 l 1
 63 351 l 1
 116 487 l 1
 72.038965917 497.99025853 41 537.306282025 41 582 c 0
 41 636.541721895 84.458278105 680 139 680 c 0
EndSplineSet
EndChar

StartChar: quotedblbase
Encoding: 269 8222 78
Width: 498
GlyphClass: 1
Flags: W
HStem: -146 330<116.738 153 340.257 374>
VStem: 41 195<26.375 146.681> 263 194<26.375 147.067>
DStem2: 63 -146 153 -146 0.364043 0.931382<32.7639 146.894> 285 -146 374 -146 0.364043 0.931382<32.3998 146.894>
LayerCount: 2
Fore
SplineSet
360 184 m 0
 414.889540456 184 457 141.455412007 457 86 c 0
 457 74 455 62.3333333333 451 51 c 2
 374 -146 l 1
 285 -146 l 1
 338 -9 l 1
 294.038965933 1.99025851278 263 41.3062820276 263 86 c 0
 263 140.805951081 305.753293318 184 360 184 c 0
139 184 m 0
 193.246706682 184 236 140.805951081 236 86 c 0
 236 74 234 62.3333333333 230 51 c 2
 153 -146 l 1
 63 -146 l 1
 116 -9 l 1
 72.0389659327 1.99025851273 41 41.3062820274 41 86 c 0
 41 140.541721895 84.458278105 184 139 184 c 0
EndSplineSet
EndChar

StartChar: dagger
Encoding: 270 8224 79
Width: 594
GlyphClass: 1
Flags: W
HStem: 0 21G<225 369> 380 116<41 225 369 553> 648 20G<225 369>
VStem: 225 144<0 380 496 668>
LayerCount: 2
Fore
SplineSet
225 0 m 1
 225 380 l 1
 41 380 l 1
 41 496 l 1
 225 496 l 1
 225 668 l 1
 369 668 l 1
 369 496 l 1
 553 496 l 1
 553 380 l 1
 369 380 l 1
 369 0 l 1
 225 0 l 1
EndSplineSet
EndChar

StartChar: daggerdbl
Encoding: 271 8225 80
Width: 594
GlyphClass: 1
Flags: W
HStem: 0 21G<225 369> 173 115<41 225 369 553> 380 116<41 225 369 553> 648 20G<225 369>
VStem: 225 144<0 173 288 380 496 668>
LayerCount: 2
Fore
SplineSet
225 0 m 1
 225 173 l 1
 41 173 l 1
 41 288 l 1
 225 288 l 1
 225 380 l 1
 41 380 l 1
 41 496 l 1
 225 496 l 1
 225 668 l 1
 369 668 l 1
 369 496 l 1
 553 496 l 1
 553 380 l 1
 369 380 l 1
 369 288 l 1
 553 288 l 1
 553 173 l 1
 369 173 l 1
 369 0 l 1
 225 0 l 1
EndSplineSet
EndChar

StartChar: bullet
Encoding: 272 8226 81
Width: 438
GlyphClass: 1
Flags: W
HStem: 88 332<139.932 298.068>
VStem: 53 332<174.932 336.705>
LayerCount: 2
Fore
SplineSet
385 254 m 0
 385 162.450618631 310.549381369 88 219 88 c 0
 127.450618631 88 53 162.450618631 53 254 c 0
 53 345.852822905 127.147177095 420 219 420 c 0
 310.852822905 420 385 345.852822905 385 254 c 0
EndSplineSet
EndChar

StartChar: ellipsis
Encoding: 273 8230 82
Width: 803
GlyphClass: 1
Flags: W
HStem: -12 196<78.5928 198.902 341.602 461.681 604.593 725.176>
VStem: 41 195<25.5928 146.681> 305 194<25.365 146.952> 567 195<25.5928 146.681>
LayerCount: 2
Fore
SplineSet
499 86 m 0
 499 31.458278105 455.541721895 -12 401 -12 c 0
 347.677131997 -12 305 31.5662389134 305 86 c 0
 305 141.076196054 347.047807947 184 401 184 c 0
 456.183334319 184 499 141.183334319 499 86 c 0
236 86 m 0
 236 31.8385575336 192.608774686 -12 139 -12 c 0
 85.1048126482 -12 41 32.1048126482 41 86 c 0
 41 140.541721895 84.458278105 184 139 184 c 0
 193.246706682 184 236 140.805951081 236 86 c 0
762 86 m 0
 762 31.1841104212 719.256543767 -12 665 -12 c 0
 611.104812648 -12 567 32.1048126479 567 86 c 0
 567 140.541721895 610.458278105 184 665 184 c 0
 719.889540456 184 762 141.455412007 762 86 c 0
EndSplineSet
EndChar

StartChar: perthousand
Encoding: 274 8240 83
Width: 1406
GlyphClass: 1
Flags: W
HStem: -12 119<701.783 810.271 1130.66 1238.98> 0 21G<192 332.012> 264 118<701.708 810.346 1130.58 1239.05> 286 118<166.959 275.46> 561 119<166.978 275.441> 648 20G<645.018 786>
VStem: 24 119<428.613 537.022> 192 126<0 126> 300 118<428.54 537.095> 559 118<131.647 237.466> 659 127<541 668> 835 118<131.592 237.517> 988 118<131.523 239.933> 1263 119<131.542 239.914>
DStem2: 192 0 318 0 0.573791 0.819001<72.2977 815.054>
LayerCount: 2
Fore
SplineSet
1106 186 m 0xa21c
 1106 141.581101719 1140.58110172 107 1185 107 c 0
 1228.48273457 107 1263 141.959794475 1263 186 c 0
 1263 229.106736742 1228.10673674 264 1185 264 c 0
 1140.95979448 264 1106 229.482734565 1106 186 c 0xa21c
677 186 m 0xa25c
 677 142.222492434 712.222492434 107 756 107 c 0
 799.777507566 107 835 142.222492434 835 186 c 0
 835 228.845909923 799.39521646 264 756 264 c 0
 712.60478354 264 677 228.845909922 677 186 c 0xa25c
1382 186 m 0
 1382 76.5110623194 1293.93596325 -12 1185 -12 c 0
 1076.36927167 -12 988 76.8178466508 988 186 c 0
 988 294.918772456 1075.52551952 382 1185 382 c 0
 1294.77785318 382 1382 295.220605197 1382 186 c 0
953 186 m 0
 953 76.5110623214 864.935963246 -12 756 -12 c 0
 647.369271667 -12 559 76.8178466503 559 186 c 0
 559 294.918772457 646.525519521 382 756 382 c 0
 865.777853182 382 953 295.220605197 953 186 c 0
143 483 m 0
 143 438.959794479 177.517265435 404 221 404 c 0
 265.418898285 404 300 438.581101715 300 483 c 0
 300 526.482734564 265.04020552 561 221 561 c 0x1a9c
 177.893263257 561 143 526.106736743 143 483 c 0
192 0 m 1x473c
 659 668 l 1
 786 668 l 1
 318 0 l 1
 192 0 l 1x473c
418 483 m 0x1a9c
 418 373.691158197 330.308841803 286 221 286 c 0
 111.691158197 286 24 373.691158197 24 483 c 0
 24 592.611474681 111.388525319 680 221 680 c 0
 330.61147468 680 418 592.61147468 418 483 c 0x1a9c
EndSplineSet
EndChar

StartChar: guilsinglleft
Encoding: 275 8249 84
Width: 404
GlyphClass: 1
Flags: W
VStem: 189 174<40 214 287 461>
LayerCount: 2
Fore
SplineSet
189 40 m 1
 41 250 l 1
 189 461 l 1
 362 461 l 1
 214 250 l 1
 363 40 l 1
 189 40 l 1
EndSplineSet
EndChar

StartChar: guilsinglright
Encoding: 276 8250 85
Width: 404
GlyphClass: 1
Flags: W
VStem: 41 175<40 215 285 460>
LayerCount: 2
Fore
SplineSet
41 40 m 1
 191 249 l 1
 42 460 l 1
 216 460 l 1
 363 249 l 1
 216 40 l 1
 41 40 l 1
EndSplineSet
EndChar

StartChar: fraction
Encoding: 277 8260 86
Width: 624
GlyphClass: 1
Flags: W
HStem: 0 21G<15 155.982> 648 20G<468.988 609>
VStem: 15 127<0 127> 483 126<542 668>
DStem2: 15 0 142 0 0.573791 0.819001<72.8715 815.627>
LayerCount: 2
Fore
SplineSet
15 0 m 1
 483 668 l 1
 609 668 l 1
 142 0 l 1
 15 0 l 1
EndSplineSet
EndChar

StartChar: ordfeminine
Encoding: 170 170 87
Width: 395
GlyphClass: 1
Flags: W
HStem: 395 72<127.038 233.438> 523 61<158.972 238> 623 68<134.35 235.219>
VStem: 53 104<469.411 518.313> 240 97<474.49 526 588 620.006>
LayerCount: 2
Fore
SplineSet
157 495 m 0
 157 477.873532322 169.815234522 467 190 467 c 0
 220.088869716 467 240 483.725349438 240 509 c 2
 240 526 l 1
 203 523 l 2
 171.161880016 520.641620741 157 512.021345949 157 495 c 0
249 435 m 1
 233.608637125 408.834683112 202.826467201 395 160 395 c 0
 96.4862258372 395 53 434.015679256 53 491 c 0
 53 548.824315831 87.5712326562 570.258480078 203 584 c 2
 238 588 l 1
 238 614.486751698 228.270573369 623 198 623 c 0
 175.845790247 623 162.365196419 614.704249952 159 599 c 1
 72 630 l 1
 91.4522009855 670.20121537 138.505189165 691 210 691 c 0
 298.167221021 691 338.288361046 655.301662812 337 578 c 1
 337 518 l 2
 337 456.898091401 337.993317469 434.051789619 342 403 c 1
 258 403 l 1
 249 435 l 1
EndSplineSet
EndChar

StartChar: guillemotleft
Encoding: 171 171 88
Width: 669
GlyphClass: 1
Flags: W
VStem: 201 174<40 214 287 461> 440 176<40 216 285 461>
LayerCount: 2
Fore
SplineSet
201 40 m 1
 53 251 l 1
 201 461 l 1
 374 461 l 1
 226 251 l 1
 375 40 l 1
 201 40 l 1
440 40 m 1
 294 251 l 1
 440 461 l 1
 615 461 l 1
 466 251 l 1
 616 40 l 1
 440 40 l 1
EndSplineSet
EndChar

StartChar: logicalnot
Encoding: 172 172 89
Width: 618
GlyphClass: 1
Flags: W
HStem: 295 127<53 437>
VStem: 437 128<56 295>
LayerCount: 2
Fore
SplineSet
437 56 m 1
 437 295 l 1
 53 295 l 1
 53 422 l 1
 565 422 l 1
 565 56 l 1
 437 56 l 1
EndSplineSet
EndChar

StartChar: registered
Encoding: 174 174 90
Width: 798
GlyphClass: 1
Flags: W
HStem: -12 69<293.269 503.679> 300 75<338 370> 453 76<338 450.262> 610 69<293.416 503.531>
VStem: 53 70<228.732 438.778> 241 97<161 300 375 453> 458 101<381.877 446.068> 471 108<161 269> 675 70<228.47 439.039>
DStem2: 472 310 370 300 0.583299 -0.812258<0 120.443>
LayerCount: 2
Fore
SplineSet
458 414 m 0xfe80
 458 441.3125204 437.621830441 453 390 453 c 2
 338 453 l 1
 338 375 l 1
 390 375 l 2
 437.621830441 375 458 386.6874796 458 414 c 0xfe80
559 415 m 0
 559 360.954342175 529.638509194 325.518060168 472 310 c 1
 579 161 l 1
 471 161 l 1xfd80
 370 300 l 1
 338 300 l 1
 338 161 l 1
 241 161 l 1
 241 529 l 1
 392 529 l 2
 507.395422049 529 559 493.772922836 559 415 c 0
123 334 m 0
 123 181.117227632 246.221074364 57 398 57 c 0
 551.460918816 57 675 180.539081184 675 334 c 0
 675 486.619818366 551.172788722 610 398 610 c 0
 246.507304398 610 123 486.043578131 123 334 c 0
745 334 m 0
 745 142.513983979 590.039443813 -12 398 -12 c 0
 207.816416201 -12 53 143.265159436 53 334 c 0
 53 523.719523112 208.280476888 679 398 679 c 0
 589.574002213 679 745 524.469829289 745 334 c 0
EndSplineSet
EndChar

StartChar: macron
Encoding: 175 175 91
Width: 405
GlyphClass: 1
Flags: W
HStem: 570 98<53 352>
VStem: 53 299<570 668>
LayerCount: 2
Fore
SplineSet
53 570 m 1
 53 668 l 1
 352 668 l 1
 352 570 l 1
 53 570 l 1
EndSplineSet
EndChar

StartChar: degree
Encoding: 176 176 92
Width: 404
GlyphClass: 1
Flags: W
HStem: 354 90<150.207 254.131> 590 89<150.234 254.104>
VStem: 40 89<465.047 568.766> 275 89<464.708 569.104>
LayerCount: 2
Fore
SplineSet
129 517 m 0
 129 476.590403604 161.590403604 444 202 444 c 0
 243.056099642 444 275 475.943900358 275 517 c 0
 275 558.056099643 243.056099643 590 202 590 c 0
 161.590403604 590 129 557.409596396 129 517 c 0
364 517 m 0
 364 425.917977397 292.523237188 354 202 354 c 0
 112.598573733 354 40 427.046713077 40 517 c 0
 40 606.263978052 112.736021948 679 202 679 c 0
 292.384931993 679 364 607.384931993 364 517 c 0
EndSplineSet
EndChar

StartChar: plusminus
Encoding: 177 177 93
Width: 618
GlyphClass: 1
Flags: W
HStem: 0 128<53 565> 283 108<53 245 373 565> 475 20G<245 373>
VStem: 245 128<180 283 391 495>
LayerCount: 2
Fore
SplineSet
53 0 m 1
 53 128 l 1
 565 128 l 1
 565 0 l 1
 53 0 l 1
245 180 m 1
 245 283 l 1
 53 283 l 1
 53 391 l 1
 245 391 l 1
 245 495 l 1
 373 495 l 1
 373 391 l 1
 565 391 l 1
 565 283 l 1
 373 283 l 1
 373 180 l 1
 245 180 l 1
EndSplineSet
EndChar

StartChar: uni00B2
Encoding: 178 178 94
Width: 407
GlyphClass: 1
Flags: W
HStem: 403 87<195 353> 709 76<163.758 248.384>
VStem: 251 102<622.857 704.619>
LayerCount: 2
Fore
SplineSet
354 677 m 0
 354 615.436804946 316.93925 571.849633562 195 490 c 1
 353 490 l 1
 353 403 l 1
 53 403 l 1
 53 484 l 1
 210.112353256 591.497925913 251 630.527043259 251 673 c 0
 251 695.202269595 234.519377572 709 208 709 c 0
 180.260231526 709 160.714060093 693.141785441 155 666 c 1
 64 699 l 1
 85.2284007914 754.724552077 137.682374518 785 213 785 c 0
 302.290469974 785 354 745.392700405 354 677 c 0
EndSplineSet
EndChar

StartChar: uni00B3
Encoding: 179 179 95
Width: 413
GlyphClass: 1
Flags: W
HStem: 395 77<154.531 249.343> 491 20G<88.8485 148.509> 552 84<167 242.628> 675 21G<93.0606 150.736> 709 76<131.995 244.193>
VStem: 247 103<643.067 703.769> 255 105<478.705 543.942>
LayerCount: 2
Fore
SplineSet
360 510 m 0xfa
 360 442.469960204 295.193184765 395 203 395 c 0
 130.0057214 395 77.2018313868 424.218152474 53 478 c 1
 144 511 l 1
 153.018419931 486.521431613 175.731428351 472 205 472 c 0
 236.697161276 472 255 486.642270979 255 512 c 0xfa
 255 539.768225233 232.67701105 552 182 552 c 2
 167 552 l 1
 167 636 l 1
 182 636 l 2
 225.333333333 636 247 648.666666667 247 674 c 0
 247 695.612349361 229.404802018 709 201 709 c 0
 174.844619456 709 154.47296587 696.173403298 147 675 c 1
 58 708 l 1
 80.1993544077 757.622086324 132.466280517 785 205 785 c 0
 293.950940314 785 350 745.5723856 350 683 c 0xfc
 350 646.78201962 331.336428011 615.168214006 301 600 c 1
 338.1861203 586.227362851 360 552.95195314 360 510 c 0xfa
EndSplineSet
EndChar

StartChar: acute
Encoding: 180 180 96
Width: 314
GlyphClass: 1
Flags: W
HStem: 574 153<161.026 194.972>
VStem: 53 208
LayerCount: 2
Fore
SplineSet
205 727 m 0
 237.267112599 727 261 703.267112599 261 671 c 0
 261 653.666666667 254.666666667 639.666666667 242 629 c 0
 237 625.578947368 237 625.578947368 167 574 c 1
 53 574 l 1
 54.1110518839 575.34913443 162.888948116 707.65086557 164 709 c 0
 174 721 187.666666667 727 205 727 c 0
EndSplineSet
EndChar

StartChar: uni03BC
Encoding: 278 956 97
Width: 570
GlyphClass: 1
Flags: W
HStem: -162 21G<50 202> -12 118<221.338 340.053> 0 21G<374.953 519> 475 20G<50 202 366 519>
VStem: 50 152<-162 18 124.07 495> 366 153<132.197 495>
LayerCount: 2
Fore
SplineSet
368 43 m 1xbc
 348.592902941 7.82463658078 316.513036474 -12 279 -12 c 0
 249.666666667 -12 224 -1.99999999987 202 18 c 1
 202 -162 l 1
 50 -162 l 1
 50 495 l 1
 202 495 l 1
 202 230 l 2
 202 134.375559428 219.162636751 106 277 106 c 0xdc
 342.059528161 106 366 139.355264135 366 230 c 2
 366 495 l 1
 519 495 l 1
 519 0 l 1
 381 0 l 1
 368 43 l 1xbc
EndSplineSet
EndChar

StartChar: paragraph
Encoding: 182 182 98
Width: 515
GlyphClass: 1
Flags: W
HStem: -162 21G<166 261 353 448> 600 67<261 353 448 495>
VStem: 24 237<391.678 564.199> 166 95<-162 301.386> 353 95<-162 600>
LayerCount: 2
Fore
SplineSet
24 478 m 0xe8
 24 582.737102571 108.262897429 667 213 667 c 2
 495 667 l 1
 495 600 l 1
 448 600 l 1
 448 -162 l 1
 353 -162 l 1
 353 600 l 1
 261 600 l 1
 261 -162 l 1
 166 -162 l 1
 166 295 l 1xd8
 80.783438225 318.434554488 24 391.613210792 24 478 c 0xe8
EndSplineSet
EndChar

StartChar: periodcentered
Encoding: 183 183 99
Width: 301
GlyphClass: 1
Flags: W
HStem: 151 194<90.4802 211.013>
VStem: 53 195<188.098 308.176>
LayerCount: 2
Fore
SplineSet
248 248 m 0
 248 194.128512445 204.871487555 151 151 151 c 0
 96.8385575336 151 53 194.391225314 53 248 c 0
 53 302.256543766 96.1841104217 345 151 345 c 0
 205.517225277 345 248 302.517225277 248 248 c 0
EndSplineSet
EndChar

StartChar: cedilla
Encoding: 184 184 100
Width: 321
GlyphClass: 1
Flags: W
HStem: -187 50<83.8813 192.861>
VStem: 194 94<-133.501 -85.8689>
LayerCount: 2
Fore
SplineSet
122.92981633 -90.0658511294 m 0
 112.08872557 -90.0658511294 102.565365284 -79.9643174181 102.565365284 -68.4650524006 c 0
 102.565365284 -65.0457988897 103.400475236 -61.7991683373 105 -59 c 2
 157 25 l 1
 198 0 l 1
 168 -48 l 1
 177.333333333 -46.0000000001 188.666666667 -45 202 -45 c 0
 253.740558236 -45 288 -69.6986673181 288 -107 c 0
 288 -156.425266658 239.46261082 -187 161 -187 c 0
 130.515936245 -187 99.7956005265 -182.461768587 73 -174 c 1
 89 -124 l 1
 103.607190195 -131.303595108 130.336474688 -137 150 -137 c 0
 178.551505849 -137 194 -127.520242226 194 -110 c 0
 194 -93.9601046873 179.826004868 -84 157 -84 c 0
 144.250355216 -84 135.679461114 -90.0658511294 122.92981633 -90.0658511294 c 0
EndSplineSet
EndChar

StartChar: uni00B9
Encoding: 185 185 101
Width: 291
GlyphClass: 1
Flags: W
HStem: 647 87<53 136.514>
VStem: 137 101<403 647> 159 79<748.803 779>
LayerCount: 2
Fore
SplineSet
53 734 m 1xc0
 122.897417391 734 147.909083983 744.618160346 159 779 c 1
 238 779 l 1xa0
 238 403 l 1
 137 403 l 1
 137 647 l 1
 53 647 l 1
 53 734 l 1xc0
EndSplineSet
EndChar

StartChar: ordmasculine
Encoding: 186 186 102
Width: 409
GlyphClass: 1
Flags: W
HStem: 395 77<171.678 246.355> 612 77<173.47 246.463>
VStem: 57 103<483.109 601.135> 258 102<482.937 601.203>
LayerCount: 2
Fore
SplineSet
160 542 m 0
 160 499.268243076 179.087770153 472 209 472 c 0
 239.514610635 472 258 498.407699093 258 542 c 0
 258 585.592300907 239.514610635 612 209 612 c 0
 179.087770153 612 160 584.731756924 160 542 c 0
360 542 m 0
 360 451.038361299 302.436785332 395 209 395 c 0
 115.271983103 395 57 451.355141554 57 542 c 0
 57 633.825996105 114.050670694 689 209 689 c 0
 303.131571789 689 360 633.638020219 360 542 c 0
EndSplineSet
EndChar

StartChar: guillemotright
Encoding: 187 187 103
Width: 669
GlyphClass: 1
Flags: W
VStem: 53 175<40 215 286 461> 294 174<40 214 287 461>
LayerCount: 2
Fore
SplineSet
53 40 m 1
 203 251 l 1
 54 461 l 1
 228 461 l 1
 375 251 l 1
 228 40 l 1
 53 40 l 1
294 40 m 1
 442 251 l 1
 294 461 l 1
 468 461 l 1
 616 251 l 1
 468 40 l 1
 294 40 l 1
EndSplineSet
EndChar

StartChar: onequarter
Encoding: 188 188 104
Width: 853
GlyphClass: 1
Flags: W
HStem: 0 21G<110 251.033 641 742> 74 87<563 641 742 800> 535 88<53 136.913> 647 20G<153.503 238 563.967 705>
VStem: 110 127<0 127> 137 101<292 535> 159 79<637.272 667> 578 127<540 667> 641 101<0 74 161 256>
DStem2: 110 0 237 0 0.574368 0.818597<72.9447 814.809> 460 152 563 161 0.630199 0.776433<71.8984 194.815>
LayerCount: 2
Fore
SplineSet
563 161 m 1xf080
 641 161 l 1
 641 256 l 1
 563 161 l 1xf080
641 0 m 1
 641 74 l 1
 460 74 l 1
 460 152 l 1
 641 375 l 1
 742 375 l 1
 742 161 l 1
 800 161 l 1
 800 74 l 1
 742 74 l 1
 742 0 l 1
 641 0 l 1
53 623 m 1
 124.113245544 623 148.005682347 632.917615277 159 667 c 1
 238 667 l 1xf2
 238 292 l 1
 137 292 l 1
 137 535 l 1xf4
 53 535 l 1
 53 623 l 1
110 0 m 1xf9
 578 667 l 1
 705 667 l 1
 237 0 l 1
 110 0 l 1xf9
EndSplineSet
Ligature2: "'frac' Diagonal Fractions lookup 10 subtable" one slash four
EndChar

StartChar: onehalf
Encoding: 189 189 105
Width: 856
GlyphClass: 1
Flags: W
HStem: 0 87<644 802> 306 75<613.877 696.397> 535 88<53 136.913> 647 20G<153.503 238 563.967 705>
VStem: 110 127<0 127> 137 101<292 535> 159 79<637.272 667> 578 127<540 667> 700 102<218.492 301.466>
DStem2: 110 0 237 0 0.574368 0.818597<72.9447 814.809>
LayerCount: 2
Fore
SplineSet
661 381 m 0xf080
 750.242041207 381 803 341.245763445 803 274 c 0
 803 237.333333333 788.5 205.166666667 759.5 177.5 c 0
 730.500000002 149.833333335 692.000000002 119.666666669 644 87 c 1
 802 87 l 1
 802 0 l 1
 502 0 l 1
 502 81 l 1
 552.999751944 117.7198214 576.659278596 130.452561403 626 169 c 0
 675.304097898 207.518826482 700 239.89048194 700 266 c 0
 700 291.341085821 684.241667257 306 657 306 c 0
 629.64124585 306 610.25293729 290.561161702 603 263 c 1
 512 296 l 1
 533.402926571 350.84499934 586.262868905 381 661 381 c 0xf080
53 623 m 1
 124.113245544 623 148.005682347 632.917615277 159 667 c 1
 238 667 l 1xf2
 238 292 l 1
 137 292 l 1
 137 535 l 1xf4
 53 535 l 1
 53 623 l 1
110 0 m 1xf9
 578 667 l 1
 705 667 l 1
 237 0 l 1
 110 0 l 1xf9
EndSplineSet
Ligature2: "'frac' Diagonal Fractions lookup 10 subtable" one slash two
EndChar

StartChar: threequarters
Encoding: 190 190 106
Width: 959
GlyphClass: 1
Flags: W
HStem: 0 21G<200 341.033 748 849> 74 87<669 748 849 906> 290 76<154.238 251.57> 446 84<167 242.594> 603 76<131.036 243.516> 647 20G<653.967 795>
VStem: 200 127<0 127> 247 103<537.156 597.478> 255 105<371.384 437.735> 668 127<540 667> 748 101<0 74 161 256>
DStem2: 200 0 327 0 0.574368 0.818597<72.9447 814.809> 567 152 669 161 0.630199 0.776433<71.2682 194.815>
LayerCount: 2
Fore
SplineSet
669 161 m 1xf020
 748 161 l 1
 748 256 l 1
 669 161 l 1xf020
748 0 m 1
 748 74 l 1
 567 74 l 1
 567 152 l 1
 748 375 l 1
 849 375 l 1
 849 161 l 1
 906 161 l 1
 906 74 l 1
 849 74 l 1
 849 0 l 1
 748 0 l 1
200 0 m 1xf640
 668 667 l 1
 795 667 l 1
 327 0 l 1
 200 0 l 1xf640
360 404 m 0xf880
 360 337.471990827 294.62190737 290 203 290 c 0
 130.616368296 290 77.425752262 319.077536765 53 372 c 1
 144 404 l 1
 152.873569833 379.91459617 175.210158421 366 205 366 c 0
 236.580071984 366 255 379.999145292 255 404 c 0xf880
 255 433.092273335 232.565141749 446 182 446 c 2
 167 446 l 1
 167 530 l 1
 182 530 l 2
 225.333333333 530 247 543 247 569 c 0
 247 588.97484556 228.024791052 603 201 603 c 0
 174.844619456 603 154.47296587 590.173403298 147 569 c 1
 58 602 l 1
 81.3333333336 653.333333333 131.333333334 679 208 679 c 0
 294.681461427 679 350 639.264148349 350 577 c 0xf9
 350 540.78201962 331.336428011 509.168214006 301 494 c 1
 338.1861203 480.227362851 360 446.95195314 360 404 c 0xf880
EndSplineSet
LCarets2: 2 0 0
Ligature2: "'frac' Diagonal Fractions lookup 10 subtable" three slash four
EndChar

StartChar: less
Encoding: 60 60 107
Width: 573
GlyphClass: 1
Flags: W
HStem: 490 20G<486.27 533>
LayerCount: 2
Fore
SplineSet
533 -12 m 1
 40 200 l 1
 40 299 l 1
 533 510 l 1
 533 368 l 1
 209 250 l 1
 533 130 l 1
 533 -12 l 1
EndSplineSet
EndChar

StartChar: equal
Encoding: 61 61 108
Width: 618
GlyphClass: 1
Flags: W
HStem: 96 129<53 565> 283 127<53 565>
LayerCount: 2
Fore
SplineSet
53 96 m 1
 53 225 l 1
 565 225 l 1
 565 96 l 1
 53 96 l 1
53 283 m 1
 53 410 l 1
 565 410 l 1
 565 283 l 1
 53 283 l 1
EndSplineSet
EndChar

StartChar: greater
Encoding: 62 62 109
Width: 573
GlyphClass: 1
Flags: W
HStem: 490 20G<40 86.7299>
LayerCount: 2
Fore
SplineSet
40 -12 m 1
 40 130 l 1
 365 250 l 1
 40 368 l 1
 40 510 l 1
 533 299 l 1
 533 200 l 1
 40 -12 l 1
EndSplineSet
EndChar

StartChar: question
Encoding: 63 63 110
Width: 614
GlyphClass: 1
Flags: W
HStem: -12 195<204.098 324.176> 558 122<219.079 386.031>
VStem: 167 194<25.4802 146.558> 408 156<464.241 537.213>
LayerCount: 2
Fore
SplineSet
361 86 m 0
 361 31.1841104212 318.256543767 -12 264 -12 c 0
 210.391225314 -12 167 31.8385575337 167 86 c 0
 167 140.517225277 209.482774723 183 264 183 c 0
 319.157963458 183 361 141.157963458 361 86 c 0
40 536 m 1
 76.7555124001 627.888781 174.102164559 680 309 680 c 0
 462.871224585 680 564 612.184232957 564 509 c 0
 564 330.366544485 353.74802711 364.545237209 341 253 c 1
 340 243 l 1
 186 243 l 1
 186 255 l 1
 189.659145627 342.819495056 218.113595425 380.758761453 315 427 c 0
 397.50521226 465.619461059 408 473.970152378 408 501 c 0
 408 535.253078877 366.097776879 558 303 558 c 0
 237.665453689 558 192.87568415 532.405845978 177 486 c 1
 40 536 l 1
EndSplineSet
EndChar

StartChar: at
Encoding: 64 64 111
Width: 754
GlyphClass: 1
Flags: W
HStem: -12 70<275.675 487.86> 153 87<526.428 612.595> 155 95<310.922 396.16> 427 91<323.549 418.708> 610 70<275.571 486.037>
VStem: 35 69<228.31 438.975> 200 97<262.777 399.275> 419 94<272.354 426.373> 642 77<272.17 456.344>
LayerCount: 2
Fore
SplineSet
297 319 m 0xbf80
 297 277.553957281 318.963299282 250 352 250 c 0
 390.651922253 250 419 287.656401783 419 339 c 2
 419 423 l 1
 408.57011454 425.607471365 395.689224666 427 382 427 c 0
 324.916865974 427 297 391.529158527 297 319 c 0xbf80
104 333 m 0
 104 179.745647388 227.516493168 58 383 58 c 0
 429.666666667 58 474 69.9999999999 516 94 c 1
 516 16 l 1
 473.333333333 -2.66666666674 428 -12 380 -12 c 0
 189.816416201 -12 35 143.265159436 35 334 c 0
 35 525.310346899 190.136733023 680 382 680 c 0
 569.725590488 680 719 533.826245878 719 350 c 0
 713.802246544 227.852793801 653.008099295 153 559 153 c 0xdf80
 510.789815755 153 470.532509225 178.304592676 454 219 c 1
 424.734580123 178.282894083 382.170539378 155 337 155 c 0xbf80
 256.495994614 155 200 221.805482682 200 317 c 0
 200 446.570856338 268.941561544 518 394 518 c 0
 431.1548292 518 472.282378958 511.087806763 513 498 c 1
 513 309 l 2
 513 268.013840173 534.923874918 240 567 240 c 0xdf80
 611.031061503 240 638.098087751 281.863667263 642 356 c 1
 642 499.531463293 528.052139302 610 380 610 c 0
 227.197184732 610 104 486.356448656 104 333 c 0
EndSplineSet
EndChar

StartChar: colon
Encoding: 58 58 112
Width: 243
GlyphClass: 1
Flags: W
HStem: -12 195<61.5928 181.902> 316 194<61.365 182.127>
VStem: 24 195<25.5928 146.176 352.602 472.681>
LayerCount: 2
Fore
SplineSet
219 86 m 0
 219 31.8385575336 175.608774686 -12 122 -12 c 0
 68.1048126482 -12 24 32.1048126482 24 86 c 0
 24 140.256543766 67.1841104217 183 122 183 c 0
 176.517225277 183 219 140.517225277 219 86 c 0
219 412 m 0
 219 358.417963596 176.140182617 316 122 316 c 0
 67.5662389135 316 24 358.677131997 24 412 c 0
 24 466.541721895 67.458278105 510 122 510 c 0
 176.246706682 510 219 466.805951081 219 412 c 0
EndSplineSet
EndChar

StartChar: semicolon
Encoding: 59 59 113
Width: 243
GlyphClass: 1
Flags: W
HStem: 316 194<61.365 182.127>
VStem: 24 195<25.8612 146.176 352.602 472.681>
DStem2: 46 -146 136 -146 0.365652 0.930751<32.9087 146.893>
LayerCount: 2
Fore
SplineSet
122 183 m 0
 176.517225277 183 219 140.517225277 219 86 c 0
 219 73.3333333333 217 61.3333333333 213 50 c 2
 136 -146 l 1
 46 -146 l 1
 99 -9 l 1
 55.0389659274 1.99025851873 24 41.3062820267 24 86 c 0
 24 140.256543766 67.1841104217 183 122 183 c 0
219 412 m 0
 219 358.417963596 176.140182617 316 122 316 c 0
 67.5662389135 316 24 358.677131997 24 412 c 0
 24 466.541721895 67.458278105 510 122 510 c 0
 176.246706682 510 219 466.805951081 219 412 c 0
EndSplineSet
EndChar

StartChar: bracketleft
Encoding: 91 91 114
Width: 333
GlyphClass: 1
Flags: W
HStem: -161 115<172 300> 552 116<172 300>
VStem: 44 256<-161 -46 552 668> 44 128<-46 552>
LayerCount: 2
Fore
SplineSet
44 -161 m 1xe0
 44 668 l 1
 300 668 l 1
 300 552 l 1xe0
 172 552 l 1
 172 -46 l 1xd0
 300 -46 l 1
 300 -161 l 1
 44 -161 l 1xe0
EndSplineSet
EndChar

StartChar: backslash
Encoding: 92 92 115
Width: 442
GlyphClass: 1
Flags: W
HStem: 0 21G<268.186 427> 648 20G<15 175.754>
DStem2: 168 668 15 668 0.363926 -0.931428<0 661.498>
LayerCount: 2
Fore
SplineSet
276 0 m 1
 15 668 l 1
 168 668 l 1
 427 0 l 1
 276 0 l 1
EndSplineSet
EndChar

StartChar: bracketright
Encoding: 93 93 116
Width: 333
GlyphClass: 1
Flags: W
HStem: -161 115<33 161> 552 116<33 161>
VStem: 33 256<-161 -46 552 668> 161 128<-46 552>
LayerCount: 2
Fore
SplineSet
33 -161 m 1xe0
 33 -46 l 1xe0
 161 -46 l 1
 161 552 l 1xd0
 33 552 l 1
 33 668 l 1
 289 668 l 1
 289 -161 l 1
 33 -161 l 1xe0
EndSplineSet
EndChar

StartChar: asciicircum
Encoding: 94 94 117
Width: 589
GlyphClass: 1
Flags: W
HStem: 648 20G<227.607 361.393>
DStem2: 53 312 196 312 0.461117 0.887339<65.9398 283.734> 351 668 295 506 0.461117 -0.887339<117.926 335.26>
LayerCount: 2
Fore
SplineSet
53 312 m 1
 238 668 l 1
 351 668 l 1
 536 312 l 1
 393 312 l 1
 295 506 l 1
 196 312 l 1
 53 312 l 1
EndSplineSet
EndChar

StartChar: underscore
Encoding: 95 95 118
Width: 430
GlyphClass: 1
Flags: W
HStem: -128 128<10 420>
LayerCount: 2
Fore
SplineSet
10 -128 m 1
 10 0 l 1
 420 0 l 1
 420 -128 l 1
 10 -128 l 1
EndSplineSet
EndChar

StartChar: grave
Encoding: 96 96 119
Width: 314
GlyphClass: 1
Flags: W
HStem: 574 154<119.028 152.719>
VStem: 53 208
LayerCount: 2
Fore
SplineSet
53 671 m 0
 53 702.27041325 78.2781904912 728 109 728 c 0
 126.333333333 728 140.333333333 721.666666667 151 709 c 2
 261 574 l 1
 147 574 l 1
 77 625.578947368 77 625.578947368 72 629 c 0
 59.3333333333 641.666666667 53 655.666666667 53 671 c 0
EndSplineSet
EndChar

StartChar: exclam
Encoding: 33 33 120
Width: 283
GlyphClass: 1
Flags: W
HStem: -12 195<81.5928 201.902> 648 20G<44 238>
VStem: 44 195<25.5928 146.176 453.977 668>
LayerCount: 2
Fore
SplineSet
239 86 m 0
 239 31.8385575336 195.608774686 -12 142 -12 c 0
 88.1048126482 -12 44 32.1048126482 44 86 c 0
 44 140.256543766 87.1841104217 183 142 183 c 0
 196.517225277 183 239 140.517225277 239 86 c 0
85 243 m 1
 44 495 l 1
 44 668 l 1
 238 668 l 1
 238 495 l 1
 196 243 l 1
 85 243 l 1
EndSplineSet
EndChar

StartChar: quotedbl
Encoding: 34 34 121
Width: 410
GlyphClass: 1
Flags: W
HStem: 434 234<54 168 243 356>
VStem: 54 114<434 551> 243 113<434 543.2>
LayerCount: 2
Fore
SplineSet
54 434 m 1
 40 668 l 1
 182 668 l 1
 168 434 l 1
 54 434 l 1
243 434 m 1
 228 668 l 1
 370 668 l 1
 356 434 l 1
 243 434 l 1
EndSplineSet
EndChar

StartChar: numbersign
Encoding: 35 35 122
Width: 783
GlyphClass: 1
Flags: W
HStem: 0 21G<134 277.835 411 554.835> 127 140<44 152 313 429 591 699> 401 140<84 192 352 469 630 738> 648 20G<228.008 371 505.008 649>
DStem2: 134 0 275 0 0.143702 0.989621<20.262 128.269 289.952 405.173 566.712 675.006> 411 0 552 0 0.143702 0.989621<20.262 128.269 290.095 405.173 566.856 675.006>
LayerCount: 2
Fore
SplineSet
313 267 m 1
 450 267 l 1
 469 401 l 1
 332 401 l 1
 313 267 l 1
134 0 m 1
 152 127 l 1
 24 127 l 1
 44 266 l 1
 172 266 l 1
 192 401 l 1
 64 401 l 1
 84 541 l 1
 212 541 l 1
 231 668 l 1
 371 668 l 1
 352 541 l 1
 489 541 l 1
 508 668 l 1
 649 668 l 1
 630 541 l 1
 759 541 l 1
 738 402 l 1
 610 402 l 1
 591 267 l 1
 719 267 l 1
 699 127 l 1
 570 127 l 1
 552 0 l 1
 411 0 l 1
 429 127 l 1
 293 127 l 1
 275 0 l 1
 134 0 l 1
EndSplineSet
EndChar

StartChar: dollar
Encoding: 36 36 123
Width: 619
GlyphClass: 1
Flags: W
HStem: -11 128<222.592 272 345 404.962> 552 126<213.171 272 345 384.657>
VStem: 28 162<446.168 529.001> 272 73<-87 -8.87384 120 261 420 548 675.829 747> 434 162<141.754 229.717>
LayerCount: 2
Fore
SplineSet
345 117 m 1
 402.220803539 123.73185924 434 149.440872107 434 189 c 0
 434 221.83617528 405.729449364 244.706733098 345 261 c 1
 345 117 l 1
272 552 m 1
 221.355566852 546.372840762 190 522.282588181 190 489 c 0
 190 454.060294972 220.22188291 428.629686182 272 420 c 1
 272 552 l 1
596 209 m 0
 596 92.2611995114 494.140455786 2.9819177299 345 -11 c 1
 345 -87 l 1
 272 -87 l 1
 272 -10 l 1
 149.817847282 0.510292707052 63.0404761785 59.1816326837 25 157 c 1
 169 209 l 1
 183.419151091 160.499219055 217.726959206 130.854608159 272 120 c 1
 272 277 l 1
 231 286 l 2
 93.3432385988 316.590391422 28 377.105311898 28 474 c 0
 28 584.43474155 125.288147341 665.774012278 272 678 c 1
 272 747 l 1
 345 747 l 1
 345 678 l 1
 454.740488741 668.980233802 533.118609666 618.493426179 567 535 c 1
 424 483 l 1
 411.333333333 515.666666667 385 537.333333333 345 548 c 1
 345 405 l 1
 356 403 l 1
 521.225783531 374.790719885 596 314.348228239 596 209 c 0
EndSplineSet
EndChar

StartChar: percent
Encoding: 37 37 124
Width: 977
GlyphClass: 1
Flags: W
HStem: -12 119<701.783 810.271> 0 21G<192 332.012> 264 118<701.708 810.346> 286 118<167.056 275.363> 561 119<167.025 275.394> 648 20G<645.018 786>
VStem: 24 119<428.193 536.458> 192 126<0 126> 300 118<428.12 536.531> 559 118<131.647 237.466> 659 127<541 668> 835 118<131.592 237.517>
DStem2: 192 0 318 0 0.573791 0.819001<72.2977 815.054>
LayerCount: 2
Fore
SplineSet
677 186 m 0xa250
 677 142.222492434 712.222492434 107 756 107 c 0
 799.777507566 107 835 142.222492434 835 186 c 0
 835 228.845909923 799.39521646 264 756 264 c 0
 712.60478354 264 677 228.845909922 677 186 c 0xa250
953 186 m 0
 953 76.5110623214 864.935963246 -12 756 -12 c 0
 647.369271667 -12 559 76.8178466503 559 186 c 0
 559 294.918772457 646.525519521 382 756 382 c 0
 865.777853182 382 953 295.220605197 953 186 c 0
143 482 m 0
 143 438.893263257 177.893263257 404 221 404 c 0
 265.040205521 404 300 438.517265435 300 482 c 0
 300 526.418898285 265.418898285 561 221 561 c 0x1a90
 177.517265436 561 143 526.04020552 143 482 c 0
192 0 m 1x4730
 659 668 l 1
 786 668 l 1
 318 0 l 1
 192 0 l 1x4730
418 482 m 0x1a90
 418 373.383714043 330.170450681 286 221 286 c 0
 111.829549319 286 24 373.383714044 24 482 c 0
 24 591.48406552 112.068884305 680 221 680 c 0
 329.931115694 680 418 591.48406552 418 482 c 0x1a90
EndSplineSet
EndChar

StartChar: ampersand
Encoding: 38 38 125
Width: 702
GlyphClass: 1
Flags: W
HStem: -13 125<216.6 369.84> 0 21G<504.642 698> 592 114<273.32 376.457>
VStem: 24 159<144.38 250.008> 121 139<480.532 580.202> 394 127<476.262 574.205> 546 127<317.731 389>
DStem2: 395 352 266 290 0.652386 -0.757887<0 143.176 274.513 349.629>
LayerCount: 2
Fore
SplineSet
183 197 m 0xb6
 183 149.105870381 227.963584109 112 286 112 c 0
 318.094837375 112 356.05378214 124.175510585 392 146 c 1
 266 290 l 1
 212.734260039 269.420055015 183 236.103354008 183 197 c 0xb6
323 592 m 0
 285.515021838 592 260 569.724980935 260 537 c 0x2e
 260 506.816736092 282.283195807 470.876097694 322 437 c 1
 367.565957849 460.982083078 394 494.391775241 394 528 c 0
 394 564.934871713 363.974623307 592 323 592 c 0
476 53 m 1
 404.982742927 9.39291232389 333.732567351 -13 266 -13 c 0
 131.242758489 -13 24 77.402986495 24 191 c 0xb6
 24 272.123547449 81.3705825537 342.565908306 182 385 c 1
 141.621326246 436.735175746 121 487.781409567 121 536 c 0
 121 635.037082374 207.82521686 706 329 706 c 0
 430.995744713 706 521 623.964871483 521 531 c 0
 521 465.517040627 476.549127312 402.368578634 395 352 c 1
 489 244 l 1
 515.573976596 285.958910415 534.521711679 334.159289135 546 389 c 1
 673 389 l 1
 658.440597879 299.217020261 621.122428882 208.160687908 573 145 c 1
 698 0 l 1
 522 0 l 1x6e
 476 53 l 1
EndSplineSet
EndChar

StartChar: quotesingle
Encoding: 39 39 126
Width: 222
GlyphClass: 1
Flags: W
HStem: 434 234<54 168>
VStem: 54 114<434 551>
LayerCount: 2
Fore
SplineSet
54 434 m 1
 40 668 l 1
 182 668 l 1
 168 434 l 1
 54 434 l 1
EndSplineSet
EndChar

StartChar: parenleft
Encoding: 40 40 127
Width: 366
GlyphClass: 1
Flags: W
HStem: -161 21G<132.576 331> 648 20G<109.101 289>
VStem: 35 141<116.144 454.375> 145 144<524 668> 180 151<-161 -10>
LayerCount: 2
Fore
SplineSet
176 276 m 0xe0
 176 130.72786792 228.649179671 -17.7088515396 331 -161 c 1
 180 -161 l 1
 85.1516306611 -28.7871215278 35 123.743010345 35 280 c 0xe8
 35 414.509794403 73.2011922373 549.255817931 145 668 c 1
 289 668 l 1xd0
 213.444880539 553.364646337 176 423.467361634 176 276 c 0xe0
EndSplineSet
EndChar

StartChar: parenright
Encoding: 41 41 128
Width: 366
GlyphClass: 1
Flags: W
HStem: -161 21G<35 234.111> 648 20G<77 256.919>
VStem: 35 152<-161 -9> 77 144<524 668> 190 141<115.817 455.955>
LayerCount: 2
Fore
SplineSet
331 280 m 0xc8
 331 124.805117913 281.222228471 -27.6393073958 187 -161 c 1
 35 -161 l 1
 137.040949179 -20.3071761308 190 129.003180054 190 276 c 0xe8
 190 425.800988976 152.752669411 555.012967657 77 668 c 1
 221 668 l 1xd0
 292.83730092 551.433813602 331 416.823565938 331 280 c 0xc8
EndSplineSet
EndChar

StartChar: asterisk
Encoding: 42 42 129
Width: 434
GlyphClass: 1
Flags: W
HStem: 351 317
VStem: 173 88<567 668>
LayerCount: 2
Fore
SplineSet
158 351 m 1
 87 402 l 1
 146 484 l 1
 50 515 l 1
 77 598 l 1
 173 567 l 1
 173 668 l 1
 261 668 l 1
 261 567 l 1
 355 598 l 1
 383 515 l 1
 288 484 l 1
 347 402 l 1
 276 351 l 1
 217 432 l 1
 158 351 l 1
EndSplineSet
EndChar

StartChar: plus
Encoding: 43 43 130
Width: 618
GlyphClass: 1
Flags: W
HStem: 0 21G<245 373> 184 128<53 245 373 565> 476 20G<245 373>
VStem: 245 128<0 184 312 496>
LayerCount: 2
Fore
SplineSet
245 0 m 1
 245 184 l 1
 53 184 l 1
 53 312 l 1
 245 312 l 1
 245 496 l 1
 373 496 l 1
 373 312 l 1
 565 312 l 1
 565 184 l 1
 373 184 l 1
 373 0 l 1
 245 0 l 1
EndSplineSet
EndChar

StartChar: comma
Encoding: 44 44 131
Width: 243
GlyphClass: 1
Flags: W
HStem: -146 329<99.6524 136>
VStem: 24 195<25.8612 146.176>
DStem2: 46 -146 136 -146 0.365652 0.930751<32.9087 146.893>
LayerCount: 2
Fore
SplineSet
122 183 m 0
 176.246706682 183 219 139.805951081 219 85 c 0
 219 73 217 61.3333333333 213 50 c 2
 136 -146 l 1
 46 -146 l 1
 99 -9 l 1
 55.0389659274 1.99025851873 24 41.3062820267 24 86 c 0
 24 140.256543766 67.1841104217 183 122 183 c 0
EndSplineSet
EndChar

StartChar: hyphen
Encoding: 45 45 132
Width: 374
GlyphClass: 1
Flags: W
HStem: 184 129<24 350>
VStem: 24 326<184 313>
LayerCount: 2
Fore
SplineSet
24 184 m 1
 24 313 l 1
 350 313 l 1
 350 184 l 1
 24 184 l 1
EndSplineSet
EndChar

StartChar: period
Encoding: 46 46 133
Width: 243
GlyphClass: 1
Flags: W
HStem: -12 195<61.5928 181.902>
VStem: 24 195<25.5928 146.176>
LayerCount: 2
Fore
SplineSet
219 86 m 0
 219 31.8385575336 175.608774686 -12 122 -12 c 0
 68.1048126482 -12 24 32.1048126482 24 86 c 0
 24 140.256543766 67.1841104217 183 122 183 c 0
 176.517225277 183 219 140.517225277 219 86 c 0
EndSplineSet
EndChar

StartChar: slash
Encoding: 47 47 134
Width: 442
GlyphClass: 1
Flags: W
HStem: 0 21G<15 175.754> 648 20G<268.186 427>
DStem2: 15 0 168 0 0.363926 0.931428<55.6807 717.178>
LayerCount: 2
Fore
SplineSet
15 0 m 1
 276 668 l 1
 427 668 l 1
 168 0 l 1
 15 0 l 1
EndSplineSet
EndChar

StartChar: braceleft
Encoding: 123 123 135
Width: 370
GlyphClass: 1
Flags: W
HStem: -161 120<243.195 336> 193 123<24 78.853> 548 120<243.202 336>
VStem: 94 144<-33.6765 177.474 330.092 541.451>
LayerCount: 2
Fore
SplineSet
238 3 m 2
 238 -29.6583262387 254.754745329 -41 303 -41 c 2
 336 -41 l 1
 336 -161 l 1
 285 -161 l 2
 148.796706918 -161 94 -114.23631818 94 2 c 2
 94 97 l 2
 94 169.649376086 76.9735033962 193 24 193 c 1
 24 316 l 1
 76.9414207701 316 94 338.907234966 94 410 c 2
 94 506 l 2
 94 621.49929376 148.82490674 668 285 668 c 2
 336 668 l 1
 336 548 l 1
 303 548 l 2
 254.754745329 548 238 536.658326239 238 504 c 2
 238 381 l 2
 238 312.333138797 209.410265029 274.314874208 144 256 c 1
 144 253 l 1
 208.264282311 237.576572245 238 198.034394467 238 128 c 2
 238 3 l 2
EndSplineSet
EndChar

StartChar: bar
Encoding: 124 124 136
Width: 234
GlyphClass: 1
Flags: W
HStem: -161 21G<44 190> 648 20G<44 190>
VStem: 44 146<-161 668>
LayerCount: 2
Fore
SplineSet
44 -161 m 1
 44 668 l 1
 190 668 l 1
 190 -161 l 1
 44 -161 l 1
EndSplineSet
EndChar

StartChar: braceright
Encoding: 125 125 137
Width: 370
GlyphClass: 1
Flags: W
HStem: -161 120<34 127.864> 193 123<292.018 346> 548 120<34 127.857>
VStem: 133 144<-33.7266 177.61 329.982 541.501>
LayerCount: 2
Fore
SplineSet
277 2 m 2
 277 -114.429090834 222.429180058 -161 86 -161 c 2
 34 -161 l 1
 34 -41 l 1
 68 -41 l 2
 116.789150846 -41 133 -30.0265021113 133 3 c 2
 133 128 l 2
 133 198.608125535 161.463826292 236.865956573 226 253 c 1
 226 256 l 1
 160.185474657 275.195903225 133 311.735519699 133 381 c 2
 133 504 l 2
 133 537.026502112 116.789150847 548 68 548 c 2
 34 548 l 1
 34 668 l 1
 86 668 l 2
 222.4016824 668 277 621.691479313 277 506 c 2
 277 410 l 2
 277 339.223749332 294.047220254 316 346 316 c 1
 346 193 l 1
 294.015421744 193 277 169.326369748 277 97 c 2
 277 2 l 2
EndSplineSet
EndChar

StartChar: asciitilde
Encoding: 126 126 138
Width: 533
GlyphClass: 1
Flags: W
HStem: 167 123<287.292 379.294> 227 123<152.585 246.701>
LayerCount: 2
Fore
SplineSet
493 333 m 1x80
 485.516164994 217.748940902 444.550152459 167 359 167 c 0x80
 286.515402557 167 258.484597443 227 186 227 c 0
 157.308188936 227 144.746144718 206.094097145 144.746144718 158.344845158 c 0
 144.746144718 154.429169013 144.830706111 150.316994157 145 146 c 1
 40 184 l 1
 47.4176276709 298.231466133 89.8304024055 350 176 350 c 0x40
 246.263454047 350 276.736545953 290 347 290 c 0
 374.189146618 290 387.495692286 311.243378304 387.495692286 354.649784575 c 0
 387.495692286 359.486160257 387.330491384 364.601974067 387 370 c 1
 493 333 l 1x80
EndSplineSet
EndChar

StartChar: exclamdown
Encoding: 161 161 139
Width: 283
GlyphClass: 1
Flags: W
HStem: -161 21G<45 238> 325 194<81.365 202.127>
VStem: 45 193<-161 49.0244 359.809 483.511>
LayerCount: 2
Fore
SplineSet
45 -161 m 1
 45 12 l 1
 86 265 l 1
 197 265 l 1
 238 12 l 1
 238 -161 l 1
 45 -161 l 1
239 421 m 0
 239 367.417963596 196.140182617 325 142 325 c 0
 87.5662389135 325 44 367.677131997 44 421 c 0
 44 475.541721895 87.458278105 519 142 519 c 0
 196.246706682 519 239 475.805951081 239 421 c 0
EndSplineSet
EndChar

StartChar: cent
Encoding: 162 162 140
Width: 520
GlyphClass: 1
Flags: W
VStem: 24 155<154.817 343.959> 244 73<-87 -8.43595 115 383 505.44 571>
LayerCount: 2
Fore
SplineSet
244 383 m 1
 201.066059 363.066384535 179 317.915833042 179 250 c 0
 179 180.728834955 201.566877957 133.859165352 244 115 c 1
 244 383 l 1
500 107 m 1
 464.001755055 41.970912358 400.240365554 1.20543382471 317 -10 c 1
 317 -87 l 1
 244 -87 l 1
 244 -11 l 1
 105.367312899 3.38641092543 24 100.28748356 24 251 c 0
 24 392.886091207 110.412524684 493.831631406 244 508 c 1
 244 571 l 1
 317 571 l 1
 317 507 l 1
 403.906694553 495.939147966 468.066488912 451.547506464 502 379 c 1
 375 334 l 1
 363.964997906 362.200560909 344.503280141 380.637977739 318 388 c 1
 318 109 l 1
 344 115 363.333333333 129.333333333 376 152 c 1
 500 107 l 1
EndSplineSet
EndChar

StartChar: sterling
Encoding: 163 163 141
Width: 617
GlyphClass: 1
Flags: W
HStem: -12 125<328.475 554.268> 24 110<226.978 352.541> 295 73<50 125 324 450> 558 121<265.6 413.063>
VStem: 82 160<418.249 533.949> 173 158<190.095 294.39>
LayerCount: 2
Fore
SplineSet
240 24 m 0x74
 192.882097003 24 150.069298519 12.5832537376 105 -12 c 1
 50 104 l 1
 140.443460265 148.45526013 173 187.364295424 173 251 c 0xb4
 173 266.333333335 169.666666667 281.000000002 163 295 c 1
 50 295 l 1
 50 368 l 1
 125 368 l 1
 92.8766511358 430.238988423 82 464.386614082 82 503 c 0
 82 609.874045263 180.975798828 679 334 679 c 0
 452.726589757 679 546.894654615 625.350465041 585 536 c 1
 449 486 l 1
 436.25893889 531.172853025 394.15522211 558 336 558 c 0
 279.458186896 558 242 530.902588203 242 490 c 0xb8
 242 468.666666665 247.333333333 448.166666665 258 428.5 c 0
 268.666666655 408.833333357 279.333333321 388.666666691 290 368 c 1
 450 368 l 1
 450 295 l 1
 324 295 l 1
 328.666666667 283.000000002 331 269.666666669 331 255 c 0
 331 206.328531853 294.995817483 158.322955164 226 115 c 1
 249.442200034 128.395542877 274.219799948 134 310 134 c 0x74
 370.171302329 134 392.828697671 113 453 113 c 0
 487.556821449 113 521.218783605 123.131270163 556 144 c 1
 600 23 l 1
 551.966848563 -1.01657571862 501.756908991 -12 440 -12 c 0xb4
 362.989154933 -12 317.010845067 24 240 24 c 0x74
EndSplineSet
EndChar

StartChar: currency
Encoding: 164 164 142
Width: 596
GlyphClass: 1
Flags: W
HStem: 102 119<236.853 359.147> 419 120<235.879 360.16>
VStem: 79 120<259.029 381.751> 397 119<258.678 381.599>
DStem2: 105 565 53 513 0.707107 -0.707107<0 98.8678 520.392 619.426> 53 127 105 75 0.707107 0.707107<0 98.8956 520.531 619.426>
LayerCount: 2
Fore
SplineSet
199 321 m 0
 199 265.50076602 243.05575836 221 298 221 c 0
 352.94424164 221 397 265.50076602 397 321 c 0
 397 375.917262059 353.477642284 419 298 419 c 0
 242.522357716 419 199 375.917262059 199 321 c 0
516 321 m 0
 516 274.728104335 502.381575923 231.489607889 476 194 c 1
 543 127 l 1
 491 75 l 1
 424 142 l 1
 387.333333333 115.333333333 345.333333334 102 298 102 c 0
 250.666666666 102 208.666666667 115.333333333 172 142 c 1
 105 75 l 1
 53 127 l 1
 120 194 l 1
 92.9654291401 232.417548064 79 275.676316376 79 321 c 0
 79 365.035878388 92.9464122524 407.555427938 120 446 c 1
 53 513 l 1
 105 565 l 1
 172 498 l 1
 208.318690706 524.902733858 251.641996412 539 298 539 c 0
 344.990307768 539 387.185937226 525.269676129 424 498 c 1
 491 565 l 1
 543 513 l 1
 476 446 l 1
 502.666666667 409.333333333 516 367.666666667 516 321 c 0
EndSplineSet
EndChar

StartChar: yen
Encoding: 165 165 143
Width: 687
GlyphClass: 1
Flags: W
HStem: 0 21G<265 422> 75 74<136 265 422 552> 212 74<136 249 438 552> 647 20G<10 205.641 480.359 677>
VStem: 10 184<483 667> 265 157<0 75 149 212> 492 185<482 667>
DStem2: 194 667 10 667 0.531397 -0.847123<0 296.042> 343 411 438 286 0.531397 0.847123<0 296.042>
LayerCount: 2
Fore
SplineSet
265 0 m 1
 265 75 l 1
 136 75 l 1
 136 149 l 1
 265 149 l 1
 265 212 l 1
 136 212 l 1
 136 286 l 1
 249 286 l 1
 10 667 l 1
 194 667 l 1
 343 411 l 1
 492 667 l 1
 677 667 l 1
 438 286 l 1
 552 286 l 1
 552 212 l 1
 422 212 l 1
 422 149 l 1
 552 149 l 1
 552 75 l 1
 422 75 l 1
 422 0 l 1
 265 0 l 1
EndSplineSet
EndChar

StartChar: brokenbar
Encoding: 166 166 144
Width: 216
GlyphClass: 1
Flags: W
HStem: -161 21G<44 172> 648 20G<44 172>
VStem: 44 128<-161 150 358 668>
LayerCount: 2
Fore
SplineSet
44 -161 m 1
 44 150 l 1
 172 150 l 1
 172 -161 l 1
 44 -161 l 1
44 358 m 1
 44 668 l 1
 172 668 l 1
 172 358 l 1
 44 358 l 1
EndSplineSet
EndChar

StartChar: section
Encoding: 167 167 145
Width: 578
GlyphClass: 1
Flags: W
HStem: -173 117<220.43 338.824> 565 115<220.174 344.108>
VStem: 21 149<271.288 340.474> 68 149<497.554 556.974> 351 151<-43.2455 35.7501> 398 153<194.965 266.98>
DStem2: 356 184 162 125 0.895856 -0.444345<-215.558 14.0095> 278 474 211 352 0.89735 -0.44132<-18.9618 211.61>
LayerCount: 2
Fore
SplineSet
356 184 m 1xe4
 385.854189842 197.434385429 398 210.736939412 398 230 c 0
 398 254.98240711 381.559205383 269.501550408 321 298 c 1
 211 352 l 1
 183.666666667 338.666666667 170 323.666666667 170 307 c 0
 170 284.810161436 184.913412213 269.896749223 231 246 c 2
 356 184 l 1xe4
502 5 m 0xc8
 502 -101.190867923 411.230029678 -173 277 -173 c 0
 172.184512915 -173 95.8114702624 -123.518873774 64 -35 c 1
 194 12 l 1
 205.75666833 -32.4140803599 235.932771399 -56 281 -56 c 0
 324.165170899 -56 351 -37.2156196293 351 -7 c 0
 351 21.6106472542 328.568852695 44.6480417831 277 69 c 2
 162 125 l 2
 66.0341510062 170.83443534 21 225.130929461 21 295 c 0xe8
 21 342.322178708 51.9648113819 387.689227942 107 421 c 1
 81.0630181944 454.141698974 68 489.646312528 68 527 c 0
 68 618.380291774 154.187042878 680 282 680 c 0
 382.713999353 680 455.131307829 640.817688168 489 568 c 1
 359 521 l 1
 346.160144072 550.959663831 321.270457227 565 281 565 c 0
 240.773922311 565 217 552.370103772 217 531 c 0
 217 512.180651543 234.679990344 495.660004828 278 474 c 2
 400 414 l 2
 509.936490242 360.558650576 551 315.41598422 551 248 c 0xd4
 551 194.281368327 517.993624673 146.723795276 458 114 c 1
 487.405450584 83.194289865 502 47.0396106292 502 5 c 0xc8
EndSplineSet
EndChar

StartChar: dieresis
Encoding: 168 168 146
Width: 452
GlyphClass: 1
Flags: W
HStem: 578 141<79.8477 179.643 273.848 374.09>
VStem: 59 141<598.357 698.152> 253 140<598.255 698.152>
LayerCount: 2
Fore
SplineSet
393 648 m 0
 393 608.680054777 362.75823172 578 324 578 c 0
 284.659593139 578 253 609.213683376 253 648 c 0
 253 687.072841291 284.927158709 719 324 719 c 0
 362.500501335 719 393 687.616457895 393 648 c 0
200 648 m 0
 200 608.951033235 169.048966765 578 130 578 c 0
 90.6595931387 578 59 609.213683376 59 648 c 0
 59 687.072841291 90.9271587092 719 130 719 c 0
 168.786316624 719 200 687.340406861 200 648 c 0
EndSplineSet
EndChar

StartChar: copyright
Encoding: 169 169 147
Width: 798
GlyphClass: 1
Flags: W
HStem: -12 69<293.269 503.679> 145 85<355.667 464.009> 437 85<356.499 458.59> 610 69<293.416 503.531>
VStem: 53 70<228.732 438.778> 218 112<257.579 410.886> 675 70<228.47 439.039>
LayerCount: 2
Fore
SplineSet
563 231 m 1
 530.803030349 175.805194884 472.774639986 145 401 145 c 0
 286.953485951 145 218 216.214255982 218 334 c 0
 218 445.951350824 292.02607872 522 401 522 c 0
 477.806920906 522 535.299687688 488.844662101 564 428 c 1
 472 394 l 1
 460.850049708 422.494317412 438.922855099 437 407 437 c 0
 359.098390151 437 330 398.076179408 330 334 c 0
 330 269.02984078 358.897093655 230 407 230 c 0
 438.333333333 230 460.333333333 241.333333333 473 264 c 1
 563 231 l 1
123 334 m 0
 123 181.117227632 246.221074364 57 398 57 c 0
 551.460918816 57 675 180.539081184 675 334 c 0
 675 486.619818366 551.172788722 610 398 610 c 0
 246.507304398 610 123 486.043578131 123 334 c 0
745 334 m 0
 745 142.513983979 590.039443813 -12 398 -12 c 0
 207.816416201 -12 53 143.265159436 53 334 c 0
 53 523.719523112 208.280476888 679 398 679 c 0
 589.574002213 679 745 524.469829289 745 334 c 0
EndSplineSet
EndChar

StartChar: questiondown
Encoding: 191 191 148
Width: 614
GlyphClass: 1
Flags: W
HStem: -172 122<228.056 394.921> 324 195<289.987 412.094>
VStem: 50 156<-29.1746 43.6988> 253 194<360.987 482.067>
LayerCount: 2
Fore
SplineSet
574 -28 m 1
 537.2444876 -119.888781 439.897835441 -172 305 -172 c 0
 151.620447079 -172 50 -103.854523724 50 -1 c 0
 50 177.045042403 259.963567785 144.19032618 273 255 c 1
 274 265 l 1
 428 265 l 1
 428 253 l 1
 426.210788781 167.117861503 397.877462085 129.340092575 299 81 c 0
 212.630667994 39.6929281709 206 34.416912778 206 7 c 0
 206 -27.2530788771 247.902223121 -50 311 -50 c 0
 376.334546311 -50 421.12431585 -24.4058459778 437 22 c 1
 574 -28 l 1
447 421 m 0
 447 366.482774723 404.517225277 324 350 324 c 0
 296.128512445 324 253 367.128512445 253 421 c 0
 253 475.805951081 295.753293318 519 350 519 c 0
 404.889540456 519 447 476.455412007 447 421 c 0
EndSplineSet
EndChar

StartChar: germandbls
Encoding: 223 223 149
Width: 621
GlyphClass: 1
Flags: W
HStem: -12 126<319.312 411.391> 0 21G<44 197> 298 117<278 387.795> 556 123<230.64 389.578>
VStem: 44 153<0 519.662> 410 147<436.146 534.696> 443 156<143.859 260.446>
LayerCount: 2
Fore
SplineSet
504 370 m 1x7c
 565.450131187 337.738681127 599 279.114699833 599 204 c 0
 599 67.2368988565 510.225326281 -12 357 -12 c 2
 338 -12 l 2
 332 -12 325.666666667 -11.6666666667 319 -11 c 1
 278 123 l 1
 300 117 322.333333333 114 345 114 c 0
 402.044638129 114 443 149.104595889 443 198 c 0xba
 443 264.309557827 397.854807489 298 309 298 c 2
 278 298 l 1
 278 415 l 1
 304 415 l 2
 374.666666667 415 410 438.666666667 410 486 c 0
 410 530.820882923 375.82834111 556 315 556 c 0
 227.225823597 556 197 522.188061739 197 424 c 2
 197 0 l 1
 44 0 l 1
 44 435 l 2
 44 602.35191889 130.386156988 679 319 679 c 0
 465.574044775 679 557 607.549463564 557 493 c 0
 557 444.742311048 536.811513976 397.889786879 504 370 c 1x7c
EndSplineSet
EndChar

StartChar: AE
Encoding: 198 198 150
Width: 1016
GlyphClass: 1
Flags: W
HStem: 0 139<639 994> 119 128<341 481> 275 138<639 857> 528 139<639 994>
DStem2: 5 0 177 0 0.580892 0.813981<99.9134 243.248 396.233 602.496>
AnchorPoint: "Anchor-0" 698 668 basechar 0
LayerCount: 2
Fore
SplineSet
341 247 m 1x70
 481 247 l 1
 481 453 l 1
 341 247 l 1x70
5 0 m 1xb0
 481 667 l 1
 994 667 l 1
 994 528 l 1
 639 528 l 1
 639 413 l 1
 857 413 l 1
 857 275 l 1
 639 275 l 1
 639 139 l 1
 994 139 l 1
 994 0 l 1
 481 0 l 1xb0
 481 119 l 1
 257 119 l 1x70
 177 0 l 1
 5 0 l 1xb0
EndSplineSet
EndChar

StartChar: florin
Encoding: 279 402 151
Width: 377
GlyphClass: 1
Flags: W
HStem: -174 141<15.8878 143.553> 381 115<15 97 249 357> 608 121<256.792 357>
VStem: 97 152<-25.5825 381 496 602.672>
LayerCount: 2
Fore
SplineSet
249 -16 m 2
 249 -119.762754762 195.106028466 -174 92 -174 c 0
 69.9077108104 -174 42.2151388603 -170.403562084 15 -164 c 1
 15 -31 l 1
 25.6666666673 -32.3333333333 35.6666666671 -33 45 -33 c 0
 83.3281633921 -33 97 -14.0697646968 97 39 c 2
 97 381 l 1
 15 381 l 1
 15 496 l 1
 97 496 l 1
 97 578 l 2
 97 688.707625499 147.96585119 729 288 729 c 2
 357 729 l 1
 357 608 l 1
 315 608 l 2
 261.255990186 608 249 599.829339876 249 564 c 2
 249 496 l 1
 357 496 l 1
 357 381 l 1
 249 381 l 1
 249 -16 l 2
EndSplineSet
EndChar

StartChar: integral
Encoding: 280 8747 152
Width: 486
GlyphClass: 1
Flags: W
HStem: -174 144<81.7981 141.977> 536 144<344.728 408.669>
VStem: 41 113<-104.691 -42.1501> 171.937 135.063<208.089 559.264> 180 135.063<-53.2641 298.107> 333 112<548.138 610.118>
LayerCount: 2
Fore
SplineSet
315 118 m 0xf4
 315.042201811 114.328442427 315.063302626 110.692054945 315.063302626 107.090806433 c 0
 315.063302626 -81.0232642285 257.488179835 -174 141 -174 c 0
 91.7686069425 -174 41 -128.308253752 41 -84 c 0
 42.3210163379 -53.6166242281 66.8123303522 -30 97 -30 c 0
 128.915439941 -30 154 -54.6444800578 154 -86 c 0
 154 -92.6666666667 153 -99 151 -105 c 1
 171.807698232 -95.2081420084 180 -64.9813734168 180 2 c 0xec
 180 84.594483379 172 305.405516621 172 388 c 0
 171.957798189 391.671557573 171.936697374 395.307945055 171.936697374 398.909193567 c 0
 171.936697374 587.023264229 229.511820165 680 346 680 c 0
 399.944069504 680 445 639.040063185 445 590 c 0
 443.617286346 559.580299601 419.163642315 536 389 536 c 0
 357.371360294 536 333 560.371360294 333 592 c 0
 333 598.666666667 334 605 336 611 c 1
 316.666666667 601.666666667 307 566 307 504 c 0
 307 420.689775417 315 201.310224583 315 118 c 0xf4
EndSplineSet
EndChar

StartChar: approxequal
Encoding: 281 8776 153
Width: 532
GlyphClass: 1
Flags: W
HStem: 59 123<285.73 378.468> 118 125<152.296 244.804> 257 123<286.967 378.386> 317 124<152.326 244.81>
VStem: 41 104<92.4423 113.571 291.442 312.249> 387 104<187.655 208.558 385.733 406.49>
LayerCount: 2
Fore
SplineSet
185 118 m 0x4c
 158.107443174 118 146.124363239 99.7258030996 145 57 c 1
 41 95 l 1
 45.6666666667 140.333333333 58 176.333333333 78 203 c 0
 97.9999999998 229.666666667 130.333333333 243 175 243 c 0x4c
 245.418748646 243 276.581251354 182 347 182 c 0
 373.067271207 182 385.891515217 201.877578216 387 244 c 1
 491 206 l 1
 480.722669662 104.694886664 439.690526535 59 359 59 c 0x8c
 286.557743003 59 257.442256997 118 185 118 c 0x4c
185 317 m 0x1c
 158.107443174 317 146.124363239 298.7258031 145 256 c 1
 41 294 l 1
 51.3683553273 394.721166037 93.5545032936 441 175 441 c 0x1c
 245.418748646 441 276.581251354 380 347 380 c 0x2c
 372.883675331 380 385.887312055 399.830546004 387 441 c 1x1c
 491 404 l 1
 480.620673099 303.172252964 439.159874519 257 359 257 c 0x2c
 286.510544046 257 257.489455954 317 185 317 c 0x1c
EndSplineSet
EndChar

StartChar: notequal
Encoding: 282 8800 154
Width: 594
GlyphClass: 1
Flags: W
HStem: 0 21G<47 214.167> 96 129<41 114 357 553> 283 127<41 245 487 553> 475 20G<380.118 547>
LayerCount: 2
Fore
SplineSet
47 0 m 1
 114 96 l 1
 41 96 l 1
 41 225 l 1
 204 225 l 1
 245 283 l 1
 41 283 l 1
 41 410 l 1
 335 410 l 1
 394 495 l 1
 547 495 l 1
 487 410 l 1
 553 410 l 1
 553 283 l 1
 397 283 l 1
 357 225 l 1
 553 225 l 1
 553 96 l 1
 268 96 l 1
 200 0 l 1
 47 0 l 1
EndSplineSet
EndChar

StartChar: lessequal
Encoding: 283 8804 155
Width: 594
GlyphClass: 1
Flags: W
HStem: 0 128<41 553> 490 20G<470.419 553>
LayerCount: 2
Fore
SplineSet
41 0 m 1
 41 128 l 1
 553 128 l 1
 553 0 l 1
 41 0 l 1
553 136 m 1
 41 260 l 1
 41 386 l 1
 553 510 l 1
 553 381 l 1
 216 324 l 1
 553 265 l 1
 553 136 l 1
EndSplineSet
EndChar

StartChar: greaterequal
Encoding: 284 8805 156
Width: 594
GlyphClass: 1
Flags: W
HStem: 0 128<41 553> 490 20G<41 123.581>
LayerCount: 2
Fore
SplineSet
41 0 m 1
 41 128 l 1
 553 128 l 1
 553 0 l 1
 41 0 l 1
41 136 m 1
 41 265 l 1
 378 324 l 1
 41 381 l 1
 41 510 l 1
 553 386 l 1
 553 260 l 1
 41 136 l 1
EndSplineSet
EndChar

StartChar: lozenge
Encoding: 285 9674 157
Width: 607
GlyphClass: 1
Flags: W
DStem2: 41 313 179 313 0.546521 0.837445<75.4199 302.012> 179 313 41 313 0.545572 -0.838064<0 226.591> 304 716 304 502 0.545061 -0.838396<179.417 405.461> 304 124 304 -91 0.544112 0.839013<0 226.043>
LayerCount: 2
Fore
SplineSet
304 124 m 1
 428 313 l 1
 304 502 l 1
 179 313 l 1
 304 124 l 1
304 -91 m 1
 41 313 l 1
 304 716 l 1
 566 313 l 1
 304 -91 l 1
EndSplineSet
EndChar

StartChar: summation
Encoding: 286 8721 158
Width: 617
GlyphClass: 1
Flags: W
HStem: -162 128<211 576> 540 128<211 576>
DStem2: 211 540 41 540 0.641239 -0.767341<0 262.423> 41 -34 211 -34 0.638606 0.769534<108.563 372.975>
LayerCount: 2
Fore
SplineSet
41 -162 m 1
 41 -34 l 1
 278 254 l 1
 41 540 l 1
 41 668 l 1
 576 668 l 1
 576 540 l 1
 211 540 l 1
 450 254 l 1
 211 -34 l 1
 576 -34 l 1
 576 -162 l 1
 41 -162 l 1
EndSplineSet
EndChar

StartChar: minus
Encoding: 287 8722 159
Width: 594
GlyphClass: 1
Flags: W
HStem: 184 128<41 553>
LayerCount: 2
Fore
SplineSet
41 184 m 1
 41 312 l 1
 553 312 l 1
 553 184 l 1
 41 184 l 1
EndSplineSet
EndChar

StartChar: uni2215
Encoding: 288 8725 160
Width: 651
GlyphClass: 1
Flags: W
HStem: 0 21G<15 182.012> 648 20G<468.988 636>
VStem: 15 153<0 153> 483 153<515 668>
DStem2: 15 0 168 0 0.573791 0.819001<87.7901 815.627>
LayerCount: 2
Fore
SplineSet
15 0 m 1
 483 668 l 1
 636 668 l 1
 168 0 l 1
 15 0 l 1
EndSplineSet
EndChar

StartChar: uni2219
Encoding: 289 8729 161
Width: 277
GlyphClass: 1
Flags: W
HStem: 157 194<78.5928 198.902>
VStem: 41 195<194.593 314.672>
LayerCount: 2
Fore
SplineSet
236 255 m 0
 236 200.838557533 192.608774686 157 139 157 c 0
 85.1048126482 157 41 201.104812648 41 255 c 0
 41 308.971904664 83.9036806553 351 139 351 c 0
 193.793921915 351 236 309.229036122 236 255 c 0
EndSplineSet
EndChar

StartChar: radical
Encoding: 290 8730 162
Width: 709
GlyphClass: 1
Flags: W
HStem: -162 21G<284.373 454.277> 93 132<41 183> 648 20G<518.679 668>
VStem: 524 144<524 668>
DStem2: 354 29 449 -162 0.255124 0.966908<0 661.226>
LayerCount: 2
Fore
SplineSet
293 -162 m 1
 183 93 l 1
 41 93 l 1
 41 225 l 1
 274 225 l 1
 354 29 l 1
 524 668 l 1
 668 668 l 1
 449 -162 l 1
 293 -162 l 1
EndSplineSet
EndChar

StartChar: infinity
Encoding: 291 8734 163
Width: 749
GlyphClass: 1
Flags: W
HStem: 97 107<172.156 277.709 471.027 576.89> 306 106<171.435 277.812 470.134 577.697>
VStem: 41 120<216.397 295.136> 588 120<216.355 295.263>
LayerCount: 2
Fore
SplineSet
441 256 m 1
 469.802442273 220.420512484 497.591001861 204 529 204 c 0
 563.249225033 204 588 225.814242344 588 256 c 0
 588 285.751287536 563.296570793 306 527 306 c 0
 498.415180675 306 468.927697041 288.856114166 441 256 c 1
161 256 m 0
 161 225.814242345 185.750774968 204 220 204 c 0
 251.408998139 204 279.197557724 220.420512483 308 256 c 1
 279.380984859 289.669429579 251.292403735 306 222 306 c 0
 186.325932758 306 161 285.241038723 161 256 c 0
374 176 m 1
 322.019722442 120.666156148 273.788695356 97 213 97 c 0
 113.946378931 97 41 164.008882971 41 255 c 0
 41 344.488364596 116.681833319 412 217 412 c 0
 275.451752724 412 325.252272773 387.892741887 374 336 c 1
 424.176601569 387.744620367 474.602259227 412 532 412 c 0
 632.615282866 412 708 344.753405739 708 255 c 0
 708 163.741091346 635.345141066 97 536 97 c 0
 474.952772536 97 425.606717314 121.063817053 374 176 c 1
EndSplineSet
EndChar

StartChar: uni03A9
Encoding: 292 937 164
Width: 656
GlyphClass: 1
Flags: W
HStem: 0 115<35 172 484 621> 564 116<246.584 409.146>
VStem: 35 121<312.265 474.027> 353 268<0 115> 499 122<309.471 473.997>
LayerCount: 2
Fore
SplineSet
156 392 m 0xe8
 156 307.804806637 219.083275937 235.280496205 303 223 c 1
 303 0 l 1
 35 0 l 1
 35 115 l 1
 172 115 l 1
 172 139 l 1
 86.8098328117 193.465844595 35 286.874813241 35 386 c 0
 35 548.779196754 165.774473983 680 328 680 c 0
 490.225526017 680 621 548.779196754 621 386 c 0xe8
 621 285.709004377 569.434932988 192.741328815 484 139 c 1
 484 115 l 1
 621 115 l 1
 621 0 l 1
 353 0 l 1
 353 223 l 1xf0
 437.107176872 235.015310981 499 306.658373369 499 392 c 0
 499 487.962997164 423.405072762 564 328 564 c 0
 231.899845368 564 156 488.100154632 156 392 c 0xe8
EndSplineSet
EndChar

StartChar: estimated
Encoding: 293 8494 165
Width: 604
GlyphClass: 1
Flags: W
HStem: -12 70<216.553 390.114> 249 66<178 426> 440 70<213.687 389.085>
VStem: 41 137<147.142 249 315 350.513>
LayerCount: 2
Fore
SplineSet
303 440 m 0
 255.729549901 440 211.975636009 423.898559688 178 394 c 1
 178 315 l 1
 426 315 l 1
 426 394 l 1
 391.333333333 424.666666667 350.333333333 440 303 440 c 0
518 103 m 1
 469.341640899 30.7075807655 389.497033381 -12 303 -12 c 0
 157.67094607 -12 41 104.225637116 41 249 c 0
 41 392.955864586 158.492580377 510 303 510 c 0
 446.945954175 510 563 393.499592461 563 249 c 1
 178 249 l 1
 178 104 l 1
 211.975636008 74.1014403126 255.729549901 58 303 58 c 0
 360.006648816 58 414.024930359 83.7229912109 450 128 c 1
 518 103 l 1
EndSplineSet
EndChar

StartChar: partialdiff
Encoding: 294 8706 166
Width: 597
GlyphClass: 1
Flags: W
HStem: -15.6208 122.621<234.231 359.095> 315 120<233.773 359.182> 561.078 118.922<172 327.943>
VStem: 41 151<148.894 274.582> 399 157<165.399 398.006>
LayerCount: 2
Fore
SplineSet
192 211 m 0
 192 153.094784868 238.094784868 107 296 107 c 0
 353.614957875 107 399 152.825673602 399 211 c 0
 399 269.817806489 354.252250657 315 296 315 c 0
 237.449359688 315 192 269.550640312 192 211 c 0
172 680 m 1
 443.774097695 680 556 573.326941819 556 315 c 0
 556 105.715005003 459.128133045 -15.620802801 292.039550062 -15.620802801 c 0
 151.92365121 -15.620802801 41 84.9551045886 41 212 c 0
 41 336.390748863 140.051445088 435 265 435 c 0
 339.227879502 435 403.191247647 406.45137806 442 356 c 1
 433.168777342 495.091756875 357.445329212 561.078325024 206.660621959 561.078325024 c 0
 195.533816305 561.078325024 183.982588312 560.718955299 172 560 c 1
 172 680 l 1
EndSplineSet
EndChar

StartChar: uni0394
Encoding: 295 916 167
Width: 715
GlyphClass: 1
Flags: W
HStem: 0 115<229 485> 660 20G<347.706 366.324>
DStem2: 41 0 229 115 0.421425 0.906863<183.517 512.239> 357 680 357 418 0.422521 -0.906353<237.465 566.172>
LayerCount: 2
Fore
SplineSet
229 115 m 1
 485 115 l 1
 357 418 l 1
 229 115 l 1
41 0 m 1
 357 680 l 1
 674 0 l 1
 41 0 l 1
EndSplineSet
EndChar

StartChar: product
Encoding: 296 8719 168
Width: 614
GlyphClass: 1
Flags: W
HStem: -161 21G<41 169 445 573> 552 116<169 445>
VStem: 41 128<-161 552> 445 128<-161 552>
LayerCount: 2
Fore
SplineSet
41 -161 m 1
 41 668 l 1
 573 668 l 1
 573 -161 l 1
 445 -161 l 1
 445 552 l 1
 169 552 l 1
 169 -161 l 1
 41 -161 l 1
EndSplineSet
EndChar

StartChar: pi
Encoding: 297 960 169
Width: 626
GlyphClass: 1
Flags: W
HStem: 0 105<518.975 602> 380 116<13 104 232 386 514 602>
VStem: 104 128<0 380> 386 128<109.504 380>
LayerCount: 2
Fore
SplineSet
524 0 m 2
 415.562190158 0 386 25.2778147728 386 118 c 2
 386 380 l 1
 232 380 l 1
 232 0 l 1
 104 0 l 1
 104 380 l 1
 13 380 l 1
 13 496 l 1
 602 496 l 1
 602 380 l 1
 514 380 l 1
 514 151 l 2
 514 114.824580951 525.746781572 105 569 105 c 2
 602 105 l 1
 602 0 l 1
 524 0 l 2
EndSplineSet
EndChar

StartChar: hungarumlaut
Encoding: 298 733 170
Width: 490
GlyphClass: 1
Flags: W
HStem: 574 153<146.003 151 349.003 354>
LayerCount: 2
Fore
SplineSet
392 727 m 0
 424.267112599 727 448 703.267112599 448 671 c 0
 448 652.207256235 441.441189252 637.708832477 429 629 c 2
 354 574 l 1
 240 574 l 1
 349 707 l 2
 360.333333333 720.333333333 374.666666667 727 392 727 c 0
189 727 m 0
 221.267112599 727 245 703.267112599 245 671 c 0
 245 652.207256235 238.441189252 637.708832477 226 629 c 2
 151 574 l 1
 37 574 l 1
 146 707 l 2
 157.333333333 720.333333333 171.666666667 727 189 727 c 0
EndSplineSet
EndChar

StartChar: tilde
Encoding: 299 732 171
Width: 444
GlyphClass: 1
Flags: W
HStem: 569 79<226.992 326.099> 607 82<130.636 225.385>
LayerCount: 2
Fore
SplineSet
407 649 m 0x40
 407 609.798435026 349.882190964 569 295 569 c 0x80
 240.806688794 569 223.193311206 607 169 607 c 0
 146.306432191 607 129.814368783 594.343300176 126 574 c 1
 37 574 l 1
 49.2808068848 649.049375407 92.7053988336 689 162 689 c 0x40
 221.191343595 689 226.808656405 648 286 648 c 0x80
 323.116949917 648 327.883050083 689 365 689 c 0
 389.750527428 689 407 672.571930884 407 649 c 0x40
EndSplineSet
EndChar

StartChar: endash
Encoding: 300 8211 172
Width: 508
GlyphClass: 1
Flags: W
HStem: 185 128<41 467>
LayerCount: 2
Fore
SplineSet
41 185 m 1
 41 313 l 1
 467 313 l 1
 467 185 l 1
 41 185 l 1
EndSplineSet
EndChar

StartChar: emdash
Encoding: 301 8212 173
Width: 842
GlyphClass: 1
Flags: W
HStem: 185 128<41 801>
LayerCount: 2
Fore
SplineSet
41 185 m 1
 41 313 l 1
 801 313 l 1
 801 185 l 1
 41 185 l 1
EndSplineSet
EndChar

StartChar: trademark
Encoding: 302 8482 174
Width: 935
GlyphClass: 1
Flags: W
HStem: 301 367<162 271 415 522 787 894> 575 93<41 162 271 391>
VStem: 162 109<301 575> 415 107<301 558> 787 107<301 558>
DStem2: 654 432 703 301 0.310675 0.950516<0 161.085>
LayerCount: 2
Fore
SplineSet
162 301 m 1xb8
 162 575 l 1
 41 575 l 1
 41 668 l 1
 391 668 l 1
 391 575 l 1
 271 575 l 1x78
 271 301 l 1
 162 301 l 1xb8
415 301 m 1xb8
 415 668 l 1xb8
 588 668 l 1
 654 432 l 1
 721 668 l 1x78
 894 668 l 1
 894 301 l 1
 787 301 l 1
 787 558 l 1
 703 301 l 1
 606 301 l 1
 522 558 l 1
 522 301 l 1
 415 301 l 1xb8
EndSplineSet
EndChar

StartChar: uni2113
Encoding: 303 8467 175
Width: 504
GlyphClass: 1
Flags: W
HStem: -12 122<272.382 384.988> 573 107<266.532 331.816>
VStem: 106 151<125.256 157 265 279.497 373 566.986> 339 124<444.212 569.198>
LayerCount: 2
Fore
SplineSet
299 573 m 0
 269.735728734 573 257 551.167322171 257 501 c 2
 257 373 l 1
 311.666666667 414.333333334 339 463.666666667 339 521 c 0
 339 555.666666667 325.666666667 573 299 573 c 0
455 52 m 1
 409.567717001 10.6979245459 349.276354926 -12 285 -12 c 0
 173.922191814 -12 113.235886033 40.8886240326 106 144 c 1
 106 157 l 1
 41 112 l 1
 41 218 l 1
 106 265 l 1
 106 452 l 2
 106 603.332103676 170.226176307 680 297 680 c 0
 401.790283537 680 463 625.427481708 463 532 c 0
 463 442.406096947 412.198290129 376.314552067 257 264 c 1
 257 191 l 2
 257 134.789886095 275.974974542 110 319 110 c 0
 345.95643947 110 372.820350326 120.54153464 398 141 c 1
 455 52 l 1
EndSplineSet
EndChar

StartChar: Lslash
Encoding: 304 321 176
Width: 586
GlyphClass: 1
Flags: W
HStem: 0 139<251 571> 416 122<289 411> 648 20G<93 251>
VStem: 93 158<139 226 441 668>
DStem2: 13 300 93 226 0.858253 0.513227<0 30.6815 276.629 401.119>
LayerCount: 2
Fore
SplineSet
93 0 m 1
 93 226 l 1
 13 178 l 1
 13 300 l 1
 93 347 l 1
 93 668 l 1
 251 668 l 1
 251 441 l 1
 411 538 l 1
 411 416 l 1
 251 321 l 1
 251 139 l 1
 571 139 l 1
 571 0 l 1
 93 0 l 1
EndSplineSet
EndChar

StartChar: lslash
Encoding: 305 322 177
Width: 322
GlyphClass: 1
Flags: W
HStem: 0 124<218.012 319> 485 20G<286.077 319> 648 20G<59 212>
VStem: 59 153<133.955 228 440 668>
LayerCount: 2
Fore
SplineSet
212 179 m 2
 212 135.502361631 225.59370011 124 277 124 c 2
 319 124 l 1
 319 0 l 1
 224 0 l 2
 94.7971225204 0 59 30.1563638202 59 139 c 2
 59 228 l 1
 5 195 l 1
 5 317 l 1
 59 349 l 1
 59 668 l 1
 212 668 l 1
 212 440 l 1
 319 505 l 1
 319 383 l 1
 212 319 l 1
 212 179 l 2
EndSplineSet
EndChar

StartChar: oslash
Encoding: 248 248 178
Width: 573
GlyphClass: 1
Flags: W
HStem: -12 118<224.392 351.118> 392 118<222.189 341.046>
VStem: 24 155<195.542 346.667> 394 155<153.251 315.242>
DStem2: 36 22 92 -26 0.653148 0.75723<0.229281 74.3581 227.563 451.228 600.239 662.943>
AnchorPoint: "Anchor-0" 287 496 basechar 0
LayerCount: 2
Fore
SplineSet
287 106 m 0
 356.702034742 106 394 156.195392497 394 250 c 0
 394 275.962236487 391.465733997 296.869931014 386 316 c 1
 223 126 l 1
 240.333333333 112.666666667 261.666666667 106 287 106 c 0
185 194 m 1
 342 377 l 1
 326 387 307.666666667 392 287 392 c 0
 257 392 231.5 381.333333333 210.5 360 c 0
 189.5 338.666666667 179 302 179 250 c 0
 179 228.666666667 181 210 185 194 c 1
549 250 m 0
 549 90.6008471981 446.399152802 -12 287 -12 c 0
 233.164495663 -12 180.442646502 1.79967863945 138 27 c 1
 92 -26 l 1
 36 22 l 1
 82 75 l 1
 43.5587657652 120.559981316 24 179.573498711 24 250 c 0
 24 409.310850674 125.850947203 510 287 510 c 0
 338.376866803 510 386.161977669 498.395044504 427 476 c 1
 469 524 l 1
 525 476 l 1
 486 431 l 1
 527.650048482 385.041325813 549 323.702576214 549 250 c 0
EndSplineSet
EndChar

StartChar: Oslash
Encoding: 216 216 179
Width: 763
GlyphClass: 1
Flags: W
HStem: -12 130<296.643 464.738> 549 130<296.231 465.389>
VStem: 35 167<223.422 443.974> 560 168<223.447 446.017>
DStem2: 70 36 126 -12 0.652053 0.758174<0.122628 79.6155 238.95 621.956 777.688 848.091>
AnchorPoint: "Anchor-0" 382 668 basechar 0
LayerCount: 2
Fore
SplineSet
272 157 m 1
 303.394255323 131.065615168 339.575958866 118 380 118 c 0
 488.692769554 118 560 203.568676535 560 334 c 0
 560 383.333333335 550.666666667 425.000000002 532 459 c 1
 272 157 l 1
380 549 m 0
 273.145952057 549 202 463.065282628 202 334 c 0
 202 291.480899768 210.212317213 251.445853355 226 217 c 1
 483 516 l 1
 454.333333333 538 420 549 380 549 c 0
728 334 m 0
 728 127.421305208 587.772791293 -12 380 -12 c 0
 303.572533927 -12 232.8306799 8.1128800665 176 46 c 1
 126 -12 l 1
 70 36 l 1
 120 95 l 1
 64.791591956 155.729248849 35 239.496195643 35 334 c 0
 35 540.024277468 173.975722532 679 380 679 c 0
 455.47564355 679 522.871067752 660.959810693 578 626 c 1
 623 679 l 1
 679 631 l 1
 635 579 l 1
 695.469765484 517.155921663 728 431.457992025 728 334 c 0
EndSplineSet
EndChar

StartChar: Thorn
Encoding: 222 222 180
Width: 615
GlyphClass: 1
Flags: W
HStem: 0 21G<44 203> 128 141<203 396.721> 425 137<203 396.627> 647 20G<44 203>
VStem: 44 159<0 128 269 425 562 667> 426 167<294.825 402.225>
LayerCount: 2
Fore
SplineSet
426 346 m 0
 426 404.351311543 392.021145578 425 296 425 c 2
 203 425 l 1
 203 269 l 1
 296 269 l 2
 390.987319565 269 426 289.73827995 426 346 c 0
593 343 m 0
 593 193.746329728 500.649341499 128 291 128 c 2
 203 128 l 1
 203 0 l 1
 44 0 l 1
 44 667 l 1
 203 667 l 1
 203 562 l 1
 291 562 l 2
 500.397822821 562 593 494.848090059 593 343 c 0
EndSplineSet
EndChar

StartChar: ae
Encoding: 230 230 181
Width: 883
GlyphClass: 1
Flags: W
HStem: -12 118<536.284 690.1> -12 103<195.246 322.799> 209 90<208.992 353 493 719> 396 114<535.312 681.306> 407 103<207.101 335.57>
VStem: 24 157<104.177 187.356> 353 139<150.668 209 300 352.478> 719 142.692<299 353.066>
AnchorPoint: "Anchor-0" 447 496 basechar 0
LayerCount: 2
Fore
SplineSet
181 148 m 0x67
 181 112.477476296 207.375848082 91 251 91 c 0
 320.235044392 91 356 128.468048732 356 201 c 2
 356 209 l 1
 350.686050992 209.064804256 345.532688996 209.097186572 340.533607996 209.097186572 c 0
 225.602693183 209.097186572 181 192.015525214 181 148 c 0x67
719 299 m 1
 717.762910302 358.380305483 675.101401056 396 609 396 c 0x37
 544.082174516 396 500.335704142 359.73155875 492 299 c 1
 719 299 l 1
405 67 m 1
 359.087177167 12.1285775898 298.613020676 -12 207 -12 c 0
 99.8078963459 -12 24 48.8948675565 24 135 c 0
 24 245.083919248 133.499336772 300 353 300 c 1
 353 329 l 2
 353 382.692996859 327.134855632 407 270 407 c 0
 225.312690129 407 194.00588722 385.522077074 184 348 c 1
 56 394 l 1
 92.3193999286 466.638799859 177.172782964 510 283 510 c 0x6f
 358.938629341 510 412.047425398 494.455962129 447 462 c 1
 492.333333333 494 545 510 605 510 c 0
 759.756813422 510 861.691973196 400.032861292 861.691973196 233.081987761 c 0
 861.691973196 225.147778767 861.461240045 217.117824799 861 209 c 1
 493 209 l 1
 496.545582997 147.543228048 542.525466468 106 607 106 c 0
 650.637751024 106 686.512579556 119.013418193 709 143 c 1
 829 99 l 1
 781.403156169 28.2149502007 702.784740011 -12 612 -12 c 0xb7
 524.666666667 -12 455.666666667 14.3333333333 405 67 c 1
EndSplineSet
EndChar

StartChar: eth
Encoding: 240 240 182
Width: 589
GlyphClass: 1
Flags: W
HStem: -12 113<221.51 349.893> 338 114<221.881 353.023> 604 122<163 273.333>
VStem: 24 156<142.54 295.182> 394 160<167.805 383.24 403 471>
DStem2: 223 530 271 483 0.705367 0.708842<0.542056 74.9531 220.453 287.627>
LayerCount: 2
Fore
SplineSet
180 220 m 0
 180 146.958958748 220.938232162 101 286 101 c 0
 351.700467134 101 394 147.607818621 394 220 c 0
 394 291.381623515 351.332333387 338 286 338 c 0
 221.812639078 338 180 291.453854611 180 220 c 0
554 318 m 0
 554 107.627264095 456.848161281 -12 286 -12 c 0
 129.78462536 -12 24 81.6718819982 24 220 c 0
 24 349.278396038 125.393307359 452 253 452 c 0
 314.457663571 452 359.524400254 436.557551766 396 403 c 1
 395.333333333 463.666666667 374.666666667 511.666666666 334 547 c 1
 271 483 l 1
 223 530 l 1
 276 583 l 1
 244 597 206.333333333 604 163 604 c 1
 163 726 l 1
 245.820840797 726 314.028154056 710.183811418 370 678 c 1
 426 734 l 1
 474 686 l 1
 426 639 l 1
 505.759535763 579.180348178 554 458.202308958 554 318 c 0
EndSplineSet
EndChar

StartChar: thorn
Encoding: 254 254 183
Width: 596
GlyphClass: 1
Flags: W
HStem: -161 21G<50 202> -12 118<268.667 365.704> 392 118<268.227 365.33> 648 20G<50 202>
VStem: 50 152<-161 70 428 668> 50 145<156.587 343.134> 414 158<157.745 336.19>
LayerCount: 2
Fore
SplineSet
305 392 m 0xf6
 234.874783565 392 195 340.88777743 195 251 c 0
 195 159.353385795 235.474982327 106 305 106 c 0
 370.464789167 106 414 162.31619016 414 247 c 0
 414 332.10849195 368.978107741 392 305 392 c 0xf6
353 -12 m 0
 292.625732347 -12 231.17891914 21.3684680992 202 70 c 1
 202 -161 l 1
 50 -161 l 1
 50 668 l 1
 202 668 l 1
 202 428 l 1xfa
 230.733828234 477.086956566 291.341993582 510 353 510 c 0
 484.953351054 510 572 405.464526609 572 247 c 0
 572 89.721094147 485.988727343 -12 353 -12 c 0
EndSplineSet
EndChar

StartChar: multiply
Encoding: 215 215 184
Width: 539
GlyphClass: 1
Flags: W
DStem2: 44 112 135 22 0.706133 0.708079<0.531059 192.158 318.904 513.89> 270 337 180 248 0.706133 -0.708079<-195.692 -0.533004 126.746 317.667>
LayerCount: 2
Fore
SplineSet
135 22 m 1
 44 112 l 1
 180 248 l 1
 41 385 l 1
 132 476 l 1
 270 337 l 1
 407 476 l 1
 498 385 l 1
 359 248 l 1
 495 112 l 1
 404 22 l 1
 270 158 l 1
 135 22 l 1
EndSplineSet
EndChar

StartChar: divide
Encoding: 247 247 185
Width: 594
GlyphClass: 1
Flags: W
HStem: -12 159<243.93 350.07> 186 128<41 553> 351 159<243.93 350.07>
VStem: 218 158<12.8519 122.312 375.852 485.562>
LayerCount: 2
Fore
SplineSet
376 68 m 0
 376 23.9392634053 340.509977387 -12 297 -12 c 0
 253.490022612 -12 218 23.9392634046 218 68 c 0
 218 111.130025197 253.869974803 147 297 147 c 0
 340.130025197 147 376 111.130025197 376 68 c 0
41 186 m 1
 41 314 l 1
 553 314 l 1
 553 186 l 1
 41 186 l 1
376 431 m 0
 376 386.939263405 340.509977388 351 297 351 c 0
 253.490022612 351 218 386.939263405 218 431 c 0
 218 474.777507566 253.222492434 510 297 510 c 0
 340.777507566 510 376 474.777507566 376 431 c 0
EndSplineSet
EndChar

StartChar: OE
Encoding: 306 338 186
Width: 1061
GlyphClass: 1
Flags: W
HStem: -12 130<296.741 466.344> 0 139<683 1039> 275 138<683 901> 528 140<683 1039> 549 131<296.647 467.911>
VStem: 35 167<223.45 444.405> 561 122<221.535 275 413 446.283>
LayerCount: 2
Fore
SplineSet
202 334 m 0xae
 202 204.06806736 273.324926192 118 381 118 c 0
 489.692769554 118 561 203.568676535 561 334 c 0
 561 464.589957656 490.33112734 549 381 549 c 0
 272.688338033 549 202 464.095012977 202 334 c 0xae
35 334 m 0
 35 540.861302765 174.138697235 680 381 680 c 0xae
 449.000000002 680 509.000000002 665.666666667 561 637 c 1
 561 668 l 1
 1039 668 l 1
 1039 528 l 1
 683 528 l 1
 683 413 l 1
 901 413 l 1
 901 275 l 1
 683 275 l 1
 683 139 l 1
 1039 139 l 1
 1039 0 l 1
 561 0 l 1x76
 561 31 l 1
 509 2.33333333333 449 -12 381 -12 c 0
 173.842013214 -12 35 126.842013214 35 334 c 0
EndSplineSet
EndChar

StartChar: oe
Encoding: 307 339 187
Width: 937
GlyphClass: 1
Flags: W
HStem: -12 118<222.45 350.682 590.785 744.725> 209 90<547 773> 392 118<222.34 351.047 585.113 740.736>
VStem: 24 155<153.238 345.858> 394 153<152.474 209 299 345.84> 773 142.683<299 352.58>
LayerCount: 2
Fore
SplineSet
287 106 m 0
 356.702034742 106 394 156.195392497 394 250 c 0
 394 341.703100359 356.10022351 392 287 392 c 0
 216.915082386 392 179 342.148687974 179 250 c 0
 179 156.529632133 216.897224099 106 287 106 c 0
773 299 m 1
 771.758146768 358.608955144 729.741405642 396 664 396 c 0
 598.495263764 396 555.411065792 360.280622195 547 299 c 1
 773 299 l 1
473 55 m 1
 425.853963448 11.6766150611 360.12485298 -12 287 -12 c 0
 126.578612337 -12 24 90.1885795904 24 250 c 0
 24 409.310850674 125.850947203 510 287 510 c 0
 361.439566906 510 427.807495827 485.641558003 475 441 c 1
 523.787756696 485.722110305 588.880649356 510 660 510 c 0
 813.450477784 510 915.683395988 399.162839426 915.683395988 232.797489154 c 0
 915.683395988 224.952312341 915.455521666 217.017181326 915 209 c 1
 547 209 l 1
 551.760612157 147.112041961 597.263260541 106 661 106 c 0
 707.009020881 106 741.341809509 118.454050777 763 143 c 1
 884 99 l 1
 836.226456456 27.9521660131 757.761842124 -12 666 -12 c 0
 585.333333333 -12 521 10.3333333332 473 55 c 1
EndSplineSet
EndChar

StartChar: Aring
Encoding: 197 197 191
Width: 690
GlyphClass: 2
Flags: W
HStem: 0 21G<5 183.723 506.277 685> 119 128<260 430> 776 85<304.587 383.723>
VStem: 212 85<689.56 768.413> 391 86<689.683 768.574>
DStem2: 247.104 639.231 344 501 0.35419 0.935173<-362.236 -94.9502> 442.601 640.011 344 501 0.35419 -0.935173<95.0763 363.071> 442.601 640.011 430 247 0.35419 -0.935173<95.0763 363.071 498.003 537.862>
AnchorPoint: "Anchor-2" 654 0 basechar 0
AnchorPoint: "Anchor-1" 345 0 basechar 0
AnchorPoint: "Anchor-0" 345 796 basechar 0
LayerCount: 2
Fore
SplineSet
477 729 m 0
 477 695.882471458 465.122098561 665.155240482 442.600543607 640.011212926 c 1
 685 0 l 1
 513 0 l 1
 473 119 l 1
 217 119 l 1
 177 0 l 1
 5 0 l 1
 247.10390291 639.230858277 l 1
 224.155927131 664.45385696 212 695.539492885 212 729 c 0
 212 801.638213498 271.361786502 861 344 861 c 0
 417.631679565 861 477 802.078057914 477 729 c 0
260 247 m 1
 430 247 l 1
 344 501 l 1
 260 247 l 1
297 729 m 0
 297 703.389407887 318.389407887 682 344 682 c 0
 370.259482008 682 391 702.740517992 391 729 c 0
 391 755.898087459 370.898087459 776 344 776 c 0
 317.740517992 776 297 755.259482008 297 729 c 0
EndSplineSet
EndChar

StartChar: Ccedilla
Encoding: 199 199 202
Width: 673
GlyphClass: 2
Flags: W
HStem: -187 50<259.881 368.861> -12 130<366.504 457.54> 550 130<289.701 454.131>
VStem: 35 167<218.986 445.274> 370 94<-133.501 -85.8689>
AnchorPoint: "Anchor-1" 357 -187 basechar 0
AnchorPoint: "Anchor-0" 357 668 basechar 0
LayerCount: 2
Fore
SplineSet
298.92981633 -90.0658511294 m 0
 288.08872557 -90.0658511294 278.565365284 -79.9643174182 278.565365284 -68.4650524007 c 0
 278.565365284 -65.0457988898 279.400475236 -61.7991683373 281 -59 c 2
 312.197647184 -8.60380070205 l 1
 138.296381817 13.0866880169 35 140.75636115 35 334 c 0
 35 545.773755174 166.122747836 680 373 680 c 0
 495.065486327 680 593.994565433 624.036469849 647 525 c 1
 507 474 l 1
 480.791807871 522.842539878 431.122242648 550 368 550 c 0
 268.603129922 550 202 463.335686367 202 334 c 0
 202 202.254178037 267.531027362 118 370 118 c 0
 435.319321648 118 486.280796657 144.916272012 512 193 c 1
 651 142 l 1
 596.002753797 44.3798879884 492.761660208 -12 369 -12 c 0
 368.166534188 -12 367.3344653 -11.9979768903 366.503793331 -11.9939306708 c 2
 344 -48 l 1
 353.333333333 -46.0000000001 364.666666667 -45 378 -45 c 0
 429.740558236 -45 464 -69.6986673181 464 -107 c 0
 464 -156.425266658 415.46261082 -187 337 -187 c 0
 306.515936245 -187 275.795600526 -182.461768587 249 -174 c 1
 265 -124 l 1
 279.607190184 -131.303595106 306.336474688 -137 326 -137 c 0
 354.551505849 -137 370 -127.520242226 370 -110 c 0
 370 -93.9601046873 355.826004868 -84 333 -84 c 0
 320.250355216 -84 311.679461114 -90.0658511294 298.92981633 -90.0658511294 c 0
EndSplineSet
EndChar

StartChar: ccedilla
Encoding: 231 231 203
Width: 520
GlyphClass: 2
Flags: W
HStem: -187 50<177.881 286.861> -11.9266 117.927<284.546 353.419> 392 118<223.009 349.345>
VStem: 24 155<155.633 345.113> 288 94<-133.501 -85.8689>
AnchorPoint: "Anchor-1" 275 -187 basechar 0
AnchorPoint: "Anchor-0" 280 496 basechar 0
LayerCount: 2
Fore
SplineSet
216.92981633 -90.0658511294 m 0
 206.08872557 -90.0658511294 196.565365284 -79.9643174182 196.565365284 -68.4650524007 c 0
 196.565365284 -65.0457988898 197.400475236 -61.7991683373 199 -59 c 2
 230.023319844 -8.88540640517 l 1
 101.36251209 8.70189131203 24 106.289814418 24 251 c 0
 24 406.742547128 125.26406575 510 278 510 c 0
 383.12104769 510 462.642132157 463.849370622 502 380 c 1
 375 334 l 1
 360.58478173 372.440582053 330.908423465 392 287 392 c 0
 218.633014744 392 179 339.889925059 179 250 c 0
 179 159.452103897 219.089077922 106 287 106 c 0
 327.500858503 106 357.628786529 121.910254126 376 153 c 1
 500 108 l 1
 458.148899105 32.6680183889 381.952089032 -9.7448308385 284.54588813 -11.926578992 c 1
 262 -48 l 1
 271.333333333 -46.0000000001 282.666666667 -45 296 -45 c 0
 347.740558236 -45 382 -69.6986673181 382 -107 c 0
 382 -156.425266658 333.46261082 -187 255 -187 c 0
 224.515936245 -187 193.795600526 -182.461768587 167 -174 c 1
 183 -124 l 1
 197.607190184 -131.303595106 224.336474688 -137 244 -137 c 0
 272.551505849 -137 288 -127.520242226 288 -110 c 0
 288 -93.9601046873 273.826004868 -84 251 -84 c 0
 238.250355216 -84 229.679461114 -90.0658511294 216.92981633 -90.0658511294 c 0
EndSplineSet
EndChar

StartChar: Eth
Encoding: 208 208 248
Width: 773
GlyphClass: 2
Flags: W
HStem: 0 133<289 482.705> 275 137<13 131 289 366> 537 131<289 478.989>
VStem: 131 158<133 275 412 537> 575 163<220.086 448.204>
AnchorPoint: "Anchor-1" 430 0 basechar 0
AnchorPoint: "Anchor-0" 420 668 basechar 0
LayerCount: 2
Fore
SplineSet
575 334 m 0
 575 477.088184604 509.775806884 537 354 537 c 2
 289 537 l 1
 289 412 l 1
 366 412 l 1
 366 275 l 1
 289 275 l 1
 289 133 l 1
 354 133 l 2
 510.970079543 133 575 191.23535752 575 334 c 0
738 334 m 0
 738 110.901653396 609.500180047 0 351 0 c 2
 131 0 l 1
 131 275 l 1
 13 275 l 1
 13 412 l 1
 131 412 l 1
 131 668 l 1
 351 668 l 2
 609.283261381 668 738 556.911135146 738 334 c 0
EndSplineSet
EndChar

StartChar: one.tf
Encoding: 316 -1 250
Width: 632
GlyphClass: 1
Flags: W
HStem: 0 124<101 253 404 532> 448 123<101 233.941> 648 20G<273.132 404>
VStem: 253 151<124 448>
LayerCount: 2
Fore
SplineSet
101 571 m 1
 223.03529703 571 257.264279325 588.660698312 289 668 c 1
 404 668 l 1
 404 124 l 1
 532 124 l 1
 532 0 l 1
 101 0 l 1
 101 124 l 1
 253 124 l 1
 253 448 l 1
 101 448 l 1
 101 571 l 1
EndSplineSet
Substitution2: "'pnum' Proportional Numbers lookup 13 subtable" one
Substitution2: "'aalt' Access All Alternates lookup 0 subtable" one
EndChar

StartChar: Aogonek
Encoding: 327 260 261
Width: 690
GlyphClass: 2
Flags: W
HStem: -174 76<592.661 684.315> 0 21G<5 183.723> 119 128<260 430> 648 20G<250.425 439.575>
VStem: 464 126<-94.7475 -39.3355>
DStem2: 5 0 177 0 0.35419 0.935173<60.9207 186.374 321.306 484.629> 432 668 344 501 0.35419 -0.935173<125.005 393> 685 0 473 119 0.35419 -0.935173<-558.903 -321.306 -186.374 -60.9207>
AnchorPoint: "Anchor-2" 654 0 basechar 0
AnchorPoint: "Anchor-1" 345 0 basechar 0
AnchorPoint: "Anchor-0" 345 668 basechar 0
LayerCount: 2
Fore
SplineSet
260 247 m 1
 430 247 l 1
 344 501 l 1
 260 247 l 1
685 -164 m 1
 670.715022447 -169.194537292 632.751867054 -174 606 -174 c 0
 520.274819052 -174 464 -138.729162707 464 -85 c 0
 464 -46.4075194924 492.690799554 -15.9235449663 544 0 c 1
 513 0 l 1
 473 119 l 1
 217 119 l 1
 177 0 l 1
 5 0 l 1
 258 668 l 1
 432 668 l 1
 685 0 l 1
 601.855143443 -41.5724282788 590 -50.0582151642 590 -68 c 0
 590 -87.4065758164 606.243250415 -98 636 -98 c 0
 658.623357382 -98 670.389120897 -91.4351465171 685 -89 c 1
 685 -164 l 1
EndSplineSet
EndChar

StartChar: aogonek
Encoding: 328 261 262
Width: 553
GlyphClass: 2
Flags: W
HStem: -174 76<427.661 519.315> -12 104<144.128 301.939> 220 90<230.901 353> 407 103<207.101 332.208>
VStem: 24 157<105.99 184.546> 299 126<-94.7475 -39.3355> 356 147<126.497 220 309.19 385.161>
AnchorPoint: "Anchor-2" 518 0 basechar 0
AnchorPoint: "Anchor-1" 277 0 basechar 0
AnchorPoint: "Anchor-0" 285 496 basechar 0
LayerCount: 2
Fore
SplineSet
181 145 m 0xfa
 181 113.632751651 209.571558785 92 251 92 c 0
 281 92 306 100 326 116 c 0
 346 132 356 162.666666667 356 208 c 2
 356 220 l 1
 226.161040081 208.495282032 181 189.140550569 181 145 c 0xfa
520 -164 m 1
 505.715022447 -169.194537292 467.751867054 -174 441 -174 c 0
 355.274819052 -174 299 -138.729162707 299 -85 c 0xfc
 299 -46.4075194924 327.690799554 -15.9235449663 379 0 c 1
 361 60 l 1
 326.300708057 11.6688433651 271.730874743 -12 195 -12 c 0
 95.1136804201 -12 24 48.7169435166 24 134 c 0
 24 239.79869345 124.017204555 293.303337832 353 310 c 1
 353 382.879218788 332.360568654 407 270 407 c 0
 225.312690129 407 194.00588722 385.522077074 184 348 c 1
 56 394 l 1
 92.3193999286 466.638799859 177.172782964 510 283 510 c 0
 433.657175664 510 503 444.754706193 503 303 c 2
 503 194 l 2xfa
 503 122.933873914 509.86473034 44.5951865021 520 0 c 1
 436.855143443 -41.5724282788 425 -50.0582151642 425 -68 c 0xfc
 425 -87.4065758164 441.243250415 -98 471 -98 c 0
 493.623357382 -98 505.389120897 -91.4351465171 520 -89 c 1
 520 -164 l 1
EndSplineSet
EndChar

StartChar: Eogonek
Encoding: 333 280 267
Width: 580
GlyphClass: 2
Flags: W
HStem: -174 76<429.661 521.315> 0 139<202 381 479.66 558> 274 139<202 419> 529 139<202 558>
VStem: 44 158<139 274 413 529> 301 126<-94.7475 -39.3355>
AnchorPoint: "Anchor-2" 522 0 basechar 0
AnchorPoint: "Anchor-1" 290 0 basechar 0
AnchorPoint: "Anchor-0" 303 668 basechar 0
LayerCount: 2
Fore
SplineSet
522 -164 m 1
 507.715022447 -169.194537292 469.751867054 -174 443 -174 c 0
 357.274819052 -174 301 -138.729162707 301 -85 c 0
 301 -46.4075194924 329.690799554 -15.9235449663 381 0 c 1
 44 0 l 1
 44 668 l 1
 558 668 l 1
 558 529 l 1
 202 529 l 1
 202 413 l 1
 419 413 l 1
 419 274 l 1
 202 274 l 1
 202 139 l 1
 558 139 l 1
 558 0 l 1
 522 0 l 1
 438.855143443 -41.5724282788 427 -50.0582151642 427 -68 c 0
 427 -87.4065758164 443.243250415 -98 473 -98 c 0
 495.623357382 -98 507.389120897 -91.4351465171 522 -89 c 1
 522 -164 l 1
EndSplineSet
EndChar

StartChar: eogonek
Encoding: 334 281 268
Width: 566
GlyphClass: 2
Flags: W
HStem: -164 76<311.661 403.315> 210 90<177 403> 397 113<220.611 365.558>
VStem: 24 153<151.86 210 300 354.529> 183 126<-84.7475 -29.2255> 403 141.688<300 353.444>
AnchorPoint: "Anchor-2" 509 10 basechar 0
AnchorPoint: "Anchor-1" 283 0 basechar 0
AnchorPoint: "Anchor-0" 283 496 basechar 0
LayerCount: 2
Fore
SplineSet
403 300 m 1
 401.769563492 359.060952368 359.137025432 397 294 397 c 0
 228.495263764 397 185.411065792 361.280622195 177 300 c 1
 403 300 l 1
404 -154 m 1
 389.715022447 -159.194537292 351.751867054 -164 325 -164 c 0
 239.274819052 -164 183 -128.729162707 183 -75 c 0
 183 -44.6542688719 195.570583953 -25.3731022354 228.176965765 -5.70611450486 c 1
 100.254401747 19.4045151789 24 115.277088821 24 251 c 0
 24 400.475309689 136.484817076 510 290 510 c 0
 443.291639836 510 544.68835911 400.103046395 544.68835911 233.960745621 c 0
 544.68835911 226.064968408 544.458830163 218.075410866 544 210 c 1
 177 210 l 1
 181.808844911 147.485016161 227.681699319 106 292 106 c 0
 335.059316172 106 371.385650853 119.440743832 392 143 c 1
 513 99 l 1
 484.366589402 57.1511691264 449.550066495 28.7658907565 403.573936027 9.78691875215 c 0
 320.792399529 -31.6229370814 309 -40.0752703808 309 -58 c 0
 309 -77.4065758164 325.243250415 -88 355 -88 c 0
 377.623357382 -88 389.389120897 -81.4351465171 404 -79 c 1
 404 -154 l 1
EndSplineSet
EndChar

StartChar: Iogonek
Encoding: 341 302 275
Width: 458
GlyphClass: 2
Flags: W
HStem: -174 76<238.661 330.315> 0 124<57 151 309.446 401> 544 124<57 151 309 401>
VStem: 57 344<0 124 544 668> 110 126<-94.7475 -39.3355>
AnchorPoint: "Anchor-2" 331 0 basechar 0
AnchorPoint: "Anchor-1" 229 0 basechar 0
AnchorPoint: "Anchor-0" 231 668 basechar 0
LayerCount: 2
Fore
SplineSet
331 -164 m 1xe8
 316.715022447 -169.194537292 278.751867054 -174 252 -174 c 0
 166.274819052 -174 110 -138.729162707 110 -85 c 0xe8
 110 -46.4075194924 138.690799554 -15.9235449663 190 0 c 1
 57 0 l 1
 57 124 l 1
 151 124 l 1
 151 544 l 1
 57 544 l 1
 57 668 l 1
 401 668 l 1
 401 544 l 1
 309 544 l 1
 309 124 l 1
 401 124 l 1
 401 0 l 1xf0
 331 0 l 1
 247.855143443 -41.5724282788 236 -50.0582151642 236 -68 c 0
 236 -87.4065758164 252.243250415 -98 282 -98 c 0
 304.623357382 -98 316.389120897 -91.4351465171 331 -89 c 1
 331 -164 l 1xe8
EndSplineSet
EndChar

StartChar: iogonek
Encoding: 342 303 276
Width: 315
GlyphClass: 1
Flags: W
HStem: -174 76<178.661 270.315> 380 116<24 118> 578 180<137.428 254.215>
VStem: 50 126<-94.7475 -39.3355> 105 180<610.428 727.215> 118 153<0 380>
LayerCount: 2
Fore
SplineSet
285 668 m 0xe8
 285 617.516193754 245.483806246 578 195 578 c 0
 145.16229186 578 105 618.16229186 105 668 c 0
 105 718.483806247 144.516193753 758 195 758 c 0
 246.124521771 758 285 719.124521771 285 668 c 0xe8
271 -164 m 1xe4
 256.715022447 -169.194537292 218.751867054 -174 192 -174 c 0
 106.274819052 -174 50 -138.729162707 50 -85 c 0xf0
 50 -46.4075194923 78.6907995539 -15.9235449663 130 0 c 1
 118 0 l 1
 118 380 l 1
 24 380 l 1
 24 496 l 1
 271 496 l 1
 271 0 l 1xe4
 187.855143443 -41.5724282788 176 -50.0582151642 176 -68 c 0xf0
 176 -87.4065758164 192.243250415 -98 222 -98 c 0
 244.623357382 -98 256.389120897 -91.4351465171 271 -89 c 1
 271 -164 l 1xe4
EndSplineSet
EndChar

StartChar: Uogonek
Encoding: 355 370 289
Width: 663
GlyphClass: 2
Flags: W
HStem: -174 76<347.661 439.315> 648 20G<44 202 461 619>
VStem: 44 158<166.668 668> 219 126<-94.7475 -39.6096> 461 158<166.352 668>
AnchorPoint: "Anchor-2" 440 0 basechar 0
AnchorPoint: "Anchor-1" 332 0 basechar 0
AnchorPoint: "Anchor-0" 332 668 basechar 0
LayerCount: 2
Fore
SplineSet
440 -164 m 1
 425.715022447 -169.194537292 387.751867054 -174 361 -174 c 0
 275.274819052 -174 219 -138.729162707 219 -85 c 0
 219 -51.7826091783 236.020536315 -29.1074169843 275.814721789 -9.3099798854 c 1
 115.209884374 7.02280042167 44 99.5805493978 44 292 c 2
 44 668 l 1
 202 668 l 1
 202 279 l 2
 202 160.415339102 236.83946965 117 332 117 c 0
 426.431314059 117 461 160.411838159 461 279 c 2
 461 668 l 1
 619 668 l 1
 619 292 l 2
 619 121.715802458 561.608201148 28.7017436139 438.306337181 -0.84760754139 c 1
 356.610035906 -41.7708557085 345 -50.1265763506 345 -68 c 0
 345 -87.4065758164 361.243250415 -98 391 -98 c 0
 413.623357382 -98 425.389120897 -91.4351465171 440 -89 c 1
 440 -164 l 1
EndSplineSet
EndChar

StartChar: uogonek
Encoding: 356 371 290
Width: 570
GlyphClass: 1
Flags: W
HStem: -174 76<426.661 518.315> -12 118<161.446 310.477> 476 20G<50 202 366 519>
VStem: 50 152<129.235 496> 298 126<-94.7475 -39.6443> 366 153<134.573 496>
LayerCount: 2
Fore
SplineSet
519 -164 m 1xf4
 504.715022447 -169.194537292 466.751867054 -174 440 -174 c 0
 354.274819052 -174 298 -138.729162707 298 -85 c 0xf8
 298 -43.8706637917 316.72480443 -25.4999434927 386.46295973 1.79013423448 c 1
 366 70 l 1
 331.763136898 12.419821146 288.879548544 -12 222 -12 c 0
 100.892184533 -12 50 50.1358066974 50 198 c 2
 50 496 l 1
 202 496 l 1
 202 219 l 2
 202 137.935327949 224.043854691 106 280 106 c 0
 340.442341764 106 366 144.336487354 366 235 c 2
 366 496 l 1
 519 496 l 1
 519 0 l 1xf4
 435.855143443 -41.5724282788 424 -50.0582151642 424 -68 c 0xf8
 424 -87.4065758164 440.243250415 -98 470 -98 c 0
 492.623357382 -98 504.389120897 -91.4351465171 519 -89 c 1
 519 -164 l 1xf4
EndSplineSet
EndChar

StartChar: Hbar
Encoding: 365 294 299
Width: 740
GlyphClass: 2
Flags: W
HStem: 0 21G<75 233 508 666> 274 139<233 508> 496 98<15 75 233 508 666 725> 648 20G<75 233 508 666>
VStem: 75 158<0 274 413 496 594 668> 508 158<0 274 413 496 594 668>
AnchorPoint: "Anchor-1" 371 0 basechar 0
AnchorPoint: "Anchor-0" 371 668 basechar 0
LayerCount: 2
Fore
SplineSet
233 413 m 1
 508 413 l 1
 508 496 l 1
 233 496 l 1
 233 413 l 1
75 0 m 1
 75 496 l 1
 15 496 l 1
 15 594 l 1
 75 594 l 1
 75 668 l 1
 233 668 l 1
 233 594 l 1
 508 594 l 1
 508 668 l 1
 666 668 l 1
 666 594 l 1
 725 594 l 1
 725 496 l 1
 666 496 l 1
 666 0 l 1
 508 0 l 1
 508 274 l 1
 233 274 l 1
 233 0 l 1
 75 0 l 1
EndSplineSet
EndChar

StartChar: hbar
Encoding: 366 295 300
Width: 629
GlyphClass: 1
Flags: W
HStem: 0 21G<107 259 427 579> 392 118<323.449 470.944> 555 78<13 107 259 382>
VStem: 107 152<0 356.18 430 555 633 698> 427 152<0 370.242>
LayerCount: 2
Fore
SplineSet
351 392 m 0
 288.61593783 392 259 347.898005623 259 255 c 2
 259 0 l 1
 107 0 l 1
 107 555 l 1
 13 555 l 1
 13 633 l 1
 107 633 l 1
 107 698 l 1
 259 698 l 1
 259 633 l 1
 382 633 l 1
 382 555 l 1
 259 555 l 1
 259 430 l 1
 288.558327712 478.684304471 348.44959541 510 412 510 c 0
 529.887114266 510 579 448.829459684 579 302 c 2
 579 0 l 1
 427 0 l 1
 427 264 l 2
 427 362.055306148 409.220338025 392 351 392 c 0
EndSplineSet
EndChar

StartChar: dcroat
Encoding: 385 273 319
Width: 632
GlyphClass: 1
Flags: W
HStem: -12 118<230.749 332.977> 0 21G<412.03 563> 392 118<230.499 328.005> 555 78<243 394 546 612>
VStem: 24 158<162.131 340.77> 394 152<428 555 633 698> 401 145<155.771 341.938>
LayerCount: 2
Fore
SplineSet
182 252 m 0xba
 182 165.465620512 226.802864769 106 292 106 c 0
 361.104551108 106 401 158.33990084 401 249 c 0
 401 338.972905407 360.58074608 392 292 392 c 0
 225.842322907 392 182 336.200679936 182 252 c 0xba
398 67 m 1
 361.185977135 15.9353876386 306.376039363 -12 243 -12 c 0
 110.955120867 -12 24 92.8226114562 24 252 c 0
 24 408.565709576 110.101200011 510 243 510 c 0
 305.253888942 510 364.98847894 477.561348478 394 428 c 1
 394 555 l 1
 243 555 l 1
 243 633 l 1
 394 633 l 1
 394 698 l 1
 546 698 l 1
 546 633 l 1
 612 633 l 1
 612 555 l 1
 546 555 l 1xbc
 546 194 l 2
 546 128.753236344 551.963234008 60.7022129611 563 0 c 1
 418 0 l 1x7a
 398 67 l 1
EndSplineSet
EndChar

StartChar: Scedilla
Encoding: 393 350 327
Width: 619
GlyphClass: 2
Flags: W
HStem: -187 50<231.881 340.861> 553 127<214.447 383.366>
VStem: 28 162<445.985 528.604> 342 94<-133.501 -85.8689> 434 162<140.79 229.121>
DStem2: 266 421 231 285 0.980581 -0.196116<-67.7021 186.545>
AnchorPoint: "Anchor-1" 329 -187 basechar 0
AnchorPoint: "Anchor-0" 304 668 basechar 0
LayerCount: 2
Fore
SplineSet
270.92981633 -90.0658511294 m 0xf0
 260.08872557 -90.0658511294 250.565365284 -79.9643174182 250.565365284 -68.4650524007 c 0
 250.565365284 -65.0457988898 251.400475236 -61.7991683373 253 -59 c 2
 282.690852017 -11.0378544341 l 1
 155.691402558 -3.04183977696 63.7954691291 56.882660312 25 157 c 1
 169 209 l 1
 186.851204427 147.795870537 237.78947143 115 315 115 c 0
 389.121318585 115 434 141.399224362 434 185 c 0
 434 226.62969029 394.706996271 253.683889579 312 269 c 1
 231 285 l 2
 96.6632482406 312.364893877 28 375.954503085 28 473 c 0
 28 594.254252912 145.22727742 680 311 680 c 0
 434.920579564 680 530.247475916 626.006250113 567 535 c 1
 424 483 l 1
 406.917922311 527.676203187 360.973319521 553 297 553 c 0
 231.38225434 553 190 528.247997404 190 489 c 0
 190 456.563528347 218.912447892 430.694496022 266 421 c 2
 356 403 l 2
 527.313205192 369.573033134 596 314.051207331 596 209 c 0xe8
 596 90.4768190629 489.312903085 -0.924474252076 339.029841319 -11.15225389 c 1
 316 -48 l 1
 325.333333333 -46.0000000001 336.666666667 -45 350 -45 c 0
 401.740558236 -45 436 -69.6986673181 436 -107 c 0
 436 -156.425266658 387.46261082 -187 309 -187 c 0
 278.515936245 -187 247.795600526 -182.461768587 221 -174 c 1
 237 -124 l 1
 251.607190184 -131.303595106 278.336474688 -137 298 -137 c 0
 326.551505849 -137 342 -127.520242226 342 -110 c 0
 342 -93.9601046873 327.826004868 -84 305 -84 c 0
 292.250355216 -84 283.679461114 -90.0658511294 270.92981633 -90.0658511294 c 0xf0
EndSplineSet
Substitution2: "'locl' Localized Forms in Latin lookup 8 subtable" uni0218
Substitution2: "'aalt' Access All Alternates lookup 0 subtable" uni0218
EndChar

StartChar: scedilla
Encoding: 394 351 328
Width: 534
GlyphClass: 2
Flags: W
HStem: -187 50<169.881 278.861> -11.8289 110.829<276.607 345.075> 399 111<186.326 337.565>
VStem: 33 145<331.058 388.282> 280 94<-133.501 -85.8689> 361 146<115.115 173.402>
DStem2: 239 319 195 205 0.983353 -0.181706<-64.616 148.539>
AnchorPoint: "Anchor-1" 267 -187 basechar 0
AnchorPoint: "Anchor-0" 268 496 basechar 0
LayerCount: 2
Fore
SplineSet
208.92981633 -90.0658511294 m 0xf8
 198.08872557 -90.0658511294 188.565365284 -79.9643174182 188.565365284 -68.4650524007 c 0
 188.565365284 -65.0457988898 189.400475236 -61.7991683373 191 -59 c 2
 221.370164237 -9.94050392487 l 1
 124.132369192 -0.199572362025 54.1756860126 43.0726712834 21 114 c 1
 150 161 l 1
 164.022425535 121.482255308 206.448617004 99 267 99 c 0
 323.565183033 99 361 117.31916575 361 145 c 0
 361 167.708306602 337.85902805 181.232251248 284 190 c 2
 195 205 l 2
 91.235336188 222.294110635 33 275.496763449 33 353 c 0
 33 447.744209636 123.409682822 510 261 510 c 0
 369.040069062 510 447.38753407 470.826267496 481 400 c 1
 353 353 l 1
 344.932116854 384.11897785 314.846572073 399 260 399 c 0
 205.333333333 399 178 385.666666667 178 359 c 0
 178 338.649423302 196.059003257 326.807453953 239 319 c 2
 331 302 l 2
 457.375415824 279.533259409 507 240.05915836 507 162 c 0xf4
 507 58.3856136115 419.107641974 -7.92815962064 276.606918839 -11.8289298583 c 1
 254 -48 l 1
 263.333333333 -46.0000000001 274.666666667 -45 288 -45 c 0
 339.740558236 -45 374 -69.6986673181 374 -107 c 0
 374 -156.425266658 325.46261082 -187 247 -187 c 0
 216.515936245 -187 185.795600526 -182.461768587 159 -174 c 1
 175 -124 l 1
 189.607190184 -131.303595106 216.336474688 -137 236 -137 c 0
 264.551505849 -137 280 -127.520242226 280 -110 c 0
 280 -93.9601046873 265.826004868 -84 243 -84 c 0
 230.250355216 -84 221.679461114 -90.0658511294 208.92981633 -90.0658511294 c 0xf8
EndSplineSet
Substitution2: "'locl' Localized Forms in Latin lookup 8 subtable" uni0219
Substitution2: "'aalt' Access All Alternates lookup 0 subtable" uni0219
EndChar

StartChar: uni0162
Encoding: 396 354 330
Width: 617
GlyphClass: 2
Flags: W
HStem: -187 50<211.881 320.861> 529 139<15 230 387 602>
VStem: 230 157<0 529> 322 94<-133.501 -85.8689>
AnchorPoint: "Anchor-1" 286 -251 basechar 0
AnchorPoint: "Anchor-0" 309 668 basechar 0
LayerCount: 2
Fore
SplineSet
250.92981633 -90.0658511294 m 0xd0
 240.08872557 -90.0658511294 230.565365284 -79.9643174182 230.565365284 -68.4650524007 c 0
 230.565365284 -65.0457988898 231.400475236 -61.7991683373 233 -59 c 2
 269.523809524 -3.5527136788e-15 l 1
 230 0 l 1
 230 529 l 1
 15 529 l 1
 15 668 l 1
 602 668 l 1
 602 529 l 1
 387 529 l 1
 387 0 l 1xe0
 326 0 l 1
 296 -48 l 1
 305.333333333 -46.0000000001 316.666666667 -45 330 -45 c 0
 381.740558236 -45 416 -69.6986673181 416 -107 c 0
 416 -156.425266658 367.46261082 -187 289 -187 c 0
 258.515936245 -187 227.795600526 -182.461768587 201 -174 c 1
 217 -124 l 1
 231.607190184 -131.303595106 258.336474688 -137 278 -137 c 0
 306.551505849 -137 322 -127.520242226 322 -110 c 0
 322 -93.9601046873 307.826004868 -84 285 -84 c 0
 272.250355216 -84 263.679461114 -90.0658511294 250.92981633 -90.0658511294 c 0xd0
EndSplineSet
Substitution2: "'locl' Localized Forms in Latin lookup 8 subtable" uni021A
Substitution2: "'aalt' Access All Alternates lookup 0 subtable" uni021A
EndChar

StartChar: acutecomb
Encoding: 398 769 332
Width: 0
GlyphClass: 4
Flags: W
HStem: 574 153<108.026 141.972>
VStem: 0 208
AnchorPoint: "Anchor-4" 104 727 basemark 0
AnchorPoint: "Anchor-4" 68 496 mark 0
AnchorPoint: "Anchor-0" 68 496 mark 0
LayerCount: 2
Fore
SplineSet
152 727 m 0
 184.267112599 727 208 703.267112599 208 671 c 0
 208 653.666666667 201.666666667 639.666666667 189 629 c 0
 184 625.578947368 184 625.578947368 114 574 c 1
 0 574 l 1
 1.11105188387 575.34913443 109.888948116 707.65086557 111 709 c 0
 121 721 134.666666667 727 152 727 c 0
EndSplineSet
Substitution2: "'case' Case-Sensitive Forms lookup 15 subtable" acutecomb.case
Substitution2: "Single Substitution lookup 7 subtable" acutecomb.case
Substitution2: "Single Substitution lookup 6 subtable" acutecomb.case
Substitution2: "Single Substitution lookup 4 subtable" acutecomb.case
Substitution2: "Single Substitution lookup 3 subtable" acutecomb.case
Substitution2: "'aalt' Access All Alternates lookup 0 subtable" acutecomb.case
EndChar

StartChar: acutecomb.case
Encoding: 399 -1 333
Width: 0
GlyphClass: 4
Flags: W
HStem: 731 154<117.481 153.872>
VStem: 0 218
AnchorPoint: "Anchor-4" 109 885 basemark 0
AnchorPoint: "Anchor-4" 70 668 mark 0
AnchorPoint: "Anchor-0" 70 668 mark 0
LayerCount: 2
Fore
SplineSet
162 885 m 0
 192.981483598 885 218 859.981483598 218 829 c 0
 218 812.746805337 211.867112441 798.867112441 199 786 c 1
 175.835823418 770.150826549 143.023437873 744.280427906 125 731 c 1
 0 731 l 1
 1.18570645838 732.343800653 117.814293542 863.656199347 119 865 c 0
 132.333333333 878.333333333 146.666666667 885 162 885 c 0
EndSplineSet
EndChar

StartChar: uni0306
Encoding: 400 774 334
Width: 0
GlyphClass: 4
Flags: W
HStem: 569 77<97.5847 190.629>
VStem: 0 85<658.383 689>
AnchorPoint: "Anchor-4" 144 689 basemark 0
AnchorPoint: "Anchor-4" 144 496 mark 0
AnchorPoint: "Anchor-0" 144 496 mark 0
LayerCount: 2
Fore
SplineSet
287 689 m 1
 274.695343556 619.273613482 214.367007377 569 143 569 c 0
 72.5756610451 569 12.241797211 619.629815805 0 689 c 1
 85 689 l 1
 91.0781492583 664.687402968 116.284413727 646 143 646 c 0
 170.645314609 646 195.840681201 664.362724804 202 689 c 1
 287 689 l 1
EndSplineSet
Substitution2: "'case' Case-Sensitive Forms lookup 15 subtable" uni0306.case
Substitution2: "Single Substitution lookup 7 subtable" uni0306.case
Substitution2: "Single Substitution lookup 6 subtable" uni0306.case
Substitution2: "Single Substitution lookup 4 subtable" uni0306.case
Substitution2: "Single Substitution lookup 3 subtable" uni0306.case
Substitution2: "'aalt' Access All Alternates lookup 0 subtable" uni0306.case
EndChar

StartChar: uni030C
Encoding: 402 780 336
Width: 0
GlyphClass: 4
Flags: W
HStem: 568 91<151.5 242.5>
AnchorPoint: "Anchor-4" 197 720 basemark 0
AnchorPoint: "Anchor-4" 197 496 mark 0
AnchorPoint: "Anchor-0" 197 496 mark 0
LayerCount: 2
Fore
SplineSet
197 568 m 0
 177.666666666 568 161 574.333333333 147 587 c 2
 0 720 l 1
 129 720 l 1
 197 659 l 1
 265 720 l 1
 393 720 l 1
 247 587 l 2
 232.333333333 574.333333333 215.666666667 568 197 568 c 0
EndSplineSet
Substitution2: "'case' Case-Sensitive Forms lookup 15 subtable" uni030C.case
Substitution2: "Single Substitution lookup 7 subtable" uni030C.case
Substitution2: "Single Substitution lookup 6 subtable" uni030C.case
Substitution2: "Single Substitution lookup 4 subtable" uni030C.case
Substitution2: "Single Substitution lookup 3 subtable" uni030C.case
Substitution2: "'aalt' Access All Alternates lookup 0 subtable" uni030C.case
EndChar

StartChar: uni030C.alt
Encoding: 403 -1 337
Width: 0
GlyphClass: 1
Flags: W
HStem: 496 192<55.7794 100>
VStem: 44 111<571.863 675.934>
LayerCount: 2
Fore
SplineSet
100 688 m 0
 130.662465097 688 155 662.777463828 155 631 c 0
 155 625 154 619.333333333 152 614 c 2
 100 496 l 1
 20 496 l 1
 20.2416217728 497.449730637 43.7583782272 639.550269363 44 641 c 0
 48.673616625 667.873295594 72.6543708111 688 100 688 c 0
EndSplineSet
EndChar

StartChar: uni0327
Encoding: 405 807 339
Width: 0
GlyphClass: 4
Flags: W
HStem: -187 50<10.8813 119.861>
VStem: 121 94<-133.501 -85.8689>
AnchorPoint: "Anchor-3" 108 -187 basemark 0
AnchorPoint: "Anchor-3" 108 0 mark 0
AnchorPoint: "Anchor-1" 108 0 mark 0
LayerCount: 2
Fore
SplineSet
49.9298163303 -90.0658511294 m 0
 39.0887255699 -90.0658511294 29.5653652842 -79.9643174181 29.5653652842 -68.4650524006 c 0
 29.5653652842 -65.0457988897 30.4004752358 -61.7991683373 32 -59 c 2
 84 25 l 1
 125 0 l 1
 95 -48 l 1
 104.333333333 -46.0000000001 115.666666667 -45 129 -45 c 0
 180.740558236 -45 215 -69.6986673181 215 -107 c 0
 215 -156.425266658 166.46261082 -187 88 -187 c 0
 57.5159362446 -187 26.7956005262 -182.461768587 0 -174 c 1
 16 -124 l 1
 30.6071901946 -131.303595108 57.3364746883 -137 77 -137 c 0
 105.551505849 -137 121 -127.520242226 121 -110 c 0
 121 -93.9601046873 106.826004868 -84 84 -84 c 0
 71.2503552161 -84 62.6794611142 -90.0658511294 49.9298163303 -90.0658511294 c 0
EndSplineSet
EndChar

StartChar: uni0302
Encoding: 406 770 340
Width: 0
GlyphClass: 4
Flags: W
HStem: 635 91<151.5 242.5>
AnchorPoint: "Anchor-4" 197 726 basemark 0
AnchorPoint: "Anchor-4" 197 496 mark 0
AnchorPoint: "Anchor-0" 197 496 mark 0
LayerCount: 2
Fore
SplineSet
0 574 m 1
 147 706 l 2
 161.666666668 719.333333334 178.333333333 726 197 726 c 0
 214.732869829 726 232.813704135 718.767666278 247 706 c 2
 393 574 l 1
 265 574 l 1
 197 635 l 1
 129 574 l 1
 0 574 l 1
EndSplineSet
Substitution2: "'case' Case-Sensitive Forms lookup 15 subtable" uni0302.case
Substitution2: "Single Substitution lookup 7 subtable" uni0302.case
Substitution2: "Single Substitution lookup 6 subtable" uni0302.case
Substitution2: "Single Substitution lookup 4 subtable" uni0302.case
Substitution2: "Single Substitution lookup 3 subtable" uni0302.case
Substitution2: "'aalt' Access All Alternates lookup 0 subtable" uni0302.case
EndChar

StartChar: uni0302.case
Encoding: 407 -1 341
Width: 0
GlyphClass: 4
Flags: W
HStem: 731 152
AnchorPoint: "Anchor-4" 197 883 basemark 0
AnchorPoint: "Anchor-4" 197 668 mark 0
AnchorPoint: "Anchor-0" 197 668 mark 0
LayerCount: 2
Fore
SplineSet
0 731 m 1
 147 864 l 1
 162.5560817 876.44486536 179.46142893 883 196 883 c 0
 214.666666667 883 231 876.666666667 245 864 c 2
 393 731 l 1
 264 731 l 1
 196 792 l 1
 129 731 l 1
 0 731 l 1
EndSplineSet
EndChar

StartChar: uni0326
Encoding: 408 806 342
Width: 0
GlyphClass: 4
Flags: W
HStem: -251 45<52 79.6148>
VStem: 102 118<-185.964 -106.276>
AnchorPoint: "Anchor-3" 110 -251 basemark 0
AnchorPoint: "Anchor-3" 133 0 mark 0
AnchorPoint: "Anchor-1" 133 0 mark 0
LayerCount: 2
Fore
SplineSet
136 -45 m 1
 191.992284216 -67.6351787259 220 -99.6439967645 220 -141 c 0
 220 -207.505648726 153.572263508 -251 52 -251 c 1
 0 -206 l 1
 63.9118544462 -206 102 -183.221795306 102 -145 c 0
 102 -118.436350706 75.4426553859 -95.0033995759 34 -85 c 1
 136 -45 l 1
EndSplineSet
EndChar

StartChar: uni0308
Encoding: 409 776 343
Width: 0
GlyphClass: 4
Flags: W
HStem: 578 141<20.8477 120.643 214.848 315.09>
VStem: 0 141<598.357 698.152> 194 140<598.255 698.152>
AnchorPoint: "Anchor-4" 167 719 basemark 0
AnchorPoint: "Anchor-4" 167 496 mark 0
AnchorPoint: "Anchor-0" 167 496 mark 0
LayerCount: 2
Fore
SplineSet
334 648 m 0
 334 608.680054777 303.75823172 578 265 578 c 0
 225.659593139 578 194 609.213683376 194 648 c 0
 194 687.072841291 225.927158709 719 265 719 c 0
 303.500501335 719 334 687.616457895 334 648 c 0
141 648 m 0
 141 608.951033235 110.048966765 578 71 578 c 0
 31.6595931387 578 0 609.213683376 0 648 c 0
 0 687.072841291 31.9271587092 719 71 719 c 0
 109.786316624 719 141 687.340406861 141 648 c 0
EndSplineSet
Substitution2: "'case' Case-Sensitive Forms lookup 15 subtable" uni0308.case
Substitution2: "Single Substitution lookup 7 subtable" uni0308.case
Substitution2: "Single Substitution lookup 6 subtable" uni0308.case
Substitution2: "Single Substitution lookup 4 subtable" uni0308.case
Substitution2: "Single Substitution lookup 3 subtable" uni0308.case
Substitution2: "'aalt' Access All Alternates lookup 0 subtable" uni0308.case
EndChar

StartChar: uni0307
Encoding: 411 775 345
Width: 0
GlyphClass: 4
Flags: W
HStem: 578 141<20.8477 120.643>
VStem: 0 141<598.357 698.152>
AnchorPoint: "Anchor-4" 71 719 basemark 0
AnchorPoint: "Anchor-4" 71 496 mark 0
AnchorPoint: "Anchor-0" 71 496 mark 0
LayerCount: 2
Fore
SplineSet
141 648 m 0
 141 608.951033235 110.048966765 578 71 578 c 0
 31.6595931387 578 0 609.213683376 0 648 c 0
 0 687.072841291 31.9271587092 719 71 719 c 0
 109.786316624 719 141 687.340406861 141 648 c 0
EndSplineSet
Substitution2: "'case' Case-Sensitive Forms lookup 15 subtable" uni0307.case
Substitution2: "Single Substitution lookup 7 subtable" uni0307.case
Substitution2: "Single Substitution lookup 6 subtable" uni0307.case
Substitution2: "Single Substitution lookup 4 subtable" uni0307.case
Substitution2: "Single Substitution lookup 3 subtable" uni0307.case
Substitution2: "'aalt' Access All Alternates lookup 0 subtable" uni0307.case
EndChar

StartChar: Euro
Encoding: 413 8364 347
Width: 673
GlyphClass: 1
Flags: W
HStem: -12 130<326.306 477.071> 231 74<46 95 260 333> 366 74<45 95 262 407> 550 130<325.781 473.746>
VStem: 95 150.371<305 366>
LayerCount: 2
Fore
SplineSet
651 142 m 1
 601.526237736 44.4267466472 508.092339067 -12 396 -12 c 0
 242.875228948 -12 136.525628816 76.5032631236 104 231 c 1
 6 231 l 1
 46 305 l 1
 95 305 l 1
 95 366 l 1
 5 366 l 1
 45 440 l 1
 105 440 l 1
 140.299349429 592.058735996 248.393819767 680 400 680 c 0
 510.765387095 680 600.688151241 623.798272408 648 525 c 1
 519 478 l 1
 496.086195058 523.827609881 451.011523187 550 395 550 c 0
 334.724068802 550 285.544356633 509.325050086 262 440 c 1
 448 440 l 1
 407 366 l 1
 247 366 l 1
 246.030600232 357.275402089 245.371310105 340.880456303 245.371310105 325.498434085 c 0
 245.371310105 316.702022983 245.592852994 309.478617064 246 305 c 1
 373 305 l 1
 333 231 l 1
 260 231 l 1
 283.420298295 159.437977431 333.659262083 118 397 118 c 0
 455.828601865 118 501.499110291 143.734969034 523 189 c 1
 651 142 l 1
EndSplineSet
EndChar

StartChar: uni2074
Encoding: 414 8308 348
Width: 448
GlyphClass: 1
Flags: W
HStem: 477 87<158 236 337 395>
VStem: 236 101<403 477 564 659>
DStem2: 55 555 158 564 0.630199 0.776433<71.8984 194.815>
LayerCount: 2
Fore
SplineSet
158 564 m 1
 236 564 l 1
 236 659 l 1
 158 564 l 1
236 403 m 1
 236 477 l 1
 55 477 l 1
 55 555 l 1
 236 778 l 1
 337 778 l 1
 337 564 l 1
 395 564 l 1
 395 477 l 1
 337 477 l 1
 337 403 l 1
 236 403 l 1
EndSplineSet
EndChar

StartChar: gravecomb
Encoding: 415 768 349
Width: 0
GlyphClass: 4
Flags: W
HStem: 574 154<66.0284 99.7188>
VStem: 0 208
AnchorPoint: "Anchor-4" 104 728 basemark 0
AnchorPoint: "Anchor-4" 139 496 mark 0
AnchorPoint: "Anchor-0" 139 496 mark 0
LayerCount: 2
Fore
SplineSet
0 671 m 0
 0 702.27041325 25.2781904912 728 56 728 c 0
 73.333333334 728 87.3333333337 721.666666667 98 709 c 2
 208 574 l 1
 94 574 l 1
 24 625.578947368 24 625.578947368 19 629 c 0
 6.33333333333 641.666666667 0 655.666666667 0 671 c 0
EndSplineSet
Substitution2: "'case' Case-Sensitive Forms lookup 15 subtable" gravecomb.case
Substitution2: "Single Substitution lookup 7 subtable" gravecomb.case
Substitution2: "Single Substitution lookup 6 subtable" gravecomb.case
Substitution2: "Single Substitution lookup 4 subtable" gravecomb.case
Substitution2: "Single Substitution lookup 3 subtable" gravecomb.case
Substitution2: "'aalt' Access All Alternates lookup 0 subtable" gravecomb.case
EndChar

StartChar: gravecomb.case
Encoding: 416 -1 350
Width: 0
GlyphClass: 4
Flags: W
HStem: 731 154<65.989 99.8594>
VStem: 0 219
AnchorPoint: "Anchor-4" 110 885 basemark 0
AnchorPoint: "Anchor-4" 147 668 mark 0
AnchorPoint: "Anchor-0" 147 668 mark 0
LayerCount: 2
Fore
SplineSet
0 829 m 0
 0 858.688936885 26.311063115 885 56 885 c 0
 71.3333333333 885 84 880 94 870 c 2
 219 731 l 1
 94 731 l 1
 68.2871049118 749.946343749 45.420479289 768.607040486 20 786 c 1
 5.27147290929 800.728527091 0 812.062193846 0 829 c 0
EndSplineSet
EndChar

StartChar: uni030B
Encoding: 417 779 351
Width: 0
GlyphClass: 4
Flags: W
HStem: 574 153<109.003 114 312.003 317>
AnchorPoint: "Anchor-4" 206 727 basemark 0
AnchorPoint: "Anchor-4" 158 496 mark 0
AnchorPoint: "Anchor-0" 158 496 mark 0
LayerCount: 2
Fore
SplineSet
355 727 m 0
 387.267112599 727 411 703.267112599 411 671 c 0
 411 652.207256235 404.441189252 637.708832477 392 629 c 2
 317 574 l 1
 203 574 l 1
 312 707 l 2
 323.333333333 720.333333333 337.666666667 727 355 727 c 0
152 727 m 0
 184.267112599 727 208 703.267112599 208 671 c 0
 208 652.207256235 201.441189252 637.708832477 189 629 c 2
 114 574 l 1
 0 574 l 1
 109 707 l 2
 120.333333333 720.333333333 134.666666667 727 152 727 c 0
EndSplineSet
Substitution2: "'case' Case-Sensitive Forms lookup 15 subtable" uni030B.case
Substitution2: "Single Substitution lookup 7 subtable" uni030B.case
Substitution2: "Single Substitution lookup 6 subtable" uni030B.case
Substitution2: "Single Substitution lookup 4 subtable" uni030B.case
Substitution2: "Single Substitution lookup 3 subtable" uni030B.case
Substitution2: "'aalt' Access All Alternates lookup 0 subtable" uni030B.case
EndChar

StartChar: dotlessi
Encoding: 419 305 353
Width: 301
GlyphClass: 2
Flags: W
HStem: 0 21G<118 271> 381 115<24 118>
VStem: 118 153<0 381>
AnchorPoint: "Anchor-2" 271 10 basechar 0
AnchorPoint: "Anchor-1" 151 0 basechar 0
AnchorPoint: "Anchor-0" 161 496 basechar 0
LayerCount: 2
Fore
SplineSet
118 0 m 1
 118 381 l 1
 24 381 l 1
 24 496 l 1
 271 496 l 1
 271 0 l 1
 118 0 l 1
EndSplineSet
EndChar

StartChar: uni0304
Encoding: 420 772 354
Width: 0
GlyphClass: 4
Flags: W
HStem: 570 98<0 299>
VStem: 0 299<570 668>
AnchorPoint: "Anchor-4" 150 668 basemark 0
AnchorPoint: "Anchor-4" 150 496 mark 0
AnchorPoint: "Anchor-0" 150 496 mark 0
LayerCount: 2
Fore
SplineSet
0 570 m 1
 0 668 l 1
 299 668 l 1
 299 570 l 1
 0 570 l 1
EndSplineSet
Substitution2: "'case' Case-Sensitive Forms lookup 15 subtable" uni0304.case
Substitution2: "Single Substitution lookup 7 subtable" uni0304.case
Substitution2: "Single Substitution lookup 6 subtable" uni0304.case
Substitution2: "Single Substitution lookup 4 subtable" uni0304.case
Substitution2: "Single Substitution lookup 3 subtable" uni0304.case
Substitution2: "'aalt' Access All Alternates lookup 0 subtable" uni0304.case
EndChar

StartChar: uni00B5
Encoding: 181 181 356
Width: 591
GlyphClass: 1
Flags: W
HStem: -161 21G<50 207> -12 118<224.731 319.916> 0 124<520.035 588> 476 20G<50 202 365 517>
VStem: 50 152<-161 -7.8006 128.654 496> 365 152<141.605 496>
LayerCount: 2
Fore
SplineSet
195 -6 m 1xdc
 203.390616285 -44.5968349103 207 -71.3664307964 207 -95 c 2
 207 -161 l 1
 50 -161 l 1
 50 496 l 1
 202 496 l 1
 202 235 l 2
 202 142.691383913 222.763341284 106 275 106 c 0xdc
 332.589318277 106 365 152.095191784 365 234 c 2
 365 496 l 1
 517 496 l 1
 517 163 l 2
 517 137 531.666666667 124 561 124 c 0
 573.140682871 124 580.274110901 125.585206229 588 130 c 1
 588 6 l 1
 567.711341495 1.49140922124 552.797249283 0 528 0 c 0xbc
 444.993265152 0 397.135129293 22.5214756985 375 72 c 1
 363.666666667 51.333333334 347.500000001 32.1666666673 326.5 14.5 c 0
 305.5 -3.16666666675 276.666666667 -12 240 -12 c 0
 224 -12 209 -10 195 -6 c 1xdc
EndSplineSet
EndChar

StartChar: uni0328
Encoding: 422 808 357
Width: 0
GlyphClass: 4
Flags: W
HStem: -174 76<128.661 220.315>
VStem: 0 126<-94.7475 -39.3355>
AnchorPoint: "Anchor-2" 221 0 mark 0
LayerCount: 2
Fore
SplineSet
221 -164 m 1
 206.715022447 -169.194537292 168.751867054 -174 142 -174 c 0
 56.2748190519 -174 0 -138.729162707 0 -85 c 0
 0 -46.4075194921 28.690799554 -15.923544966 80 0 c 1
 221 0 l 1
 137.855143443 -41.5724282788 126 -50.0582151642 126 -68 c 0
 126 -87.4065758164 142.243250415 -98 172 -98 c 0
 194.623357382 -98 206.389120897 -91.4351465171 221 -89 c 1
 221 -164 l 1
EndSplineSet
Substitution2: "'case' Case-Sensitive Forms lookup 15 subtable" uni0328.case
Substitution2: "Single Substitution lookup 7 subtable" uni0328.case
Substitution2: "Single Substitution lookup 6 subtable" uni0328.case
Substitution2: "Single Substitution lookup 4 subtable" uni0328.case
Substitution2: "Single Substitution lookup 3 subtable" uni0328.case
Substitution2: "'aalt' Access All Alternates lookup 0 subtable" uni0328.case
EndChar

StartChar: uni0328.case
Encoding: 423 -1 358
Width: 0
GlyphClass: 4
Flags: W
HStem: -174 76<128.661 220.315>
VStem: 0 126<-94.7475 -33.8921>
AnchorPoint: "Anchor-2" 221 0 mark 0
LayerCount: 2
Fore
SplineSet
221 -164 m 1
 206.715022447 -169.194537292 168.751867054 -174 142 -174 c 0
 56.2748190519 -174 0 -138.729162707 0 -85 c 0
 0 -46.4075194921 28.690799554 -15.923544966 80 0 c 1
 221 0 l 1
 173.634036579 -4.98589088643 126 -39.0818328588 126 -68 c 0
 126 -87.4065758164 142.243250415 -98 172 -98 c 0
 194.623357382 -98 206.389120897 -91.4351465171 221 -89 c 1
 221 -164 l 1
EndSplineSet
EndChar

StartChar: uni030A
Encoding: 424 778 359
Width: 0
GlyphClass: 4
Flags: W
HStem: 535 86<92.6985 171.613> 715 85<92.5872 171.723>
VStem: 0 85<628.55 707.413> 179 86<628.387 707.574>
AnchorPoint: "Anchor-4" 133 800 basemark 0
AnchorPoint: "Anchor-4" 133 496 mark 0
AnchorPoint: "Anchor-0" 133 496 mark 0
LayerCount: 2
Fore
SplineSet
85 668 m 0
 85 642.389407887 106.389407887 621 132 621 c 0
 158.259482008 621 179 641.740517992 179 668 c 0
 179 694.898087459 158.898087459 715 132 715 c 0
 105.740517992 715 85 694.259482008 85 668 c 0
265 668 m 0
 265 594.533979685 205.466020315 535 132 535 c 0
 59.5274573459 535 0 594.978422932 0 668 c 0
 0 740.638213498 59.3617865021 800 132 800 c 0
 205.631679565 800 265 741.078057914 265 668 c 0
EndSplineSet
Substitution2: "'case' Case-Sensitive Forms lookup 15 subtable" uni030A.case
Substitution2: "Single Substitution lookup 7 subtable" uni030A.case
Substitution2: "Single Substitution lookup 6 subtable" uni030A.case
Substitution2: "Single Substitution lookup 4 subtable" uni030A.case
Substitution2: "Single Substitution lookup 3 subtable" uni030A.case
Substitution2: "'aalt' Access All Alternates lookup 0 subtable" uni030A.case
EndChar

StartChar: uni00AD
Encoding: 173 173 362
Width: 350
GlyphClass: 1
Flags: W
HStem: 184 129<24 326>
VStem: 24 302<184 313>
LayerCount: 2
Fore
SplineSet
24 184 m 1
 24 313 l 1
 326 313 l 1
 326 184 l 1
 24 184 l 1
EndSplineSet
EndChar

StartChar: uni0163
Encoding: 427 355 363
Width: 379
GlyphClass: 2
Flags: W
HStem: -187 50<141.881 250.861> 0 124<255.989 355> 380 116<13 95 247 355>
VStem: 95 152<131.314 380 496 620> 252 94<-133.501 -85.8689>
AnchorPoint: "Anchor-1" 216 -251 basechar 0
AnchorPoint: "Anchor-0" 190 496 basechar 0
LayerCount: 2
Fore
SplineSet
180.92981633 -90.0658511294 m 0
 170.08872557 -90.0658511294 160.565365284 -79.9643174182 160.565365284 -68.4650524007 c 0
 160.565365284 -65.0457988898 161.400475236 -61.7991683373 163 -59 c 2
 201.350523703 2.95084598249 l 1
 120.669573428 12.356609735 95 45.4358386828 95 140 c 2
 95 380 l 1
 13 380 l 1
 13 496 l 1
 95 496 l 1
 95 620 l 1
 247 620 l 1
 247 496 l 1
 355 496 l 1
 355 380 l 1
 247 380 l 1
 247 180 l 2
 247 135.68677862 260.356318423 124 311 124 c 2
 355 124 l 1
 355 0 l 1
 259 0 l 2
 257.991342201 0 256.987811 0.00215317136052 255.989406397 0.00645951408157 c 2
 226 -48 l 1
 235.333333333 -46.0000000001 246.666666667 -45 260 -45 c 0
 311.740558236 -45 346 -69.6986673181 346 -107 c 0
 346 -156.425266658 297.46261082 -187 219 -187 c 0
 188.515936245 -187 157.795600526 -182.461768587 131 -174 c 1
 147 -124 l 1
 161.607190184 -131.303595106 188.336474688 -137 208 -137 c 0
 236.551505849 -137 252 -127.520242226 252 -110 c 0
 252 -93.9601046873 237.826004868 -84 215 -84 c 0
 202.250355216 -84 193.679461114 -90.0658511294 180.92981633 -90.0658511294 c 0
EndSplineSet
Substitution2: "'locl' Localized Forms in Latin lookup 8 subtable" uni021B
Substitution2: "'aalt' Access All Alternates lookup 0 subtable" uni021B
EndChar

StartChar: tildecomb
Encoding: 429 771 365
Width: 0
GlyphClass: 4
Flags: W
HStem: 569 79<189.992 289.099> 607 82<93.6362 188.385>
AnchorPoint: "Anchor-4" 185 689 basemark 0
AnchorPoint: "Anchor-4" 185 496 mark 0
AnchorPoint: "Anchor-0" 185 496 mark 0
LayerCount: 2
Fore
SplineSet
370 649 m 0x40
 370 609.798435026 312.882190964 569 258 569 c 0x80
 203.806688794 569 186.193311206 607 132 607 c 0
 109.30643219 607 92.814368783 594.343300176 89 574 c 1
 0 574 l 1
 12.2808068849 649.049375407 55.7053988336 689 125 689 c 0x40
 184.191343595 689 189.808656405 648 249 648 c 0x80
 286.116949917 648 290.883050083 689 328 689 c 0
 352.750527428 689 370 672.571930884 370 649 c 0x40
EndSplineSet
Substitution2: "'case' Case-Sensitive Forms lookup 15 subtable" tildecomb.case
Substitution2: "Single Substitution lookup 7 subtable" tildecomb.case
Substitution2: "Single Substitution lookup 6 subtable" tildecomb.case
Substitution2: "Single Substitution lookup 4 subtable" tildecomb.case
Substitution2: "Single Substitution lookup 3 subtable" tildecomb.case
Substitution2: "'aalt' Access All Alternates lookup 0 subtable" tildecomb.case
EndChar

StartChar: zero.alt1
Encoding: 431 -1 367
Width: 652
Flags: W
HStem: -12 113<267.518 396.392> 567 113<266.96 396.662>
VStem: 45 157<247.459 482.83> 462 156<189.083 425.963>
DStem2: 208 246 251 139 0.570817 0.821077<0 292.32>
LayerCount: 2
Fore
SplineSet
454 431 m 1
 251 139 l 1
 271.667207299 113.66672851 298.667339123 101 332 101 c 0
 415.804014124 101 462 184.152774577 462 335 c 0
 462 371.630371139 459.426396151 402.513617331 454 431 c 1
208 246 m 1
 409 534 l 1
 387.667107925 555.999880644 362.000162761 567 332 567 c 0
 247.038975505 567 202 486.276297748 202 334 c 0
 202 301.333170572 203.99998007 272.000129543 208 246 c 1
45 335 m 0
 45 555.939947223 148.203580136 680 332 680 c 0
 514.830120584 680 618 555.546823782 618 335 c 0
 618 115.144816365 513.206289682 -12 332 -12 c 0
 149.770540177 -12 45 114.673788994 45 335 c 0
EndSplineSet
Substitution2: "'tnum' Tabular Numbers lookup 14 subtable" zero
Substitution2: "'aalt' Access All Alternates lookup 0 subtable" zero.tf
Substitution2: "'zero' Slashed Zero lookup 0-1" zero
EndChar

StartChar: copyleft
Encoding: 432 127279 368
Width: 798
Flags: W
HStem: -12 69<294.321 504.731> 145 85<333.991 442.333> 437 85<339.41 441.501> 610 69<294.469 504.584>
VStem: 53 70<228.47 439.039> 468 112<257.579 410.886> 675 70<228.732 438.778>
LayerCount: 2
Fore
SplineSet
580 334 m 0
 580 216.214255982 511.046514049 145 397 145 c 0
 325.225360013 145 267.196969651 175.805194884 235 231 c 1
 325 264 l 1
 337.666666667 241.333333333 359.666666667 230 391 230 c 0
 439.102906345 230 468 269.02984078 468 334 c 0
 468 398.076179408 438.901609849 437 391 437 c 0
 359.077144901 437 337.149950292 422.494317412 326 394 c 1
 234 428 l 1
 262.700312313 488.844662102 320.193079094 522 397 522 c 0
 505.97392128 522 580 445.951350823 580 334 c 0
123 334 m 0
 123 180.539081184 246.539081184 57 400 57 c 0
 551.778925636 57 675 181.117227632 675 334 c 0
 675 486.043578131 551.492695602 610 400 610 c 0
 246.827211278 610 123 486.619818365 123 334 c 0
745 334 m 0
 745 143.265159436 590.183583799 -12 400 -12 c 0
 207.960556187 -12 53 142.513983979 53 334 c 0
 53 524.469829289 208.425997788 679 400 679 c 0
 589.719523112 679 745 523.719523112 745 334 c 0
EndSplineSet
EndChar

StartChar: f_i
Encoding: 433 64257 369
Width: 616
Flags: W
HStem: 0 21G<87 239 419 572> 380 116<5 87 239 419> 578 180<438.428 555.215> 608 120<246.523 347>
VStem: 87 152<0 380 496 601.885> 406 180<610.428 727.215> 419 153<0 380>
LayerCount: 2
Fore
SplineSet
586 668 m 0xec
 586 617.516193754 546.483806246 578 496 578 c 0
 446.16229186 578 406 618.16229186 406 668 c 0
 406 718.483806247 445.516193753 758 496 758 c 0
 547.124521771 758 586 719.124521771 586 668 c 0xec
305 608 m 2xda
 250.933494915 608 239 599.863526194 239 563 c 2
 239 496 l 1
 572 496 l 1
 572 0 l 1
 419 0 l 1
 419 380 l 1
 239 380 l 1
 239 0 l 1
 87 0 l 1
 87 380 l 1
 5 380 l 1
 5 496 l 1
 87 496 l 1
 87 577 l 2
 87 688.775956471 136.614518636 728 278 728 c 2
 347 728 l 1
 347 608 l 1
 305 608 l 2xda
EndSplineSet
LCarets2: 1 350
Ligature2: "'liga' Standard Ligatures lookup 0-1" f i
EndChar

StartChar: f_f
Encoding: 434 64256 370
Width: 699
Flags: W
HStem: 0 21G<87 239 419 571> 380 116<5 87 239 419 571 679> 608 120<246.523 347 578.523 679>
VStem: 87 152<0 380 496 601.885> 419 152<0 380 496 601.885>
LayerCount: 2
Fore
SplineSet
637 608 m 2
 582.933494915 608 571 599.863526194 571 563 c 2
 571 496 l 1
 679 496 l 1
 679 380 l 1
 571 380 l 1
 571 0 l 1
 419 0 l 1
 419 380 l 1
 239 380 l 1
 239 0 l 1
 87 0 l 1
 87 380 l 1
 5 380 l 1
 5 496 l 1
 87 496 l 1
 87 577 l 2
 87 688.775956471 136.614518636 728 278 728 c 2
 347 728 l 1
 347 608 l 1
 305 608 l 2
 250.933494915 608 239 599.863526194 239 563 c 2
 239 496 l 1
 419 496 l 1
 419 577 l 2
 419 688.775956471 468.614518636 728 610 728 c 2
 679 728 l 1
 679 608 l 1
 637 608 l 2
EndSplineSet
LCarets2: 1 348
Ligature2: "'liga' Standard Ligatures lookup 0-1" f f
EndChar

StartChar: f_f_i
Encoding: 435 64259 371
Width: 933
Flags: W
HStem: 0 21G<87 239 419 571 751 904> 380 116<5 87 239 419 571 751> 578 180<770.428 887.215> 608 120<246.523 347 578.523 679>
VStem: 87 152<0 380 496 601.885> 419 152<0 380 496 601.885> 738 180<610.428 727.215> 751 153<0 380>
LayerCount: 2
Fore
SplineSet
918 668 m 0xee
 918 617.516193754 878.483806246 578 828 578 c 0
 778.16229186 578 738 618.16229186 738 668 c 0
 738 718.483806247 777.516193753 758 828 758 c 0
 879.124521771 758 918 719.124521771 918 668 c 0xee
637 608 m 2xdd
 582.933494915 608 571 599.863526194 571 563 c 2
 571 496 l 1
 904 496 l 1
 904 0 l 1
 751 0 l 1
 751 380 l 1
 571 380 l 1
 571 0 l 1
 419 0 l 1
 419 380 l 1
 239 380 l 1
 239 0 l 1
 87 0 l 1
 87 380 l 1
 5 380 l 1
 5 496 l 1
 87 496 l 1
 87 577 l 2
 87 688.775956471 136.614518636 728 278 728 c 2
 347 728 l 1
 347 608 l 1
 305 608 l 2
 250.933494915 608 239 599.863526194 239 563 c 2
 239 496 l 1
 419 496 l 1
 419 577 l 2
 419 688.775956471 468.614518636 728 610 728 c 2
 679 728 l 1
 679 608 l 1
 637 608 l 2xdd
EndSplineSet
LCarets2: 2 346 678
Ligature2: "'liga' Standard Ligatures lookup 0-1" f f i
EndChar

StartChar: f_f_l
Encoding: 437 64260 373
Width: 1013
Flags: W
HStem: 0 124<907.013 1010> 380 116<5 87 239 419 571 679> 608 120<246.523 347 578.523 679> 648 20G<749 901>
VStem: 87 152<0 380 496 601.885> 419 152<0 380 496 601.885> 749 152<134.889 668>
LayerCount: 2
Fore
SplineSet
637 608 m 2xee
 582.933494915 608 571 599.863526194 571 563 c 2
 571 496 l 1
 679 496 l 1
 679 380 l 1
 571 380 l 1
 571 0 l 1
 419 0 l 1
 419 380 l 1
 239 380 l 1
 239 0 l 1
 87 0 l 1
 87 380 l 1
 5 380 l 1
 5 496 l 1
 87 496 l 1
 87 577 l 2
 87 688.775956471 136.614518636 728 278 728 c 2
 347 728 l 1
 347 608 l 1
 305 608 l 2
 250.933494915 608 239 599.863526194 239 563 c 2
 239 496 l 1
 419 496 l 1
 419 577 l 2
 419 688.775956471 468.614518636 728 610 728 c 2
 679 728 l 1
 679 608 l 1
 637 608 l 2xee
901 180 m 2
 901 135.762906135 914.863425088 124 967 124 c 2
 1010 124 l 1
 1010 0 l 1
 913 0 l 2
 783.80562015 0 749 29.7121147621 749 140 c 2
 749 668 l 1
 901 668 l 1xde
 901 180 l 2
EndSplineSet
LCarets2: 2 348 716
Ligature2: "'liga' Standard Ligatures lookup 0-1" f f l
EndChar

StartChar: dong
Encoding: 438 8363 374
Width: 632
InSpiro: 1
Flags: W
HStem: -120 78<58 588> -12 118<230.749 332.977> 0 21G<412.03 563> 392 118<230.499 328.005> 555 78<243 394 546 612>
VStem: 24 158<162.131 340.77> 394 152<428 555 633 698> 401 145<155.771 341.938>
LayerCount: 2
Fore
SplineSet
58 -120 m 1x9c
 58 -42 l 1
 588 -42 l 1
 588 -120 l 1
 58 -120 l 1x9c
  Spiro
    58 -120 v
    58 -42 v
    588 -42 v
    588 -120 v
    0 0 z
  EndSpiro
EndSplineSet
Refer: 319 273 N 1 0 0 1 0 0 2
EndChar

StartChar: uni0237
Encoding: 474 567 410
Width: 259
HStem: -161 120<-70 52.6553> 476 20G<55 207>
VStem: 55 152<-32.8957 496>
AnchorPoint: "Anchor-0" 133 496 basechar 0
LayerCount: 2
Fore
SplineSet
207 -24 m 2
 207 -120.640699039 151.027246842 -161 17 -161 c 2
 -70 -161 l 1
 -70 -41 l 1
 -11 -41 l 2
 42.3599566998 -41 55 -33.5308835044 55 -2 c 2
 55 496 l 1
 207 496 l 1
 207 -24 l 2
EndSplineSet
EndChar

StartChar: uni2010
Encoding: 489 8208 425
Width: 334
Flags: W
HStem: 184 129<24 310>
VStem: 24 286<184 313>
LayerCount: 2
Fore
SplineSet
24 184 m 1
 24 313 l 1
 310 313 l 1
 310 184 l 1
 24 184 l 1
EndSplineSet
EndChar

StartChar: Ldot
Encoding: 496 319 432
Width: 537
HStem: 0 139<202 522> 250 194<326.851 447.777> 648 20G<44 202>
VStem: 44 158<139 668> 290 194<285.793 409.204>
LayerCount: 2
Fore
SplineSet
484 347 m 0
 484 293.562323634 442.228508786 251.35571272 388 250 c 0
 332.305020564 251.392374486 290 293.265711167 290 347 c 0
 290 402.081387307 332.350763339 444 388 444 c 0
 442.219059269 444 484 401.783841136 484 347 c 0
EndSplineSet
Refer: 26 76 N 1 0 0 1 0 0 3
EndChar

StartChar: ldot
Encoding: 497 320 433
Width: 485
Flags: W
HStem: 0 124<208.013 311> 250 194<307.48 428.013> 648 20G<50 202>
VStem: 50 152<134.889 668> 270 195<287.098 407.176>
LayerCount: 2
Fore
SplineSet
465 347 m 0
 465 293.128512445 421.871487555 250 368 250 c 0
 313.838557533 250 270 293.391225314 270 347 c 0
 270 401.256543766 313.184110421 444 368 444 c 0
 422.517225277 444 465 401.517225277 465 347 c 0
EndSplineSet
Refer: 52 108 N 1 0 0 1 0 0 2
EndChar

